<svg width="3890" height="950" viewBox="0 0 3890 950" fill="none" xmlns="http://www.w3.org/2000/svg">
<g clip-path="url(#clip0_12_379)">
<rect x="1975" y="5" width="1910" height="190" rx="95" fill="#FEB1A0" stroke="#FF7A5C" stroke-width="10"/>
<path d="M3419.5 126.305V139H3369.89V128.258L3392.74 104.234C3394.76 101.923 3396.38 99.8561 3397.62 98.0332C3398.86 96.1777 3399.75 94.5013 3400.31 93.0039C3400.89 91.5065 3401.19 90.1556 3401.19 88.9512C3401.19 86.9004 3400.88 85.1914 3400.26 83.8242C3399.67 82.4245 3398.79 81.3665 3397.62 80.6504C3396.48 79.9342 3395.07 79.5762 3393.37 79.5762C3391.68 79.5762 3390.2 80.0645 3388.93 81.041C3387.66 82.0176 3386.67 83.3522 3385.95 85.0449C3385.27 86.7376 3384.93 88.6419 3384.93 90.7578H3368.42C3368.42 86.3958 3369.48 82.4082 3371.6 78.7949C3373.74 75.1816 3376.72 72.3008 3380.53 70.1523C3384.34 67.9714 3388.75 66.8809 3393.76 66.8809C3399 66.8809 3403.4 67.6947 3406.95 69.3223C3410.5 70.9499 3413.16 73.3099 3414.96 76.4023C3416.78 79.4622 3417.69 83.1569 3417.69 87.4863C3417.69 89.9603 3417.3 92.3366 3416.52 94.6152C3415.74 96.8939 3414.61 99.1562 3413.15 101.402C3411.68 103.616 3409.89 105.895 3407.78 108.238C3405.69 110.582 3403.32 113.072 3400.65 115.709L3391.47 126.305H3419.5ZM3477.26 96.959V109.947C3477.26 115.058 3476.66 119.501 3475.45 123.277C3474.28 127.053 3472.59 130.178 3470.38 132.652C3468.19 135.126 3465.59 136.965 3462.56 138.17C3459.54 139.374 3456.2 139.977 3452.55 139.977C3449.62 139.977 3446.89 139.602 3444.35 138.854C3441.81 138.072 3439.52 136.9 3437.46 135.338C3435.45 133.743 3433.71 131.757 3432.24 129.381C3430.78 127.005 3429.65 124.205 3428.87 120.982C3428.09 117.727 3427.7 114.049 3427.7 109.947V96.959C3427.7 91.8158 3428.29 87.3724 3429.46 83.6289C3430.66 79.8529 3432.37 76.7279 3434.58 74.2539C3436.8 71.7799 3439.42 69.9408 3442.45 68.7363C3445.47 67.5319 3448.81 66.9297 3452.46 66.9297C3455.38 66.9297 3458.1 67.3203 3460.61 68.1016C3463.15 68.8503 3465.44 70.0221 3467.49 71.6172C3469.54 73.1797 3471.29 75.1491 3472.72 77.5254C3474.18 79.9017 3475.31 82.7174 3476.09 85.9727C3476.87 89.1953 3477.26 92.8574 3477.26 96.959ZM3460.8 111.949V94.8594C3460.8 92.5807 3460.67 90.5951 3460.41 88.9023C3460.19 87.2096 3459.83 85.7773 3459.34 84.6055C3458.88 83.4336 3458.31 82.4896 3457.63 81.7734C3456.95 81.0247 3456.17 80.4876 3455.29 80.1621C3454.44 79.804 3453.5 79.625 3452.46 79.625C3451.15 79.625 3449.98 79.9017 3448.94 80.4551C3447.93 80.9759 3447.07 81.8223 3446.35 82.9941C3445.64 84.166 3445.08 85.7285 3444.69 87.6816C3444.33 89.6348 3444.15 92.0273 3444.15 94.8594V111.949C3444.15 114.26 3444.27 116.279 3444.5 118.004C3444.76 119.697 3445.11 121.145 3445.57 122.35C3446.06 123.521 3446.64 124.482 3447.33 125.23C3448.01 125.947 3448.79 126.467 3449.67 126.793C3450.55 127.118 3451.51 127.281 3452.55 127.281C3453.82 127.281 3454.96 127.021 3455.97 126.5C3456.98 125.979 3457.84 125.133 3458.56 123.961C3459.31 122.757 3459.86 121.178 3460.22 119.225C3460.61 117.239 3460.8 114.814 3460.8 111.949Z" fill="#CC5129"/>
<path d="M2879.52 110.217V122.912H2828.35L2827.37 112.854L2855.94 66.9062H2868.93L2854.81 90.002L2843.1 110.217H2879.52ZM2872.34 66.9062V138H2855.89V66.9062H2872.34ZM2936.26 95.959V108.947C2936.26 114.058 2935.66 118.501 2934.45 122.277C2933.28 126.053 2931.59 129.178 2929.38 131.652C2927.19 134.126 2924.59 135.965 2921.56 137.17C2918.54 138.374 2915.2 138.977 2911.55 138.977C2908.62 138.977 2905.89 138.602 2903.35 137.854C2900.81 137.072 2898.52 135.9 2896.46 134.338C2894.45 132.743 2892.71 130.757 2891.24 128.381C2889.78 126.005 2888.65 123.205 2887.87 119.982C2887.09 116.727 2886.7 113.049 2886.7 108.947V95.959C2886.7 90.8158 2887.29 86.3724 2888.46 82.6289C2889.66 78.8529 2891.37 75.7279 2893.58 73.2539C2895.8 70.7799 2898.42 68.9408 2901.45 67.7363C2904.47 66.5319 2907.81 65.9297 2911.46 65.9297C2914.38 65.9297 2917.1 66.3203 2919.61 67.1016C2922.15 67.8503 2924.44 69.0221 2926.49 70.6172C2928.54 72.1797 2930.29 74.1491 2931.72 76.5254C2933.18 78.9017 2934.31 81.7174 2935.09 84.9727C2935.87 88.1953 2936.26 91.8574 2936.26 95.959ZM2919.8 110.949V93.8594C2919.8 91.5807 2919.67 89.5951 2919.41 87.9023C2919.19 86.2096 2918.83 84.7773 2918.34 83.6055C2917.88 82.4336 2917.31 81.4896 2916.63 80.7734C2915.95 80.0247 2915.17 79.4876 2914.29 79.1621C2913.44 78.804 2912.5 78.625 2911.46 78.625C2910.15 78.625 2908.98 78.9017 2907.94 79.4551C2906.93 79.9759 2906.07 80.8223 2905.35 81.9941C2904.64 83.166 2904.08 84.7285 2903.69 86.6816C2903.33 88.6348 2903.15 91.0273 2903.15 93.8594V110.949C2903.15 113.26 2903.27 115.279 2903.5 117.004C2903.76 118.697 2904.11 120.145 2904.57 121.35C2905.06 122.521 2905.64 123.482 2906.33 124.23C2907.01 124.947 2907.79 125.467 2908.67 125.793C2909.55 126.118 2910.51 126.281 2911.55 126.281C2912.82 126.281 2913.96 126.021 2914.97 125.5C2915.98 124.979 2916.84 124.133 2917.56 122.961C2918.31 121.757 2918.86 120.178 2919.22 118.225C2919.61 116.239 2919.8 113.814 2919.8 110.949Z" fill="#CC5129"/>
<path d="M3135.95 65.8809H3138.58V78.8203H3137.71C3134.55 78.8203 3131.59 79.2598 3128.82 80.1387C3126.08 81.0176 3123.68 82.3522 3121.59 84.1426C3119.54 85.9004 3117.93 88.1302 3116.76 90.832C3115.62 93.5339 3115.05 96.7077 3115.05 100.354V112.805C3115.05 115.083 3115.24 117.069 3115.63 118.762C3116.03 120.454 3116.61 121.854 3117.39 122.961C3118.17 124.068 3119.13 124.898 3120.27 125.451C3121.45 126.005 3122.8 126.281 3124.33 126.281C3125.6 126.281 3126.77 125.988 3127.84 125.402C3128.92 124.816 3129.84 123.986 3130.62 122.912C3131.44 121.838 3132.06 120.585 3132.48 119.152C3132.9 117.72 3133.12 116.158 3133.12 114.465C3133.12 112.642 3132.89 110.998 3132.43 109.533C3131.98 108.068 3131.32 106.831 3130.48 105.822C3129.66 104.781 3128.67 103.999 3127.5 103.479C3126.36 102.925 3125.11 102.648 3123.74 102.648C3121.66 102.648 3119.88 103.12 3118.42 104.064C3116.99 104.976 3115.9 106.148 3115.15 107.58C3114.43 109.012 3114.07 110.461 3114.07 111.926L3110.12 107.922C3110.05 105.969 3110.43 103.951 3111.24 101.867C3112.05 99.7839 3113.27 97.847 3114.9 96.0566C3116.53 94.2663 3118.56 92.8177 3121.01 91.7109C3123.45 90.6042 3126.28 90.0508 3129.5 90.0508C3132.76 90.0508 3135.62 90.6693 3138.1 91.9062C3140.6 93.1432 3142.7 94.8685 3144.39 97.082C3146.12 99.2956 3147.42 101.883 3148.3 104.846C3149.18 107.808 3149.62 111.014 3149.62 114.465C3149.62 117.948 3149 121.187 3147.76 124.182C3146.56 127.144 3144.85 129.732 3142.64 131.945C3140.42 134.159 3137.8 135.884 3134.78 137.121C3131.75 138.358 3128.41 138.977 3124.77 138.977C3121.02 138.977 3117.56 138.342 3114.37 137.072C3111.21 135.77 3108.44 133.898 3106.06 131.457C3103.72 128.983 3101.88 125.972 3100.55 122.424C3099.24 118.876 3098.59 114.855 3098.59 110.363V104.357C3098.59 98.2702 3099.59 92.8503 3101.57 88.0977C3103.59 83.3451 3106.32 79.3249 3109.78 76.0371C3113.26 72.7168 3117.25 70.194 3121.74 68.4688C3126.23 66.7435 3130.97 65.8809 3135.95 65.8809ZM3206.26 95.959V108.947C3206.26 114.058 3205.66 118.501 3204.45 122.277C3203.28 126.053 3201.59 129.178 3199.38 131.652C3197.19 134.126 3194.59 135.965 3191.56 137.17C3188.54 138.374 3185.2 138.977 3181.55 138.977C3178.62 138.977 3175.89 138.602 3173.35 137.854C3170.81 137.072 3168.52 135.9 3166.46 134.338C3164.45 132.743 3162.71 130.757 3161.24 128.381C3159.78 126.005 3158.65 123.205 3157.87 119.982C3157.09 116.727 3156.7 113.049 3156.7 108.947V95.959C3156.7 90.8158 3157.29 86.3724 3158.46 82.6289C3159.66 78.8529 3161.37 75.7279 3163.58 73.2539C3165.8 70.7799 3168.42 68.9408 3171.45 67.7363C3174.47 66.5319 3177.81 65.9297 3181.46 65.9297C3184.38 65.9297 3187.1 66.3203 3189.61 67.1016C3192.15 67.8503 3194.44 69.0221 3196.49 70.6172C3198.54 72.1797 3200.29 74.1491 3201.72 76.5254C3203.18 78.9017 3204.31 81.7174 3205.09 84.9727C3205.87 88.1953 3206.26 91.8574 3206.26 95.959ZM3189.8 110.949V93.8594C3189.8 91.5807 3189.67 89.5951 3189.41 87.9023C3189.19 86.2096 3188.83 84.7773 3188.34 83.6055C3187.88 82.4336 3187.31 81.4896 3186.63 80.7734C3185.95 80.0247 3185.17 79.4876 3184.29 79.1621C3183.44 78.804 3182.5 78.625 3181.46 78.625C3180.15 78.625 3178.98 78.9017 3177.94 79.4551C3176.93 79.9759 3176.07 80.8223 3175.35 81.9941C3174.64 83.166 3174.08 84.7285 3173.69 86.6816C3173.33 88.6348 3173.15 91.0273 3173.15 93.8594V110.949C3173.15 113.26 3173.27 115.279 3173.5 117.004C3173.76 118.697 3174.11 120.145 3174.57 121.35C3175.06 122.521 3175.64 123.482 3176.33 124.23C3177.01 124.947 3177.79 125.467 3178.67 125.793C3179.55 126.118 3180.51 126.281 3181.55 126.281C3182.82 126.281 3183.96 126.021 3184.97 125.5C3185.98 124.979 3186.84 124.133 3187.56 122.961C3188.31 121.757 3188.86 120.178 3189.22 118.225C3189.61 116.239 3189.8 113.814 3189.8 110.949Z" fill="#CC5129"/>
<path d="M3647.31 66.9062V138H3630.85V85.4609L3614.64 90.1973V77.6973L3645.79 66.9062H3647.31ZM3718.26 95.959V108.947C3718.26 114.058 3717.65 118.501 3716.45 122.277C3715.28 126.053 3713.58 129.178 3711.37 131.652C3709.19 134.126 3706.59 135.965 3703.56 137.17C3700.53 138.374 3697.19 138.977 3693.55 138.977C3690.62 138.977 3687.88 138.602 3685.35 137.854C3682.81 137.072 3680.51 135.9 3678.46 134.338C3676.44 132.743 3674.7 130.757 3673.24 128.381C3671.77 126.005 3670.65 123.205 3669.87 119.982C3669.09 116.727 3668.7 113.049 3668.7 108.947V95.959C3668.7 90.8158 3669.28 86.3724 3670.45 82.6289C3671.66 78.8529 3673.37 75.7279 3675.58 73.2539C3677.79 70.7799 3680.41 68.9408 3683.44 67.7363C3686.47 66.5319 3689.81 65.9297 3693.45 65.9297C3696.38 65.9297 3699.1 66.3203 3701.61 67.1016C3704.14 67.8503 3706.44 69.0221 3708.49 70.6172C3710.54 72.1797 3712.28 74.1491 3713.71 76.5254C3715.18 78.9017 3716.3 81.7174 3717.08 84.9727C3717.87 88.1953 3718.26 91.8574 3718.26 95.959ZM3701.8 110.949V93.8594C3701.8 91.5807 3701.67 89.5951 3701.41 87.9023C3701.18 86.2096 3700.82 84.7773 3700.34 83.6055C3699.88 82.4336 3699.31 81.4896 3698.63 80.7734C3697.94 80.0247 3697.16 79.4876 3696.28 79.1621C3695.44 78.804 3694.49 78.625 3693.45 78.625C3692.15 78.625 3690.98 78.9017 3689.94 79.4551C3688.93 79.9759 3688.06 80.8223 3687.35 81.9941C3686.63 83.166 3686.08 84.7285 3685.69 86.6816C3685.33 88.6348 3685.15 91.0273 3685.15 93.8594V110.949C3685.15 113.26 3685.26 115.279 3685.49 117.004C3685.75 118.697 3686.11 120.145 3686.57 121.35C3687.05 122.521 3687.64 123.482 3688.32 124.23C3689.01 124.947 3689.79 125.467 3690.67 125.793C3691.55 126.118 3692.51 126.281 3693.55 126.281C3694.82 126.281 3695.96 126.021 3696.97 125.5C3697.98 124.979 3698.84 124.133 3699.55 122.961C3700.3 121.757 3700.86 120.178 3701.21 118.225C3701.61 116.239 3701.8 113.814 3701.8 110.949ZM3776.26 95.959V108.947C3776.26 114.058 3775.66 118.501 3774.46 122.277C3773.29 126.053 3771.59 129.178 3769.38 131.652C3767.2 134.126 3764.59 135.965 3761.57 137.17C3758.54 138.374 3755.2 138.977 3751.56 138.977C3748.63 138.977 3745.89 138.602 3743.35 137.854C3740.81 137.072 3738.52 135.9 3736.47 134.338C3734.45 132.743 3732.71 130.757 3731.24 128.381C3729.78 126.005 3728.66 123.205 3727.88 119.982C3727.09 116.727 3726.7 113.049 3726.7 108.947V95.959C3726.7 90.8158 3727.29 86.3724 3728.46 82.6289C3729.67 78.8529 3731.37 75.7279 3733.59 73.2539C3735.8 70.7799 3738.42 68.9408 3741.45 67.7363C3744.48 66.5319 3747.81 65.9297 3751.46 65.9297C3754.39 65.9297 3757.11 66.3203 3759.61 67.1016C3762.15 67.8503 3764.45 69.0221 3766.5 70.6172C3768.55 72.1797 3770.29 74.1491 3771.72 76.5254C3773.19 78.9017 3774.31 81.7174 3775.09 84.9727C3775.87 88.1953 3776.26 91.8574 3776.26 95.959ZM3759.81 110.949V93.8594C3759.81 91.5807 3759.68 89.5951 3759.42 87.9023C3759.19 86.2096 3758.83 84.7773 3758.34 83.6055C3757.89 82.4336 3757.32 81.4896 3756.63 80.7734C3755.95 80.0247 3755.17 79.4876 3754.29 79.1621C3753.44 78.804 3752.5 78.625 3751.46 78.625C3750.16 78.625 3748.99 78.9017 3747.94 79.4551C3746.93 79.9759 3746.07 80.8223 3745.36 81.9941C3744.64 83.166 3744.09 84.7285 3743.7 86.6816C3743.34 88.6348 3743.16 91.0273 3743.16 93.8594V110.949C3743.16 113.26 3743.27 115.279 3743.5 117.004C3743.76 118.697 3744.12 120.145 3744.57 121.35C3745.06 122.521 3745.65 123.482 3746.33 124.23C3747.02 124.947 3747.8 125.467 3748.68 125.793C3749.55 126.118 3750.51 126.281 3751.56 126.281C3752.83 126.281 3753.97 126.021 3754.97 125.5C3755.98 124.979 3756.85 124.133 3757.56 122.961C3758.31 121.757 3758.86 120.178 3759.22 118.225C3759.61 116.239 3759.81 113.814 3759.81 110.949Z" fill="#CC5129"/>
<path d="M2117.85 113.928H2134.94C2134.71 118.876 2133.38 123.238 2130.94 127.014C2128.49 130.79 2125.11 133.736 2120.78 135.852C2116.48 137.935 2111.4 138.977 2105.54 138.977C2100.79 138.977 2096.54 138.179 2092.8 136.584C2089.09 134.989 2085.93 132.694 2083.33 129.699C2080.76 126.704 2078.79 123.075 2077.42 118.811C2076.09 114.546 2075.42 109.745 2075.42 104.406V100.549C2075.42 95.2103 2076.12 90.4089 2077.52 86.1445C2078.95 81.8477 2080.97 78.2018 2083.57 75.207C2086.21 72.1797 2089.37 69.8685 2093.04 68.2734C2096.72 66.6784 2100.81 65.8809 2105.3 65.8809C2111.49 65.8809 2116.71 66.9876 2120.97 69.2012C2125.24 71.4147 2128.54 74.4583 2130.89 78.332C2133.23 82.1732 2134.61 86.5514 2135.04 91.4668H2117.95C2117.88 88.7975 2117.43 86.5677 2116.58 84.7773C2115.73 82.9544 2114.4 81.5872 2112.58 80.6758C2110.75 79.7643 2108.33 79.3086 2105.3 79.3086C2103.18 79.3086 2101.35 79.6992 2099.78 80.4805C2098.22 81.2617 2096.92 82.4987 2095.88 84.1914C2094.84 85.8841 2094.05 88.0814 2093.53 90.7832C2093.04 93.4525 2092.8 96.6751 2092.8 100.451V104.406C2092.8 108.182 2093.03 111.405 2093.48 114.074C2093.94 116.743 2094.67 118.924 2095.68 120.617C2096.69 122.31 2097.99 123.563 2099.59 124.377C2101.22 125.158 2103.2 125.549 2105.54 125.549C2108.15 125.549 2110.35 125.142 2112.14 124.328C2113.93 123.482 2115.31 122.212 2116.29 120.52C2117.26 118.794 2117.78 116.597 2117.85 113.928ZM2203.2 101.037V103.918C2203.2 109.354 2202.44 114.237 2200.91 118.566C2199.41 122.863 2197.28 126.542 2194.51 129.602C2191.74 132.629 2188.47 134.956 2184.7 136.584C2180.92 138.179 2176.75 138.977 2172.2 138.977C2167.61 138.977 2163.41 138.179 2159.6 136.584C2155.82 134.956 2152.53 132.629 2149.73 129.602C2146.97 126.542 2144.82 122.863 2143.29 118.566C2141.79 114.237 2141.04 109.354 2141.04 103.918V101.037C2141.04 95.6009 2141.79 90.7181 2143.29 86.3887C2144.82 82.0592 2146.95 78.3809 2149.69 75.3535C2152.45 72.2936 2155.72 69.9661 2159.5 68.3711C2163.31 66.7435 2167.51 65.9297 2172.1 65.9297C2176.65 65.9297 2180.82 66.7435 2184.6 68.3711C2188.41 69.9661 2191.69 72.2936 2194.46 75.3535C2197.23 78.3809 2199.38 82.0592 2200.91 86.3887C2202.44 90.7181 2203.2 95.6009 2203.2 101.037ZM2185.82 103.918V100.939C2185.82 97.4238 2185.51 94.3314 2184.89 91.6621C2184.3 88.9603 2183.43 86.6979 2182.25 84.875C2181.08 83.0521 2179.63 81.6849 2177.91 80.7734C2176.22 79.8294 2174.28 79.3574 2172.1 79.3574C2169.82 79.3574 2167.83 79.8294 2166.14 80.7734C2164.45 81.6849 2163.03 83.0521 2161.89 84.875C2160.75 86.6979 2159.89 88.9603 2159.3 91.6621C2158.75 94.3314 2158.47 97.4238 2158.47 100.939V103.918C2158.47 107.401 2158.75 110.493 2159.3 113.195C2159.89 115.865 2160.75 118.127 2161.89 119.982C2163.06 121.838 2164.5 123.238 2166.19 124.182C2167.91 125.126 2169.92 125.598 2172.2 125.598C2174.38 125.598 2176.31 125.126 2178.01 124.182C2179.7 123.238 2181.11 121.838 2182.25 119.982C2183.43 118.127 2184.3 115.865 2184.89 113.195C2185.51 110.493 2185.82 107.401 2185.82 103.918ZM2248.71 119.104C2248.71 117.997 2248.55 117.004 2248.22 116.125C2247.9 115.214 2247.29 114.367 2246.41 113.586C2245.54 112.805 2244.27 112.023 2242.61 111.242C2240.98 110.428 2238.83 109.582 2236.16 108.703C2233.04 107.661 2230.02 106.49 2227.13 105.188C2224.23 103.853 2221.64 102.307 2219.36 100.549C2217.08 98.7585 2215.28 96.6751 2213.94 94.2988C2212.61 91.89 2211.94 89.0905 2211.94 85.9004C2211.94 82.8405 2212.62 80.0898 2213.99 77.6484C2215.36 75.1745 2217.26 73.0749 2219.71 71.3496C2222.18 69.5918 2225.08 68.2572 2228.4 67.3457C2231.72 66.4017 2235.35 65.9297 2239.29 65.9297C2244.49 65.9297 2249.08 66.8411 2253.05 68.6641C2257.06 70.4544 2260.18 73.0098 2262.43 76.3301C2264.71 79.6178 2265.85 83.5078 2265.85 88H2248.81C2248.81 86.2096 2248.43 84.6309 2247.68 83.2637C2246.97 81.8965 2245.88 80.8223 2244.41 80.041C2242.95 79.2598 2241.11 78.8691 2238.89 78.8691C2236.75 78.8691 2234.94 79.1947 2233.47 79.8457C2232.01 80.4967 2230.9 81.3757 2230.15 82.4824C2229.41 83.5566 2229.03 84.7448 2229.03 86.0469C2229.03 87.1211 2229.32 88.0977 2229.91 88.9766C2230.53 89.8229 2231.39 90.6204 2232.5 91.3691C2233.64 92.1178 2235 92.834 2236.6 93.5176C2238.23 94.2012 2240.05 94.8685 2242.07 95.5195C2245.84 96.724 2249.2 98.0749 2252.13 99.5723C2255.09 101.037 2257.58 102.714 2259.6 104.602C2261.65 106.457 2263.19 108.573 2264.24 110.949C2265.31 113.326 2265.85 116.011 2265.85 119.006C2265.85 122.196 2265.23 125.028 2263.99 127.502C2262.76 129.976 2260.98 132.076 2258.67 133.801C2256.36 135.493 2253.59 136.779 2250.37 137.658C2247.15 138.537 2243.55 138.977 2239.58 138.977C2235.93 138.977 2232.34 138.521 2228.79 137.609C2225.27 136.665 2222.08 135.233 2219.22 133.312C2216.35 131.359 2214.06 128.869 2212.33 125.842C2210.64 122.782 2209.79 119.152 2209.79 114.953H2226.98C2226.98 117.036 2227.26 118.794 2227.81 120.227C2228.36 121.659 2229.18 122.814 2230.25 123.693C2231.33 124.54 2232.64 125.158 2234.21 125.549C2235.77 125.907 2237.56 126.086 2239.58 126.086C2241.76 126.086 2243.52 125.777 2244.85 125.158C2246.19 124.507 2247.16 123.661 2247.78 122.619C2248.4 121.545 2248.71 120.373 2248.71 119.104ZM2309.11 66.9062V138H2291.97V66.9062H2309.11ZM2330.5 66.9062V80.1387H2271.07V66.9062H2330.5Z" fill="#CC5129"/>
<rect x="1975" y="505" width="1910" height="190" rx="95" fill="#CBA7F6" stroke="#A673E5" stroke-width="10"/>
<path d="M3448.26 619.42C3448.26 623.945 3447.18 627.737 3445.03 630.797C3442.92 633.857 3439.99 636.152 3436.24 637.682C3432.53 639.212 3428.3 639.977 3423.55 639.977C3418.83 639.977 3414.58 639.212 3410.8 637.682C3407.06 636.152 3404.1 633.857 3401.92 630.797C3399.74 627.737 3398.65 623.945 3398.65 619.42C3398.65 616.327 3399.26 613.561 3400.5 611.119C3401.77 608.645 3403.53 606.546 3405.78 604.82C3408.02 603.095 3410.64 601.777 3413.64 600.865C3416.66 599.954 3419.94 599.498 3423.45 599.498C3428.2 599.498 3432.45 600.312 3436.2 601.939C3439.94 603.535 3442.88 605.813 3445.03 608.775C3447.18 611.738 3448.26 615.286 3448.26 619.42ZM3431.7 618.102C3431.7 616.148 3431.36 614.505 3430.68 613.17C3429.99 611.803 3429.03 610.761 3427.8 610.045C3426.56 609.329 3425.11 608.971 3423.45 608.971C3421.82 608.971 3420.38 609.329 3419.11 610.045C3417.87 610.761 3416.89 611.803 3416.18 613.17C3415.49 614.505 3415.15 616.148 3415.15 618.102C3415.15 619.99 3415.51 621.633 3416.22 623.033C3416.94 624.4 3417.92 625.458 3419.15 626.207C3420.42 626.923 3421.89 627.281 3423.55 627.281C3425.21 627.281 3426.64 626.923 3427.85 626.207C3429.08 625.458 3430.03 624.4 3430.68 623.033C3431.36 621.633 3431.7 619.99 3431.7 618.102ZM3446.79 586.9C3446.79 590.611 3445.8 593.867 3443.81 596.666C3441.86 599.433 3439.12 601.598 3435.61 603.16C3432.13 604.69 3428.11 605.455 3423.55 605.455C3419.02 605.455 3414.99 604.69 3411.44 603.16C3407.92 601.598 3405.16 599.433 3403.14 596.666C3401.15 593.867 3400.16 590.611 3400.16 586.9C3400.16 582.538 3401.15 578.876 3403.14 575.914C3405.16 572.952 3407.92 570.706 3411.44 569.176C3414.96 567.646 3418.96 566.881 3423.45 566.881C3428.01 566.881 3432.04 567.646 3435.56 569.176C3439.08 570.706 3441.83 572.952 3443.81 575.914C3445.8 578.876 3446.79 582.538 3446.79 586.9ZM3430.34 587.779C3430.34 586.087 3430.08 584.638 3429.55 583.434C3429.03 582.197 3428.27 581.253 3427.26 580.602C3426.25 579.918 3424.98 579.576 3423.45 579.576C3421.99 579.576 3420.75 579.902 3419.74 580.553C3418.73 581.204 3417.97 582.148 3417.45 583.385C3416.92 584.589 3416.66 586.054 3416.66 587.779C3416.66 589.472 3416.92 590.953 3417.45 592.223C3417.97 593.492 3418.73 594.485 3419.74 595.201C3420.78 595.917 3422.05 596.275 3423.55 596.275C3425.08 596.275 3426.33 595.917 3427.31 595.201C3428.32 594.485 3429.07 593.492 3429.55 592.223C3430.08 590.953 3430.34 589.472 3430.34 587.779Z" fill="#56298E"/>
<path d="M2865.31 566.906V638H2848.86V585.461L2832.65 590.197V577.697L2863.8 566.906H2865.31ZM2936.26 595.959V608.947C2936.26 614.058 2935.66 618.501 2934.45 622.277C2933.28 626.053 2931.59 629.178 2929.38 631.652C2927.19 634.126 2924.59 635.965 2921.56 637.17C2918.54 638.374 2915.2 638.977 2911.55 638.977C2908.62 638.977 2905.89 638.602 2903.35 637.854C2900.81 637.072 2898.52 635.9 2896.46 634.338C2894.45 632.743 2892.71 630.757 2891.24 628.381C2889.78 626.005 2888.65 623.205 2887.87 619.982C2887.09 616.727 2886.7 613.049 2886.7 608.947V595.959C2886.7 590.816 2887.29 586.372 2888.46 582.629C2889.66 578.853 2891.37 575.728 2893.58 573.254C2895.8 570.78 2898.42 568.941 2901.45 567.736C2904.47 566.532 2907.81 565.93 2911.46 565.93C2914.38 565.93 2917.1 566.32 2919.61 567.102C2922.15 567.85 2924.44 569.022 2926.49 570.617C2928.54 572.18 2930.29 574.149 2931.72 576.525C2933.18 578.902 2934.31 581.717 2935.09 584.973C2935.87 588.195 2936.26 591.857 2936.26 595.959ZM2919.8 610.949V593.859C2919.8 591.581 2919.67 589.595 2919.41 587.902C2919.19 586.21 2918.83 584.777 2918.34 583.605C2917.88 582.434 2917.31 581.49 2916.63 580.773C2915.95 580.025 2915.17 579.488 2914.29 579.162C2913.44 578.804 2912.5 578.625 2911.46 578.625C2910.15 578.625 2908.98 578.902 2907.94 579.455C2906.93 579.976 2906.07 580.822 2905.35 581.994C2904.64 583.166 2904.08 584.729 2903.69 586.682C2903.33 588.635 2903.15 591.027 2903.15 593.859V610.949C2903.15 613.26 2903.27 615.279 2903.5 617.004C2903.76 618.697 2904.11 620.145 2904.57 621.35C2905.06 622.521 2905.64 623.482 2906.33 624.23C2907.01 624.947 2907.79 625.467 2908.67 625.793C2909.55 626.118 2910.51 626.281 2911.55 626.281C2912.82 626.281 2913.96 626.021 2914.97 625.5C2915.98 624.979 2916.84 624.133 2917.56 622.961C2918.31 621.757 2918.86 620.178 2919.22 618.225C2919.61 616.239 2919.8 613.814 2919.8 610.949Z" fill="#56298E"/>
<path d="M3135.31 566.906V638H3118.86V585.461L3102.65 590.197V577.697L3133.8 566.906H3135.31ZM3170.96 606.311L3157.87 603.234L3162.17 566.906H3203.72V579.699H3175.6L3173.98 593.811C3174.77 593.355 3176.08 592.818 3177.94 592.199C3179.83 591.548 3181.91 591.223 3184.19 591.223C3187.71 591.223 3190.81 591.76 3193.52 592.834C3196.25 593.876 3198.56 595.422 3200.45 597.473C3202.34 599.491 3203.75 601.981 3204.7 604.943C3205.67 607.906 3206.16 611.291 3206.16 615.1C3206.16 618.16 3205.66 621.122 3204.65 623.986C3203.67 626.818 3202.16 629.374 3200.11 631.652C3198.09 633.898 3195.53 635.689 3192.44 637.023C3189.35 638.326 3185.69 638.977 3181.46 638.977C3178.3 638.977 3175.22 638.488 3172.23 637.512C3169.23 636.535 3166.53 635.135 3164.12 633.312C3161.74 631.457 3159.86 629.227 3158.46 626.623C3157.09 623.986 3156.42 621.04 3156.46 617.785H3173.01C3173.11 619.51 3173.51 621.008 3174.23 622.277C3174.94 623.547 3175.9 624.54 3177.11 625.256C3178.35 625.939 3179.76 626.281 3181.36 626.281C3182.99 626.281 3184.34 625.956 3185.41 625.305C3186.48 624.654 3187.33 623.758 3187.95 622.619C3188.57 621.48 3189.01 620.178 3189.27 618.713C3189.53 617.215 3189.66 615.637 3189.66 613.977C3189.66 612.219 3189.46 610.64 3189.07 609.24C3188.71 607.84 3188.13 606.652 3187.31 605.676C3186.5 604.667 3185.44 603.902 3184.14 603.381C3182.87 602.86 3181.34 602.6 3179.55 602.6C3177.17 602.6 3175.3 603.007 3173.94 603.82C3172.57 604.634 3171.58 605.464 3170.96 606.311Z" fill="#56298E"/>
<path d="M3676.31 566.906V638H3659.86V585.461L3643.65 590.197V577.697L3674.8 566.906H3676.31ZM3747.26 595.959V608.947C3747.26 614.058 3746.66 618.501 3745.45 622.277C3744.28 626.053 3742.59 629.178 3740.38 631.652C3738.19 634.126 3735.59 635.965 3732.56 637.17C3729.54 638.374 3726.2 638.977 3722.55 638.977C3719.62 638.977 3716.89 638.602 3714.35 637.854C3711.81 637.072 3709.52 635.9 3707.46 634.338C3705.45 632.743 3703.71 630.757 3702.24 628.381C3700.78 626.005 3699.65 623.205 3698.87 619.982C3698.09 616.727 3697.7 613.049 3697.7 608.947V595.959C3697.7 590.816 3698.29 586.372 3699.46 582.629C3700.66 578.853 3702.37 575.728 3704.58 573.254C3706.8 570.78 3709.42 568.941 3712.45 567.736C3715.47 566.532 3718.81 565.93 3722.46 565.93C3725.38 565.93 3728.1 566.32 3730.61 567.102C3733.15 567.85 3735.44 569.022 3737.49 570.617C3739.54 572.18 3741.29 574.149 3742.72 576.525C3744.18 578.902 3745.31 581.717 3746.09 584.973C3746.87 588.195 3747.26 591.857 3747.26 595.959ZM3730.8 610.949V593.859C3730.8 591.581 3730.67 589.595 3730.41 587.902C3730.19 586.21 3729.83 584.777 3729.34 583.605C3728.88 582.434 3728.31 581.49 3727.63 580.773C3726.95 580.025 3726.17 579.488 3725.29 579.162C3724.44 578.804 3723.5 578.625 3722.46 578.625C3721.15 578.625 3719.98 578.902 3718.94 579.455C3717.93 579.976 3717.07 580.822 3716.35 581.994C3715.64 583.166 3715.08 584.729 3714.69 586.682C3714.33 588.635 3714.15 591.027 3714.15 593.859V610.949C3714.15 613.26 3714.27 615.279 3714.5 617.004C3714.76 618.697 3715.11 620.145 3715.57 621.35C3716.06 622.521 3716.64 623.482 3717.33 624.23C3718.01 624.947 3718.79 625.467 3719.67 625.793C3720.55 626.118 3721.51 626.281 3722.55 626.281C3723.82 626.281 3724.96 626.021 3725.97 625.5C3726.98 624.979 3727.84 624.133 3728.56 622.961C3729.31 621.757 3729.86 620.178 3730.22 618.225C3730.61 616.239 3730.8 613.814 3730.8 610.949Z" fill="#56298E"/>
<path d="M2114.04 619.104C2114.04 617.997 2113.88 617.004 2113.55 616.125C2113.23 615.214 2112.62 614.367 2111.75 613.586C2110.87 612.805 2109.6 612.023 2107.94 611.242C2106.31 610.428 2104.16 609.582 2101.49 608.703C2098.37 607.661 2095.36 606.49 2092.46 605.188C2089.56 603.853 2086.97 602.307 2084.7 600.549C2082.42 598.758 2080.61 596.675 2079.28 594.299C2077.94 591.89 2077.27 589.09 2077.27 585.9C2077.27 582.84 2077.96 580.09 2079.32 577.648C2080.69 575.174 2082.6 573.075 2085.04 571.35C2087.51 569.592 2090.41 568.257 2093.73 567.346C2097.05 566.402 2100.68 565.93 2104.62 565.93C2109.83 565.93 2114.42 566.841 2118.39 568.664C2122.39 570.454 2125.52 573.01 2127.76 576.33C2130.04 579.618 2131.18 583.508 2131.18 588H2114.14C2114.14 586.21 2113.76 584.631 2113.02 583.264C2112.3 581.896 2111.21 580.822 2109.74 580.041C2108.28 579.26 2106.44 578.869 2104.23 578.869C2102.08 578.869 2100.27 579.195 2098.81 579.846C2097.34 580.497 2096.24 581.376 2095.49 582.482C2094.74 583.557 2094.36 584.745 2094.36 586.047C2094.36 587.121 2094.66 588.098 2095.24 588.977C2095.86 589.823 2096.72 590.62 2097.83 591.369C2098.97 592.118 2100.34 592.834 2101.93 593.518C2103.56 594.201 2105.38 594.868 2107.4 595.52C2111.18 596.724 2114.53 598.075 2117.46 599.572C2120.42 601.037 2122.91 602.714 2124.93 604.602C2126.98 606.457 2128.53 608.573 2129.57 610.949C2130.64 613.326 2131.18 616.011 2131.18 619.006C2131.18 622.196 2130.56 625.028 2129.32 627.502C2128.09 629.976 2126.31 632.076 2124 633.801C2121.69 635.493 2118.92 636.779 2115.7 637.658C2112.48 638.537 2108.88 638.977 2104.91 638.977C2101.26 638.977 2097.67 638.521 2094.12 637.609C2090.6 636.665 2087.41 635.233 2084.55 633.312C2081.68 631.359 2079.39 628.869 2077.66 625.842C2075.97 622.782 2075.12 619.152 2075.12 614.953H2092.31C2092.31 617.036 2092.59 618.794 2093.14 620.227C2093.7 621.659 2094.51 622.814 2095.58 623.693C2096.66 624.54 2097.98 625.158 2099.54 625.549C2101.1 625.907 2102.89 626.086 2104.91 626.086C2107.09 626.086 2108.85 625.777 2110.18 625.158C2111.52 624.507 2112.49 623.661 2113.11 622.619C2113.73 621.545 2114.04 620.373 2114.04 619.104ZM2180.45 613.928H2197.54C2197.31 618.876 2195.97 623.238 2193.53 627.014C2191.09 630.79 2187.71 633.736 2183.38 635.852C2179.08 637.935 2174 638.977 2168.14 638.977C2163.39 638.977 2159.14 638.179 2155.4 636.584C2151.69 634.989 2148.53 632.694 2145.93 629.699C2143.35 626.704 2141.38 623.075 2140.02 618.811C2138.68 614.546 2138.02 609.745 2138.02 604.406V600.549C2138.02 595.21 2138.72 590.409 2140.12 586.145C2141.55 581.848 2143.57 578.202 2146.17 575.207C2148.81 572.18 2151.96 569.868 2155.64 568.273C2159.32 566.678 2163.41 565.881 2167.9 565.881C2174.08 565.881 2179.31 566.988 2183.57 569.201C2187.84 571.415 2191.14 574.458 2193.48 578.332C2195.83 582.173 2197.21 586.551 2197.63 591.467H2180.54C2180.48 588.798 2180.02 586.568 2179.18 584.777C2178.33 582.954 2177 581.587 2175.17 580.676C2173.35 579.764 2170.93 579.309 2167.9 579.309C2165.78 579.309 2163.94 579.699 2162.38 580.48C2160.82 581.262 2159.52 582.499 2158.47 584.191C2157.43 585.884 2156.65 588.081 2156.13 590.783C2155.64 593.452 2155.4 596.675 2155.4 600.451V604.406C2155.4 608.182 2155.63 611.405 2156.08 614.074C2156.54 616.743 2157.27 618.924 2158.28 620.617C2159.29 622.31 2160.59 623.563 2162.19 624.377C2163.81 625.158 2165.8 625.549 2168.14 625.549C2170.75 625.549 2172.94 625.142 2174.73 624.328C2176.52 623.482 2177.91 622.212 2178.88 620.52C2179.86 618.794 2180.38 616.597 2180.45 613.928ZM2265.8 601.037V603.918C2265.8 609.354 2265.03 614.237 2263.5 618.566C2262.01 622.863 2259.87 626.542 2257.11 629.602C2254.34 632.629 2251.07 634.956 2247.29 636.584C2243.52 638.179 2239.35 638.977 2234.79 638.977C2230.2 638.977 2226 638.179 2222.2 636.584C2218.42 634.956 2215.13 632.629 2212.33 629.602C2209.57 626.542 2207.42 622.863 2205.89 618.566C2204.39 614.237 2203.64 609.354 2203.64 603.918V601.037C2203.64 595.601 2204.39 590.718 2205.89 586.389C2207.42 582.059 2209.55 578.381 2212.28 575.354C2215.05 572.294 2218.32 569.966 2222.1 568.371C2225.91 566.743 2230.11 565.93 2234.7 565.93C2239.25 565.93 2243.42 566.743 2247.2 568.371C2251 569.966 2254.29 572.294 2257.06 575.354C2259.83 578.381 2261.97 582.059 2263.5 586.389C2265.03 590.718 2265.8 595.601 2265.8 601.037ZM2248.42 603.918V600.939C2248.42 597.424 2248.11 594.331 2247.49 591.662C2246.9 588.96 2246.02 586.698 2244.85 584.875C2243.68 583.052 2242.23 581.685 2240.51 580.773C2238.81 579.829 2236.88 579.357 2234.7 579.357C2232.42 579.357 2230.43 579.829 2228.74 580.773C2227.05 581.685 2225.63 583.052 2224.49 584.875C2223.35 586.698 2222.49 588.96 2221.9 591.662C2221.35 594.331 2221.07 597.424 2221.07 600.939V603.918C2221.07 607.401 2221.35 610.493 2221.9 613.195C2222.49 615.865 2223.35 618.127 2224.49 619.982C2225.66 621.838 2227.09 623.238 2228.79 624.182C2230.51 625.126 2232.51 625.598 2234.79 625.598C2236.97 625.598 2238.91 625.126 2240.6 624.182C2242.3 623.238 2243.71 621.838 2244.85 619.982C2246.02 618.127 2246.9 615.865 2247.49 613.195C2248.11 610.493 2248.42 607.401 2248.42 603.918ZM2274.69 566.906H2302.66C2308.13 566.906 2312.89 567.72 2316.92 569.348C2320.96 570.975 2324.07 573.384 2326.25 576.574C2328.46 579.764 2329.57 583.703 2329.57 588.391C2329.57 592.46 2328.93 595.861 2327.66 598.596C2326.39 601.33 2324.62 603.592 2322.34 605.383C2320.1 607.141 2317.48 608.589 2314.48 609.729L2308.87 612.902H2285.38L2285.28 599.67H2302.66C2304.85 599.67 2306.65 599.279 2308.08 598.498C2309.52 597.717 2310.59 596.61 2311.31 595.178C2312.06 593.713 2312.43 591.971 2312.43 589.953C2312.43 587.902 2312.06 586.145 2311.31 584.68C2310.56 583.215 2309.45 582.092 2307.99 581.311C2306.55 580.529 2304.78 580.139 2302.66 580.139H2291.82V638H2274.69V566.906ZM2313.6 638L2297.88 606.555L2316.04 606.457L2331.96 637.268V638H2313.6ZM2388.85 624.816V638H2350.96V624.816H2388.85ZM2357.06 566.906V638H2339.92V566.906H2357.06ZM2383.96 595.129V607.873H2350.96V595.129H2383.96ZM2388.99 566.906V580.139H2350.96V566.906H2388.99Z" fill="#56298E"/>
<rect x="1975" y="255" width="1910" height="190" rx="95" fill="#A3E7F1" stroke="#55CEE0" stroke-width="10"/>
<path d="M3356.07 380.285C3356.07 377.941 3356.91 375.988 3358.61 374.426C3360.3 372.831 3362.48 372.033 3365.15 372.033C3367.85 372.033 3370.03 372.831 3371.69 374.426C3373.39 375.988 3374.23 377.941 3374.23 380.285C3374.23 382.629 3373.39 384.598 3371.69 386.193C3370.03 387.756 3367.85 388.537 3365.15 388.537C3362.48 388.537 3360.3 387.756 3358.61 386.193C3356.91 384.598 3356.07 382.629 3356.07 380.285ZM3435.66 360.217V372.912H3384.49L3383.51 362.854L3412.07 316.906H3425.06L3410.95 340.002L3399.23 360.217H3435.66ZM3428.48 316.906V388H3412.03V316.906H3428.48ZM3492.4 345.959V358.947C3492.4 364.058 3491.79 368.501 3490.59 372.277C3489.42 376.053 3487.73 379.178 3485.51 381.652C3483.33 384.126 3480.73 385.965 3477.7 387.17C3474.67 388.374 3471.34 388.977 3467.69 388.977C3464.76 388.977 3462.03 388.602 3459.49 387.854C3456.95 387.072 3454.65 385.9 3452.6 384.338C3450.58 382.743 3448.84 380.757 3447.38 378.381C3445.91 376.005 3444.79 373.205 3444.01 369.982C3443.23 366.727 3442.84 363.049 3442.84 358.947V345.959C3442.84 340.816 3443.42 336.372 3444.59 332.629C3445.8 328.853 3447.51 325.728 3449.72 323.254C3451.93 320.78 3454.55 318.941 3457.58 317.736C3460.61 316.532 3463.95 315.93 3467.59 315.93C3470.52 315.93 3473.24 316.32 3475.75 317.102C3478.29 317.85 3480.58 319.022 3482.63 320.617C3484.68 322.18 3486.42 324.149 3487.86 326.525C3489.32 328.902 3490.44 331.717 3491.22 334.973C3492.01 338.195 3492.4 341.857 3492.4 345.959ZM3475.94 360.949V343.859C3475.94 341.581 3475.81 339.595 3475.55 337.902C3475.32 336.21 3474.96 334.777 3474.48 333.605C3474.02 332.434 3473.45 331.49 3472.77 330.773C3472.08 330.025 3471.3 329.488 3470.42 329.162C3469.58 328.804 3468.63 328.625 3467.59 328.625C3466.29 328.625 3465.12 328.902 3464.08 329.455C3463.07 329.976 3462.2 330.822 3461.49 331.994C3460.77 333.166 3460.22 334.729 3459.83 336.682C3459.47 338.635 3459.29 341.027 3459.29 343.859V360.949C3459.29 363.26 3459.4 365.279 3459.63 367.004C3459.89 368.697 3460.25 370.145 3460.71 371.35C3461.2 372.521 3461.78 373.482 3462.46 374.23C3463.15 374.947 3463.93 375.467 3464.81 375.793C3465.69 376.118 3466.65 376.281 3467.69 376.281C3468.96 376.281 3470.1 376.021 3471.11 375.5C3472.12 374.979 3472.98 374.133 3473.7 372.961C3474.44 371.757 3475 370.178 3475.36 368.225C3475.75 366.239 3475.94 363.814 3475.94 360.949Z" fill="#2478A8"/>
<path d="M2093.83 381.555L2107.99 316.906H2116.43L2121.02 322.424L2105.94 388H2096.61L2093.83 381.555ZM2090.07 316.906L2102.03 382.043L2098.95 388H2088.16L2073.07 316.906H2090.07ZM2128.79 381.701L2140.65 316.906H2157.6L2142.51 388H2131.77L2128.79 381.701ZM2122.54 316.906L2137.04 381.945L2134.11 388H2124.78L2109.35 322.326L2114.14 316.906H2122.54ZM2213.26 374.816V388H2175.37V374.816H2213.26ZM2181.47 316.906V388H2164.33V316.906H2181.47ZM2208.38 345.129V357.873H2175.37V345.129H2208.38ZM2213.41 316.906V330.139H2175.37V316.906H2213.41ZM2238.5 316.906V388H2221.41V316.906H2238.5ZM2308.72 350.012V379.211C2307.51 380.546 2305.66 381.978 2303.15 383.508C2300.68 385.005 2297.55 386.291 2293.78 387.365C2290 388.439 2285.56 388.977 2280.45 388.977C2275.73 388.977 2271.45 388.228 2267.61 386.73C2263.76 385.201 2260.46 382.971 2257.69 380.041C2254.96 377.079 2252.84 373.465 2251.35 369.201C2249.88 364.904 2249.15 359.989 2249.15 354.455V350.5C2249.15 344.966 2249.9 340.051 2251.39 335.754C2252.89 331.457 2254.99 327.844 2257.69 324.914C2260.43 321.952 2263.63 319.706 2267.31 318.176C2271.02 316.646 2275.09 315.881 2279.52 315.881C2286.06 315.881 2291.38 316.923 2295.49 319.006C2299.59 321.057 2302.7 323.905 2304.81 327.551C2306.93 331.164 2308.21 335.347 2308.67 340.1H2292.21C2291.89 337.756 2291.27 335.77 2290.36 334.143C2289.48 332.482 2288.21 331.229 2286.55 330.383C2284.89 329.504 2282.74 329.064 2280.11 329.064C2278.05 329.064 2276.18 329.504 2274.49 330.383C2272.83 331.262 2271.41 332.596 2270.24 334.387C2269.07 336.145 2268.16 338.358 2267.51 341.027C2266.89 343.697 2266.58 346.822 2266.58 350.402V354.455C2266.58 358.003 2266.87 361.112 2267.46 363.781C2268.08 366.451 2268.99 368.68 2270.19 370.471C2271.43 372.229 2272.99 373.563 2274.88 374.475C2276.8 375.354 2279.06 375.793 2281.67 375.793C2283.49 375.793 2285.05 375.646 2286.36 375.354C2287.66 375.028 2288.73 374.637 2289.58 374.182C2290.46 373.693 2291.12 373.238 2291.58 372.814V361.779H2279.67V350.012H2308.72ZM2366.63 345.129V358.312H2330.15V345.129H2366.63ZM2335.87 316.906V388H2318.73V316.906H2335.87ZM2378.15 316.906V388H2361.06V316.906H2378.15ZM2422 316.906V388H2404.86V316.906H2422ZM2443.39 316.906V330.139H2383.96V316.906H2443.39Z" fill="#2478A8"/>
<path d="M2815.07 380.285C2815.07 377.941 2815.91 375.988 2817.61 374.426C2819.3 372.831 2821.48 372.033 2824.15 372.033C2826.85 372.033 2829.03 372.831 2830.69 374.426C2832.39 375.988 2833.23 377.941 2833.23 380.285C2833.23 382.629 2832.39 384.598 2830.69 386.193C2829.03 387.756 2826.85 388.537 2824.15 388.537C2821.48 388.537 2819.3 387.756 2817.61 386.193C2815.91 384.598 2815.07 382.629 2815.07 380.285ZM2893.63 375.305V388H2844.02V377.258L2866.88 353.234C2868.89 350.923 2870.52 348.856 2871.76 347.033C2872.99 345.178 2873.89 343.501 2874.44 342.004C2875.03 340.507 2875.32 339.156 2875.32 337.951C2875.32 335.9 2875.01 334.191 2874.39 332.824C2873.81 331.424 2872.93 330.367 2871.76 329.65C2870.62 328.934 2869.2 328.576 2867.51 328.576C2865.82 328.576 2864.34 329.064 2863.07 330.041C2861.8 331.018 2860.8 332.352 2860.09 334.045C2859.4 335.738 2859.06 337.642 2859.06 339.758H2842.56C2842.56 335.396 2843.62 331.408 2845.73 327.795C2847.88 324.182 2850.86 321.301 2854.67 319.152C2858.48 316.971 2862.89 315.881 2867.9 315.881C2873.14 315.881 2877.54 316.695 2881.08 318.322C2884.63 319.95 2887.3 322.31 2889.09 325.402C2890.91 328.462 2891.83 332.157 2891.83 336.486C2891.83 338.96 2891.44 341.337 2890.65 343.615C2889.87 345.894 2888.75 348.156 2887.29 350.402C2885.82 352.616 2884.03 354.895 2881.91 357.238C2879.83 359.582 2877.45 362.072 2874.79 364.709L2865.61 375.305H2893.63ZM2916.09 356.311L2903.01 353.234L2907.3 316.906H2948.86V329.699H2920.73L2919.12 343.811C2919.9 343.355 2921.22 342.818 2923.08 342.199C2924.96 341.548 2927.05 341.223 2929.33 341.223C2932.84 341.223 2935.95 341.76 2938.65 342.834C2941.39 343.876 2943.7 345.422 2945.59 347.473C2947.47 349.491 2948.89 351.981 2949.83 354.943C2950.81 357.906 2951.3 361.291 2951.3 365.1C2951.3 368.16 2950.79 371.122 2949.79 373.986C2948.81 376.818 2947.29 379.374 2945.24 381.652C2943.23 383.898 2940.67 385.689 2937.58 387.023C2934.49 388.326 2930.82 388.977 2926.59 388.977C2923.43 388.977 2920.36 388.488 2917.36 387.512C2914.37 386.535 2911.67 385.135 2909.26 383.312C2906.88 381.457 2904.99 379.227 2903.59 376.623C2902.23 373.986 2901.56 371.04 2901.59 367.785H2918.14C2918.24 369.51 2918.65 371.008 2919.37 372.277C2920.08 373.547 2921.04 374.54 2922.25 375.256C2923.48 375.939 2924.9 376.281 2926.49 376.281C2928.12 376.281 2929.47 375.956 2930.55 375.305C2931.62 374.654 2932.47 373.758 2933.09 372.619C2933.7 371.48 2934.14 370.178 2934.4 368.713C2934.66 367.215 2934.79 365.637 2934.79 363.977C2934.79 362.219 2934.6 360.64 2934.21 359.24C2933.85 357.84 2933.26 356.652 2932.45 355.676C2931.64 354.667 2930.58 353.902 2929.28 353.381C2928.01 352.86 2926.48 352.6 2924.69 352.6C2922.31 352.6 2920.44 353.007 2919.07 353.82C2917.71 354.634 2916.71 355.464 2916.09 356.311Z" fill="#2478A8"/>
<path d="M3085.07 380.285C3085.07 377.941 3085.91 375.988 3087.61 374.426C3089.3 372.831 3091.48 372.033 3094.15 372.033C3096.85 372.033 3099.03 372.831 3100.69 374.426C3102.39 375.988 3103.23 377.941 3103.23 380.285C3103.23 382.629 3102.39 384.598 3100.69 386.193C3099.03 387.756 3096.85 388.537 3094.15 388.537C3091.48 388.537 3089.3 387.756 3087.61 386.193C3085.91 384.598 3085.07 382.629 3085.07 380.285ZM3163.63 375.305V388H3114.02V377.258L3136.88 353.234C3138.89 350.923 3140.52 348.856 3141.76 347.033C3142.99 345.178 3143.89 343.501 3144.44 342.004C3145.03 340.507 3145.32 339.156 3145.32 337.951C3145.32 335.9 3145.01 334.191 3144.39 332.824C3143.81 331.424 3142.93 330.367 3141.76 329.65C3140.62 328.934 3139.2 328.576 3137.51 328.576C3135.82 328.576 3134.34 329.064 3133.07 330.041C3131.8 331.018 3130.8 332.352 3130.09 334.045C3129.4 335.738 3129.06 337.642 3129.06 339.758H3112.56C3112.56 335.396 3113.62 331.408 3115.73 327.795C3117.88 324.182 3120.86 321.301 3124.67 319.152C3128.48 316.971 3132.89 315.881 3137.9 315.881C3143.14 315.881 3147.54 316.695 3151.08 318.322C3154.63 319.95 3157.3 322.31 3159.09 325.402C3160.91 328.462 3161.83 332.157 3161.83 336.486C3161.83 338.96 3161.44 341.337 3160.65 343.615C3159.87 345.894 3158.75 348.156 3157.29 350.402C3155.82 352.616 3154.03 354.895 3151.91 357.238C3149.83 359.582 3147.45 362.072 3144.79 364.709L3135.61 375.305H3163.63ZM3186.09 356.311L3173.01 353.234L3177.3 316.906H3218.86V329.699H3190.73L3189.12 343.811C3189.9 343.355 3191.22 342.818 3193.08 342.199C3194.96 341.548 3197.05 341.223 3199.33 341.223C3202.84 341.223 3205.95 341.76 3208.65 342.834C3211.39 343.876 3213.7 345.422 3215.59 347.473C3217.47 349.491 3218.89 351.981 3219.83 354.943C3220.81 357.906 3221.3 361.291 3221.3 365.1C3221.3 368.16 3220.79 371.122 3219.79 373.986C3218.81 376.818 3217.29 379.374 3215.24 381.652C3213.23 383.898 3210.67 385.689 3207.58 387.023C3204.49 388.326 3200.82 388.977 3196.59 388.977C3193.43 388.977 3190.36 388.488 3187.36 387.512C3184.37 386.535 3181.67 385.135 3179.26 383.312C3176.88 381.457 3174.99 379.227 3173.59 376.623C3172.23 373.986 3171.56 371.04 3171.59 367.785H3188.14C3188.24 369.51 3188.65 371.008 3189.37 372.277C3190.08 373.547 3191.04 374.54 3192.25 375.256C3193.48 375.939 3194.9 376.281 3196.49 376.281C3198.12 376.281 3199.47 375.956 3200.55 375.305C3201.62 374.654 3202.47 373.758 3203.09 372.619C3203.7 371.48 3204.14 370.178 3204.4 368.713C3204.66 367.215 3204.79 365.637 3204.79 363.977C3204.79 362.219 3204.6 360.64 3204.21 359.24C3203.85 357.84 3203.26 356.652 3202.45 355.676C3201.64 354.667 3200.58 353.902 3199.28 353.381C3198.01 352.86 3196.48 352.6 3194.69 352.6C3192.31 352.6 3190.44 353.007 3189.07 353.82C3187.71 354.634 3186.71 355.464 3186.09 356.311Z" fill="#2478A8"/>
<path d="M3626.07 380.285C3626.07 377.941 3626.91 375.988 3628.61 374.426C3630.3 372.831 3632.48 372.033 3635.15 372.033C3637.85 372.033 3640.03 372.831 3641.69 374.426C3643.39 375.988 3644.23 377.941 3644.23 380.285C3644.23 382.629 3643.39 384.598 3641.69 386.193C3640.03 387.756 3637.85 388.537 3635.15 388.537C3632.48 388.537 3630.3 387.756 3628.61 386.193C3626.91 384.598 3626.07 382.629 3626.07 380.285ZM3691.45 316.906V388H3674.99V335.461L3658.78 340.197V327.697L3689.94 316.906H3691.45ZM3762.4 345.959V358.947C3762.4 364.058 3761.79 368.501 3760.59 372.277C3759.42 376.053 3757.73 379.178 3755.51 381.652C3753.33 384.126 3750.73 385.965 3747.7 387.17C3744.67 388.374 3741.34 388.977 3737.69 388.977C3734.76 388.977 3732.03 388.602 3729.49 387.854C3726.95 387.072 3724.65 385.9 3722.6 384.338C3720.58 382.743 3718.84 380.757 3717.38 378.381C3715.91 376.005 3714.79 373.205 3714.01 369.982C3713.23 366.727 3712.84 363.049 3712.84 358.947V345.959C3712.84 340.816 3713.42 336.372 3714.59 332.629C3715.8 328.853 3717.51 325.728 3719.72 323.254C3721.93 320.78 3724.55 318.941 3727.58 317.736C3730.61 316.532 3733.95 315.93 3737.59 315.93C3740.52 315.93 3743.24 316.32 3745.75 317.102C3748.29 317.85 3750.58 319.022 3752.63 320.617C3754.68 322.18 3756.42 324.149 3757.86 326.525C3759.32 328.902 3760.44 331.717 3761.22 334.973C3762.01 338.195 3762.4 341.857 3762.4 345.959ZM3745.94 360.949V343.859C3745.94 341.581 3745.81 339.595 3745.55 337.902C3745.32 336.21 3744.96 334.777 3744.48 333.605C3744.02 332.434 3743.45 331.49 3742.77 330.773C3742.08 330.025 3741.3 329.488 3740.42 329.162C3739.58 328.804 3738.63 328.625 3737.59 328.625C3736.29 328.625 3735.12 328.902 3734.08 329.455C3733.07 329.976 3732.2 330.822 3731.49 331.994C3730.77 333.166 3730.22 334.729 3729.83 336.682C3729.47 338.635 3729.29 341.027 3729.29 343.859V360.949C3729.29 363.26 3729.4 365.279 3729.63 367.004C3729.89 368.697 3730.25 370.145 3730.71 371.35C3731.2 372.521 3731.78 373.482 3732.46 374.23C3733.15 374.947 3733.93 375.467 3734.81 375.793C3735.69 376.118 3736.65 376.281 3737.69 376.281C3738.96 376.281 3740.1 376.021 3741.11 375.5C3742.12 374.979 3742.98 374.133 3743.7 372.961C3744.44 371.757 3745 370.178 3745.36 368.225C3745.75 366.239 3745.94 363.814 3745.94 360.949Z" fill="#2478A8"/>
<path d="M2611.52 611.217V623.912H2560.35L2559.37 613.854L2587.94 567.906H2600.93L2586.81 591.002L2575.1 611.217H2611.52ZM2604.34 567.906V639H2587.89V567.906H2604.34ZM2633.88 596.568H2641.89C2643.94 596.568 2645.62 596.21 2646.92 595.494C2648.26 594.745 2649.25 593.704 2649.9 592.369C2650.55 591.002 2650.88 589.391 2650.88 587.535C2650.88 586.103 2650.57 584.785 2649.95 583.58C2649.36 582.376 2648.45 581.415 2647.21 580.699C2645.98 579.951 2644.4 579.576 2642.48 579.576C2641.18 579.576 2639.91 579.853 2638.67 580.406C2637.43 580.927 2636.41 581.676 2635.59 582.652C2634.81 583.629 2634.42 584.817 2634.42 586.217H2617.92C2617.92 582.18 2619.02 578.73 2621.24 575.865C2623.48 572.968 2626.43 570.755 2630.08 569.225C2633.75 567.662 2637.71 566.881 2641.94 566.881C2646.99 566.881 2651.41 567.662 2655.22 569.225C2659.03 570.755 2661.99 573.033 2664.11 576.061C2666.26 579.055 2667.33 582.766 2667.33 587.193C2667.33 589.635 2666.76 591.93 2665.62 594.078C2664.48 596.227 2662.89 598.115 2660.84 599.742C2658.79 601.37 2656.38 602.656 2653.61 603.6C2650.88 604.511 2647.88 604.967 2644.63 604.967H2633.88V596.568ZM2633.88 608.824V600.621H2644.63C2648.18 600.621 2651.41 601.028 2654.34 601.842C2657.27 602.623 2659.8 603.795 2661.91 605.357C2664.03 606.92 2665.66 608.857 2666.79 611.168C2667.93 613.447 2668.5 616.067 2668.5 619.029C2668.5 622.35 2667.84 625.312 2666.5 627.916C2665.17 630.52 2663.3 632.717 2660.89 634.508C2658.48 636.298 2655.66 637.665 2652.44 638.609C2649.22 639.521 2645.72 639.977 2641.94 639.977C2638.98 639.977 2636.02 639.586 2633.05 638.805C2630.09 637.991 2627.39 636.754 2624.95 635.094C2622.51 633.401 2620.54 631.253 2619.04 628.648C2617.58 626.012 2616.84 622.87 2616.84 619.225H2633.35C2633.35 620.722 2633.75 622.089 2634.57 623.326C2635.41 624.531 2636.54 625.491 2637.94 626.207C2639.34 626.923 2640.85 627.281 2642.48 627.281C2644.5 627.281 2646.21 626.907 2647.61 626.158C2649.04 625.377 2650.13 624.335 2650.88 623.033C2651.63 621.731 2652 620.283 2652 618.688C2652 616.279 2651.59 614.358 2650.78 612.926C2650 611.493 2648.84 610.452 2647.31 609.801C2645.82 609.15 2644.01 608.824 2641.89 608.824H2633.88Z" fill="#56298E"/>
<path d="M2775.72 591.051V603.746H2730.45V591.051H2775.72ZM2775.72 612.486V625.182H2730.45V612.486H2775.72Z" fill="#A673E5"/>
<path d="M3042.22 597.668V611.779H2993.49V597.668H3042.22ZM3025.62 579.113V630.871H3010.24V579.113H3025.62Z" fill="#A673E5"/>
<path d="M3328.22 597.668V611.779H3279.49V597.668H3328.22ZM3311.62 579.113V630.871H3296.24V579.113H3311.62Z" fill="#A673E5"/>
<path d="M3573.22 597.668V611.779H3524.49V597.668H3573.22ZM3556.62 579.113V630.871H3541.24V579.113H3556.62Z" fill="#A673E5"/>
<rect x="5" y="255" width="1910" height="190" rx="95" fill="#A3E7F1" stroke="#55CEE0" stroke-width="10"/>
<path d="M1386.07 378.285C1386.07 375.941 1386.91 373.988 1388.61 372.426C1390.3 370.831 1392.48 370.033 1395.15 370.033C1397.85 370.033 1400.03 370.831 1401.69 372.426C1403.39 373.988 1404.23 375.941 1404.23 378.285C1404.23 380.629 1403.39 382.598 1401.69 384.193C1400.03 385.756 1397.85 386.537 1395.15 386.537C1392.48 386.537 1390.3 385.756 1388.61 384.193C1386.91 382.598 1386.07 380.629 1386.07 378.285ZM1464.39 343.959V356.947C1464.39 362.058 1463.79 366.501 1462.58 370.277C1461.41 374.053 1459.72 377.178 1457.5 379.652C1455.32 382.126 1452.72 383.965 1449.69 385.17C1446.66 386.374 1443.33 386.977 1439.68 386.977C1436.75 386.977 1434.02 386.602 1431.48 385.854C1428.94 385.072 1426.64 383.9 1424.59 382.338C1422.58 380.743 1420.83 378.757 1419.37 376.381C1417.9 374.005 1416.78 371.205 1416 367.982C1415.22 364.727 1414.83 361.049 1414.83 356.947V343.959C1414.83 338.816 1415.41 334.372 1416.59 330.629C1417.79 326.853 1419.5 323.728 1421.71 321.254C1423.93 318.78 1426.55 316.941 1429.57 315.736C1432.6 314.532 1435.94 313.93 1439.58 313.93C1442.51 313.93 1445.23 314.32 1447.74 315.102C1450.28 315.85 1452.57 317.022 1454.62 318.617C1456.67 320.18 1458.42 322.149 1459.85 324.525C1461.31 326.902 1462.44 329.717 1463.22 332.973C1464 336.195 1464.39 339.857 1464.39 343.959ZM1447.93 358.949V341.859C1447.93 339.581 1447.8 337.595 1447.54 335.902C1447.32 334.21 1446.96 332.777 1446.47 331.605C1446.01 330.434 1445.44 329.49 1444.76 328.773C1444.08 328.025 1443.29 327.488 1442.42 327.162C1441.57 326.804 1440.63 326.625 1439.58 326.625C1438.28 326.625 1437.11 326.902 1436.07 327.455C1435.06 327.976 1434.2 328.822 1433.48 329.994C1432.76 331.166 1432.21 332.729 1431.82 334.682C1431.46 336.635 1431.28 339.027 1431.28 341.859V358.949C1431.28 361.26 1431.4 363.279 1431.62 365.004C1431.89 366.697 1432.24 368.145 1432.7 369.35C1433.19 370.521 1433.77 371.482 1434.46 372.23C1435.14 372.947 1435.92 373.467 1436.8 373.793C1437.68 374.118 1438.64 374.281 1439.68 374.281C1440.95 374.281 1442.09 374.021 1443.1 373.5C1444.11 372.979 1444.97 372.133 1445.69 370.961C1446.44 369.757 1446.99 368.178 1447.35 366.225C1447.74 364.239 1447.93 361.814 1447.93 358.949ZM1487.09 354.311L1474.01 351.234L1478.3 314.906H1519.86V327.699H1491.73L1490.12 341.811C1490.9 341.355 1492.22 340.818 1494.08 340.199C1495.96 339.548 1498.05 339.223 1500.33 339.223C1503.84 339.223 1506.95 339.76 1509.65 340.834C1512.39 341.876 1514.7 343.422 1516.59 345.473C1518.47 347.491 1519.89 349.981 1520.83 352.943C1521.81 355.906 1522.3 359.291 1522.3 363.1C1522.3 366.16 1521.79 369.122 1520.79 371.986C1519.81 374.818 1518.29 377.374 1516.24 379.652C1514.23 381.898 1511.67 383.689 1508.58 385.023C1505.49 386.326 1501.82 386.977 1497.59 386.977C1494.43 386.977 1491.36 386.488 1488.36 385.512C1485.37 384.535 1482.67 383.135 1480.26 381.312C1477.88 379.457 1475.99 377.227 1474.59 374.623C1473.23 371.986 1472.56 369.04 1472.59 365.785H1489.14C1489.24 367.51 1489.65 369.008 1490.37 370.277C1491.08 371.547 1492.04 372.54 1493.25 373.256C1494.48 373.939 1495.9 374.281 1497.49 374.281C1499.12 374.281 1500.47 373.956 1501.55 373.305C1502.62 372.654 1503.47 371.758 1504.09 370.619C1504.7 369.48 1505.14 368.178 1505.4 366.713C1505.66 365.215 1505.79 363.637 1505.79 361.977C1505.79 360.219 1505.6 358.64 1505.21 357.24C1504.85 355.84 1504.26 354.652 1503.45 353.676C1502.64 352.667 1501.58 351.902 1500.28 351.381C1499.01 350.86 1497.48 350.6 1495.69 350.6C1493.31 350.6 1491.44 351.007 1490.07 351.82C1488.71 352.634 1487.71 353.464 1487.09 354.311Z" fill="#2478A8"/>
<path d="M123.826 379.555L137.986 314.906H146.434L151.023 320.424L135.936 386H126.609L123.826 379.555ZM120.066 314.906L132.029 380.043L128.953 386H118.162L103.074 314.906H120.066ZM158.787 379.701L170.652 314.906H187.596L172.508 386H161.766L158.787 379.701ZM152.537 314.906L167.039 379.945L164.109 386H154.783L139.354 320.326L144.139 314.906H152.537ZM243.26 372.816V386H205.369V372.816H243.26ZM211.473 314.906V386H194.334V314.906H211.473ZM238.377 343.129V355.873H205.369V343.129H238.377ZM243.406 314.906V328.139H205.369V314.906H243.406ZM268.504 314.906V386H251.414V314.906H268.504ZM338.719 348.012V377.211C337.514 378.546 335.659 379.978 333.152 381.508C330.678 383.005 327.553 384.291 323.777 385.365C320.001 386.439 315.558 386.977 310.447 386.977C305.727 386.977 301.447 386.228 297.605 384.73C293.764 383.201 290.46 380.971 287.693 378.041C284.959 375.079 282.843 371.465 281.346 367.201C279.881 362.904 279.148 357.989 279.148 352.455V348.5C279.148 342.966 279.897 338.051 281.395 333.754C282.892 329.457 284.992 325.844 287.693 322.914C290.428 319.952 293.634 317.706 297.312 316.176C301.023 314.646 305.092 313.881 309.52 313.881C316.062 313.881 321.385 314.923 325.486 317.006C329.588 319.057 332.697 321.905 334.812 325.551C336.928 329.164 338.214 333.347 338.67 338.1H322.215C321.889 335.756 321.271 333.77 320.359 332.143C319.48 330.482 318.211 329.229 316.551 328.383C314.891 327.504 312.742 327.064 310.105 327.064C308.055 327.064 306.183 327.504 304.49 328.383C302.83 329.262 301.414 330.596 300.242 332.387C299.07 334.145 298.159 336.358 297.508 339.027C296.889 341.697 296.58 344.822 296.58 348.402V352.455C296.58 356.003 296.873 359.112 297.459 361.781C298.077 364.451 298.989 366.68 300.193 368.471C301.43 370.229 302.993 371.563 304.881 372.475C306.801 373.354 309.064 373.793 311.668 373.793C313.491 373.793 315.053 373.646 316.355 373.354C317.658 373.028 318.732 372.637 319.578 372.182C320.457 371.693 321.124 371.238 321.58 370.814V359.779H309.666V348.012H338.719ZM396.629 343.129V356.312H360.154V343.129H396.629ZM365.867 314.906V386H348.729V314.906H365.867ZM408.152 314.906V386H391.062V314.906H408.152ZM452 314.906V386H434.861V314.906H452ZM473.387 314.906V328.139H413.963V314.906H473.387Z" fill="#2478A8"/>
<path d="M845.068 378.285C845.068 375.941 845.915 373.988 847.607 372.426C849.3 370.831 851.481 370.033 854.15 370.033C856.852 370.033 859.033 370.831 860.693 372.426C862.386 373.988 863.232 375.941 863.232 378.285C863.232 380.629 862.386 382.598 860.693 384.193C859.033 385.756 856.852 386.537 854.15 386.537C851.481 386.537 849.3 385.756 847.607 384.193C845.915 382.598 845.068 380.629 845.068 378.285ZM923.633 373.305V386H874.023V375.258L896.875 351.234C898.893 348.923 900.521 346.856 901.758 345.033C902.995 343.178 903.89 341.501 904.443 340.004C905.029 338.507 905.322 337.156 905.322 335.951C905.322 333.9 905.013 332.191 904.395 330.824C903.809 329.424 902.93 328.367 901.758 327.65C900.618 326.934 899.202 326.576 897.51 326.576C895.817 326.576 894.336 327.064 893.066 328.041C891.797 329.018 890.804 330.352 890.088 332.045C889.404 333.738 889.062 335.642 889.062 337.758H872.559C872.559 333.396 873.617 329.408 875.732 325.795C877.881 322.182 880.859 319.301 884.668 317.152C888.477 314.971 892.887 313.881 897.9 313.881C903.141 313.881 907.536 314.695 911.084 316.322C914.632 317.95 917.301 320.31 919.092 323.402C920.915 326.462 921.826 330.157 921.826 334.486C921.826 336.96 921.436 339.337 920.654 341.615C919.873 343.894 918.75 346.156 917.285 348.402C915.82 350.616 914.03 352.895 911.914 355.238C909.831 357.582 907.454 360.072 904.785 362.709L895.605 373.305H923.633ZM946.094 354.311L933.008 351.234L937.305 314.906H978.857V327.699H950.732L949.121 341.811C949.902 341.355 951.221 340.818 953.076 340.199C954.964 339.548 957.048 339.223 959.326 339.223C962.842 339.223 965.951 339.76 968.652 340.834C971.387 341.876 973.698 343.422 975.586 345.473C977.474 347.491 978.89 349.981 979.834 352.943C980.811 355.906 981.299 359.291 981.299 363.1C981.299 366.16 980.794 369.122 979.785 371.986C978.809 374.818 977.295 377.374 975.244 379.652C973.226 381.898 970.671 383.689 967.578 385.023C964.486 386.326 960.824 386.977 956.592 386.977C953.434 386.977 950.358 386.488 947.363 385.512C944.368 384.535 941.667 383.135 939.258 381.312C936.882 379.457 934.993 377.227 933.594 374.623C932.227 371.986 931.559 369.04 931.592 365.785H948.145C948.242 367.51 948.649 369.008 949.365 370.277C950.081 371.547 951.042 372.54 952.246 373.256C953.483 373.939 954.899 374.281 956.494 374.281C958.122 374.281 959.473 373.956 960.547 373.305C961.621 372.654 962.467 371.758 963.086 370.619C963.704 369.48 964.144 368.178 964.404 366.713C964.665 365.215 964.795 363.637 964.795 361.977C964.795 360.219 964.6 358.64 964.209 357.24C963.851 355.84 963.265 354.652 962.451 353.676C961.637 352.667 960.579 351.902 959.277 351.381C958.008 350.86 956.478 350.6 954.688 350.6C952.311 350.6 950.439 351.007 949.072 351.82C947.705 352.634 946.712 353.464 946.094 354.311Z" fill="#2478A8"/>
<path d="M1115.07 378.285C1115.07 375.941 1115.91 373.988 1117.61 372.426C1119.3 370.831 1121.48 370.033 1124.15 370.033C1126.85 370.033 1129.03 370.831 1130.69 372.426C1132.39 373.988 1133.23 375.941 1133.23 378.285C1133.23 380.629 1132.39 382.598 1130.69 384.193C1129.03 385.756 1126.85 386.537 1124.15 386.537C1121.48 386.537 1119.3 385.756 1117.61 384.193C1115.91 382.598 1115.07 380.629 1115.07 378.285ZM1159.01 343.568H1167.02C1169.07 343.568 1170.75 343.21 1172.05 342.494C1173.39 341.745 1174.38 340.704 1175.03 339.369C1175.68 338.002 1176.01 336.391 1176.01 334.535C1176.01 333.103 1175.7 331.785 1175.08 330.58C1174.49 329.376 1173.58 328.415 1172.34 327.699C1171.11 326.951 1169.53 326.576 1167.61 326.576C1166.31 326.576 1165.04 326.853 1163.8 327.406C1162.56 327.927 1161.54 328.676 1160.72 329.652C1159.94 330.629 1159.55 331.817 1159.55 333.217H1143.05C1143.05 329.18 1144.15 325.73 1146.37 322.865C1148.61 319.968 1151.56 317.755 1155.21 316.225C1158.88 314.662 1162.84 313.881 1167.07 313.881C1172.12 313.881 1176.54 314.662 1180.35 316.225C1184.16 317.755 1187.12 320.033 1189.24 323.061C1191.39 326.055 1192.46 329.766 1192.46 334.193C1192.46 336.635 1191.89 338.93 1190.75 341.078C1189.61 343.227 1188.02 345.115 1185.97 346.742C1183.92 348.37 1181.51 349.656 1178.74 350.6C1176.01 351.511 1173.01 351.967 1169.76 351.967H1159.01V343.568ZM1159.01 355.824V347.621H1169.76C1173.3 347.621 1176.54 348.028 1179.47 348.842C1182.4 349.623 1184.93 350.795 1187.04 352.357C1189.16 353.92 1190.78 355.857 1191.92 358.168C1193.06 360.447 1193.63 363.067 1193.63 366.029C1193.63 369.35 1192.97 372.312 1191.63 374.916C1190.3 377.52 1188.42 379.717 1186.02 381.508C1183.61 383.298 1180.79 384.665 1177.57 385.609C1174.35 386.521 1170.85 386.977 1167.07 386.977C1164.11 386.977 1161.15 386.586 1158.18 385.805C1155.22 384.991 1152.52 383.754 1150.08 382.094C1147.64 380.401 1145.67 378.253 1144.17 375.648C1142.71 373.012 1141.97 369.87 1141.97 366.225H1158.48C1158.48 367.722 1158.88 369.089 1159.7 370.326C1160.54 371.531 1161.67 372.491 1163.07 373.207C1164.47 373.923 1165.98 374.281 1167.61 374.281C1169.63 374.281 1171.33 373.907 1172.73 373.158C1174.17 372.377 1175.26 371.335 1176.01 370.033C1176.75 368.731 1177.13 367.283 1177.13 365.688C1177.13 363.279 1176.72 361.358 1175.91 359.926C1175.13 358.493 1173.97 357.452 1172.44 356.801C1170.94 356.15 1169.14 355.824 1167.02 355.824H1159.01ZM1251.4 343.959V356.947C1251.4 362.058 1250.79 366.501 1249.59 370.277C1248.42 374.053 1246.73 377.178 1244.51 379.652C1242.33 382.126 1239.73 383.965 1236.7 385.17C1233.67 386.374 1230.34 386.977 1226.69 386.977C1223.76 386.977 1221.03 386.602 1218.49 385.854C1215.95 385.072 1213.65 383.9 1211.6 382.338C1209.58 380.743 1207.84 378.757 1206.38 376.381C1204.91 374.005 1203.79 371.205 1203.01 367.982C1202.23 364.727 1201.84 361.049 1201.84 356.947V343.959C1201.84 338.816 1202.42 334.372 1203.59 330.629C1204.8 326.853 1206.51 323.728 1208.72 321.254C1210.93 318.78 1213.55 316.941 1216.58 315.736C1219.61 314.532 1222.95 313.93 1226.59 313.93C1229.52 313.93 1232.24 314.32 1234.75 315.102C1237.29 315.85 1239.58 317.022 1241.63 318.617C1243.68 320.18 1245.42 322.149 1246.86 324.525C1248.32 326.902 1249.44 329.717 1250.22 332.973C1251.01 336.195 1251.4 339.857 1251.4 343.959ZM1234.94 358.949V341.859C1234.94 339.581 1234.81 337.595 1234.55 335.902C1234.32 334.21 1233.96 332.777 1233.48 331.605C1233.02 330.434 1232.45 329.49 1231.77 328.773C1231.08 328.025 1230.3 327.488 1229.42 327.162C1228.58 326.804 1227.63 326.625 1226.59 326.625C1225.29 326.625 1224.12 326.902 1223.08 327.455C1222.07 327.976 1221.2 328.822 1220.49 329.994C1219.77 331.166 1219.22 332.729 1218.83 334.682C1218.47 336.635 1218.29 339.027 1218.29 341.859V358.949C1218.29 361.26 1218.4 363.279 1218.63 365.004C1218.89 366.697 1219.25 368.145 1219.71 369.35C1220.2 370.521 1220.78 371.482 1221.46 372.23C1222.15 372.947 1222.93 373.467 1223.81 373.793C1224.69 374.118 1225.65 374.281 1226.69 374.281C1227.96 374.281 1229.1 374.021 1230.11 373.5C1231.12 372.979 1231.98 372.133 1232.7 370.961C1233.44 369.757 1234 368.178 1234.36 366.225C1234.75 364.239 1234.94 361.814 1234.94 358.949Z" fill="#2478A8"/>
<path d="M1656.07 378.285C1656.07 375.941 1656.91 373.988 1658.61 372.426C1660.3 370.831 1662.48 370.033 1665.15 370.033C1667.85 370.033 1670.03 370.831 1671.69 372.426C1673.39 373.988 1674.23 375.941 1674.23 378.285C1674.23 380.629 1673.39 382.598 1671.69 384.193C1670.03 385.756 1667.85 386.537 1665.15 386.537C1662.48 386.537 1660.3 385.756 1658.61 384.193C1656.91 382.598 1656.07 380.629 1656.07 378.285ZM1735.66 358.217V370.912H1684.49L1683.51 360.854L1712.07 314.906H1725.06L1710.95 338.002L1699.23 358.217H1735.66ZM1728.48 314.906V386H1712.03V314.906H1728.48ZM1792.4 343.959V356.947C1792.4 362.058 1791.79 366.501 1790.59 370.277C1789.42 374.053 1787.73 377.178 1785.51 379.652C1783.33 382.126 1780.73 383.965 1777.7 385.17C1774.67 386.374 1771.34 386.977 1767.69 386.977C1764.76 386.977 1762.03 386.602 1759.49 385.854C1756.95 385.072 1754.65 383.9 1752.6 382.338C1750.58 380.743 1748.84 378.757 1747.38 376.381C1745.91 374.005 1744.79 371.205 1744.01 367.982C1743.23 364.727 1742.84 361.049 1742.84 356.947V343.959C1742.84 338.816 1743.42 334.372 1744.59 330.629C1745.8 326.853 1747.51 323.728 1749.72 321.254C1751.93 318.78 1754.55 316.941 1757.58 315.736C1760.61 314.532 1763.95 313.93 1767.59 313.93C1770.52 313.93 1773.24 314.32 1775.75 315.102C1778.29 315.85 1780.58 317.022 1782.63 318.617C1784.68 320.18 1786.42 322.149 1787.86 324.525C1789.32 326.902 1790.44 329.717 1791.22 332.973C1792.01 336.195 1792.4 339.857 1792.4 343.959ZM1775.94 358.949V341.859C1775.94 339.581 1775.81 337.595 1775.55 335.902C1775.32 334.21 1774.96 332.777 1774.48 331.605C1774.02 330.434 1773.45 329.49 1772.77 328.773C1772.08 328.025 1771.3 327.488 1770.42 327.162C1769.58 326.804 1768.63 326.625 1767.59 326.625C1766.29 326.625 1765.12 326.902 1764.08 327.455C1763.07 327.976 1762.2 328.822 1761.49 329.994C1760.77 331.166 1760.22 332.729 1759.83 334.682C1759.47 336.635 1759.29 339.027 1759.29 341.859V358.949C1759.29 361.26 1759.4 363.279 1759.63 365.004C1759.89 366.697 1760.25 368.145 1760.71 369.35C1761.2 370.521 1761.78 371.482 1762.46 372.23C1763.15 372.947 1763.93 373.467 1764.81 373.793C1765.69 374.118 1766.65 374.281 1767.69 374.281C1768.96 374.281 1770.1 374.021 1771.11 373.5C1772.12 372.979 1772.98 372.133 1773.7 370.961C1774.44 369.757 1775 368.178 1775.36 366.225C1775.75 364.239 1775.94 361.814 1775.94 358.949Z" fill="#2478A8"/>
<rect x="5" y="5" width="1910" height="190" rx="95" fill="#BFE0A9" stroke="#8DC26A" stroke-width="10"/>
<path d="M1449.3 66.9062V75.6953L1422.74 138H1405.36L1431.97 79.6016H1398.03V66.9062H1449.3ZM1471.96 106.311L1458.87 103.234L1463.17 66.9062H1504.72V79.6992H1476.6L1474.98 93.8105C1475.77 93.3548 1477.08 92.8177 1478.94 92.1992C1480.83 91.5482 1482.91 91.2227 1485.19 91.2227C1488.71 91.2227 1491.81 91.7598 1494.52 92.834C1497.25 93.8757 1499.56 95.4219 1501.45 97.4727C1503.34 99.4909 1504.75 101.981 1505.7 104.943C1506.67 107.906 1507.16 111.291 1507.16 115.1C1507.16 118.16 1506.66 121.122 1505.65 123.986C1504.67 126.818 1503.16 129.374 1501.11 131.652C1499.09 133.898 1496.53 135.689 1493.44 137.023C1490.35 138.326 1486.69 138.977 1482.46 138.977C1479.3 138.977 1476.22 138.488 1473.23 137.512C1470.23 136.535 1467.53 135.135 1465.12 133.312C1462.74 131.457 1460.86 129.227 1459.46 126.623C1458.09 123.986 1457.42 121.04 1457.46 117.785H1474.01C1474.11 119.51 1474.51 121.008 1475.23 122.277C1475.94 123.547 1476.9 124.54 1478.11 125.256C1479.35 125.939 1480.76 126.281 1482.36 126.281C1483.99 126.281 1485.34 125.956 1486.41 125.305C1487.48 124.654 1488.33 123.758 1488.95 122.619C1489.57 121.48 1490.01 120.178 1490.27 118.713C1490.53 117.215 1490.66 115.637 1490.66 113.977C1490.66 112.219 1490.46 110.64 1490.07 109.24C1489.71 107.84 1489.13 106.652 1488.31 105.676C1487.5 104.667 1486.44 103.902 1485.14 103.381C1483.87 102.86 1482.34 102.6 1480.55 102.6C1478.17 102.6 1476.3 103.007 1474.94 103.82C1473.57 104.634 1472.58 105.464 1471.96 106.311Z" fill="#5D884F"/>
<path d="M1677.31 66.9062V138H1660.85V85.4609L1644.64 90.1973V77.6973L1675.79 66.9062H1677.31ZM1748.26 95.959V108.947C1748.26 114.058 1747.65 118.501 1746.45 122.277C1745.28 126.053 1743.58 129.178 1741.37 131.652C1739.19 134.126 1736.59 135.965 1733.56 137.17C1730.53 138.374 1727.19 138.977 1723.55 138.977C1720.62 138.977 1717.88 138.602 1715.35 137.854C1712.81 137.072 1710.51 135.9 1708.46 134.338C1706.44 132.743 1704.7 130.757 1703.24 128.381C1701.77 126.005 1700.65 123.205 1699.87 119.982C1699.09 116.727 1698.7 113.049 1698.7 108.947V95.959C1698.7 90.8158 1699.28 86.3724 1700.45 82.6289C1701.66 78.8529 1703.37 75.7279 1705.58 73.2539C1707.79 70.7799 1710.41 68.9408 1713.44 67.7363C1716.47 66.5319 1719.81 65.9297 1723.45 65.9297C1726.38 65.9297 1729.1 66.3203 1731.61 67.1016C1734.14 67.8503 1736.44 69.0221 1738.49 70.6172C1740.54 72.1797 1742.28 74.1491 1743.71 76.5254C1745.18 78.9017 1746.3 81.7174 1747.08 84.9727C1747.87 88.1953 1748.26 91.8574 1748.26 95.959ZM1731.8 110.949V93.8594C1731.8 91.5807 1731.67 89.5951 1731.41 87.9023C1731.18 86.2096 1730.82 84.7773 1730.34 83.6055C1729.88 82.4336 1729.31 81.4896 1728.63 80.7734C1727.94 80.0247 1727.16 79.4876 1726.28 79.1621C1725.44 78.804 1724.49 78.625 1723.45 78.625C1722.15 78.625 1720.98 78.9017 1719.94 79.4551C1718.93 79.9759 1718.06 80.8223 1717.35 81.9941C1716.63 83.166 1716.08 84.7285 1715.69 86.6816C1715.33 88.6348 1715.15 91.0273 1715.15 93.8594V110.949C1715.15 113.26 1715.26 115.279 1715.49 117.004C1715.75 118.697 1716.11 120.145 1716.57 121.35C1717.05 122.521 1717.64 123.482 1718.32 124.23C1719.01 124.947 1719.79 125.467 1720.67 125.793C1721.55 126.118 1722.51 126.281 1723.55 126.281C1724.82 126.281 1725.96 126.021 1726.97 125.5C1727.98 124.979 1728.84 124.133 1729.55 122.961C1730.3 121.757 1730.86 120.178 1731.21 118.225C1731.61 116.239 1731.8 113.814 1731.8 110.949ZM1806.26 95.959V108.947C1806.26 114.058 1805.66 118.501 1804.46 122.277C1803.29 126.053 1801.59 129.178 1799.38 131.652C1797.2 134.126 1794.59 135.965 1791.57 137.17C1788.54 138.374 1785.2 138.977 1781.56 138.977C1778.63 138.977 1775.89 138.602 1773.35 137.854C1770.81 137.072 1768.52 135.9 1766.47 134.338C1764.45 132.743 1762.71 130.757 1761.24 128.381C1759.78 126.005 1758.66 123.205 1757.88 119.982C1757.09 116.727 1756.7 113.049 1756.7 108.947V95.959C1756.7 90.8158 1757.29 86.3724 1758.46 82.6289C1759.67 78.8529 1761.37 75.7279 1763.59 73.2539C1765.8 70.7799 1768.42 68.9408 1771.45 67.7363C1774.48 66.5319 1777.81 65.9297 1781.46 65.9297C1784.39 65.9297 1787.11 66.3203 1789.61 67.1016C1792.15 67.8503 1794.45 69.0221 1796.5 70.6172C1798.55 72.1797 1800.29 74.1491 1801.72 76.5254C1803.19 78.9017 1804.31 81.7174 1805.09 84.9727C1805.87 88.1953 1806.26 91.8574 1806.26 95.959ZM1789.81 110.949V93.8594C1789.81 91.5807 1789.68 89.5951 1789.42 87.9023C1789.19 86.2096 1788.83 84.7773 1788.34 83.6055C1787.89 82.4336 1787.32 81.4896 1786.63 80.7734C1785.95 80.0247 1785.17 79.4876 1784.29 79.1621C1783.44 78.804 1782.5 78.625 1781.46 78.625C1780.16 78.625 1778.99 78.9017 1777.94 79.4551C1776.93 79.9759 1776.07 80.8223 1775.36 81.9941C1774.64 83.166 1774.09 84.7285 1773.7 86.6816C1773.34 88.6348 1773.16 91.0273 1773.16 93.8594V110.949C1773.16 113.26 1773.27 115.279 1773.5 117.004C1773.76 118.697 1774.12 120.145 1774.57 121.35C1775.06 122.521 1775.65 123.482 1776.33 124.23C1777.02 124.947 1777.8 125.467 1778.68 125.793C1779.55 126.118 1780.51 126.281 1781.56 126.281C1782.83 126.281 1783.97 126.021 1784.97 125.5C1785.98 124.979 1786.85 124.133 1787.56 122.961C1788.31 121.757 1788.86 120.178 1789.22 118.225C1789.61 116.239 1789.81 113.814 1789.81 110.949Z" fill="#5D884F"/>
<path d="M937.256 95.959V108.947C937.256 114.058 936.654 118.501 935.449 122.277C934.277 126.053 932.585 129.178 930.371 131.652C928.19 134.126 925.586 135.965 922.559 137.17C919.531 138.374 916.195 138.977 912.549 138.977C909.619 138.977 906.885 138.602 904.346 137.854C901.807 137.072 899.512 135.9 897.461 134.338C895.443 132.743 893.701 130.757 892.236 128.381C890.771 126.005 889.648 123.205 888.867 119.982C888.086 116.727 887.695 113.049 887.695 108.947V95.959C887.695 90.8158 888.281 86.3724 889.453 82.6289C890.658 78.8529 892.367 75.7279 894.58 73.2539C896.794 70.7799 899.414 68.9408 902.441 67.7363C905.469 66.5319 908.805 65.9297 912.451 65.9297C915.381 65.9297 918.099 66.3203 920.605 67.1016C923.145 67.8503 925.439 69.0221 927.49 70.6172C929.541 72.1797 931.283 74.1491 932.715 76.5254C934.18 78.9017 935.303 81.7174 936.084 84.9727C936.865 88.1953 937.256 91.8574 937.256 95.959ZM920.801 110.949V93.8594C920.801 91.5807 920.671 89.5951 920.41 87.9023C920.182 86.2096 919.824 84.7773 919.336 83.6055C918.88 82.4336 918.311 81.4896 917.627 80.7734C916.943 80.0247 916.162 79.4876 915.283 79.1621C914.437 78.804 913.493 78.625 912.451 78.625C911.149 78.625 909.977 78.9017 908.936 79.4551C907.926 79.9759 907.064 80.8223 906.348 81.9941C905.632 83.166 905.078 84.7285 904.688 86.6816C904.329 88.6348 904.15 91.0273 904.15 93.8594V110.949C904.15 113.26 904.264 115.279 904.492 117.004C904.753 118.697 905.111 120.145 905.566 121.35C906.055 122.521 906.641 123.482 907.324 124.23C908.008 124.947 908.789 125.467 909.668 125.793C910.547 126.118 911.507 126.281 912.549 126.281C913.818 126.281 914.958 126.021 915.967 125.5C916.976 124.979 917.839 124.133 918.555 122.961C919.303 121.757 919.857 120.178 920.215 118.225C920.605 116.239 920.801 113.814 920.801 110.949Z" fill="#5D884F"/>
<path d="M1142.95 106.311L1129.86 103.234L1134.16 66.9062H1175.71V79.6992H1147.59L1145.98 93.8105C1146.76 93.3548 1148.08 92.8177 1149.93 92.1992C1151.82 91.5482 1153.9 91.2227 1156.18 91.2227C1159.7 91.2227 1162.81 91.7598 1165.51 92.834C1168.24 93.8757 1170.55 95.4219 1172.44 97.4727C1174.33 99.4909 1175.75 101.981 1176.69 104.943C1177.67 107.906 1178.15 111.291 1178.15 115.1C1178.15 118.16 1177.65 121.122 1176.64 123.986C1175.66 126.818 1174.15 129.374 1172.1 131.652C1170.08 133.898 1167.53 135.689 1164.43 137.023C1161.34 138.326 1157.68 138.977 1153.45 138.977C1150.29 138.977 1147.21 138.488 1144.22 137.512C1141.22 136.535 1138.52 135.135 1136.11 133.312C1133.74 131.457 1131.85 129.227 1130.45 126.623C1129.08 123.986 1128.41 121.04 1128.45 117.785H1145C1145.1 119.51 1145.5 121.008 1146.22 122.277C1146.94 123.547 1147.9 124.54 1149.1 125.256C1150.34 125.939 1151.75 126.281 1153.35 126.281C1154.98 126.281 1156.33 125.956 1157.4 125.305C1158.48 124.654 1159.32 123.758 1159.94 122.619C1160.56 121.48 1161 120.178 1161.26 118.713C1161.52 117.215 1161.65 115.637 1161.65 113.977C1161.65 112.219 1161.46 110.64 1161.06 109.24C1160.71 107.84 1160.12 106.652 1159.31 105.676C1158.49 104.667 1157.43 103.902 1156.13 103.381C1154.86 102.86 1153.33 102.6 1151.54 102.6C1149.17 102.6 1147.29 103.007 1145.93 103.82C1144.56 104.634 1143.57 105.464 1142.95 106.311ZM1236.26 95.959V108.947C1236.26 114.058 1235.66 118.501 1234.45 122.277C1233.28 126.053 1231.59 129.178 1229.38 131.652C1227.19 134.126 1224.59 135.965 1221.56 137.17C1218.54 138.374 1215.2 138.977 1211.55 138.977C1208.62 138.977 1205.89 138.602 1203.35 137.854C1200.81 137.072 1198.52 135.9 1196.46 134.338C1194.45 132.743 1192.71 130.757 1191.24 128.381C1189.78 126.005 1188.65 123.205 1187.87 119.982C1187.09 116.727 1186.7 113.049 1186.7 108.947V95.959C1186.7 90.8158 1187.29 86.3724 1188.46 82.6289C1189.66 78.8529 1191.37 75.7279 1193.58 73.2539C1195.8 70.7799 1198.42 68.9408 1201.45 67.7363C1204.47 66.5319 1207.81 65.9297 1211.46 65.9297C1214.38 65.9297 1217.1 66.3203 1219.61 67.1016C1222.15 67.8503 1224.44 69.0221 1226.49 70.6172C1228.54 72.1797 1230.29 74.1491 1231.72 76.5254C1233.18 78.9017 1234.31 81.7174 1235.09 84.9727C1235.87 88.1953 1236.26 91.8574 1236.26 95.959ZM1219.8 110.949V93.8594C1219.8 91.5807 1219.67 89.5951 1219.41 87.9023C1219.19 86.2096 1218.83 84.7773 1218.34 83.6055C1217.88 82.4336 1217.31 81.4896 1216.63 80.7734C1215.95 80.0247 1215.17 79.4876 1214.29 79.1621C1213.44 78.804 1212.5 78.625 1211.46 78.625C1210.15 78.625 1208.98 78.9017 1207.94 79.4551C1206.93 79.9759 1206.07 80.8223 1205.35 81.9941C1204.64 83.166 1204.08 84.7285 1203.69 86.6816C1203.33 88.6348 1203.15 91.0273 1203.15 93.8594V110.949C1203.15 113.26 1203.27 115.279 1203.5 117.004C1203.76 118.697 1204.11 120.145 1204.57 121.35C1205.06 122.521 1205.64 123.482 1206.33 124.23C1207.01 124.947 1207.79 125.467 1208.67 125.793C1209.55 126.118 1210.51 126.281 1211.55 126.281C1212.82 126.281 1213.96 126.021 1214.97 125.5C1215.98 124.979 1216.84 124.133 1217.56 122.961C1218.31 121.757 1218.86 120.178 1219.22 118.225C1219.61 116.239 1219.8 113.814 1219.8 110.949Z" fill="#5D884F"/>
<path d="M136.424 107.775H118.113L118.016 96.5449H132.859C135.529 96.5449 137.661 96.252 139.256 95.666C140.851 95.0475 142.007 94.1523 142.723 92.9805C143.471 91.8086 143.846 90.3438 143.846 88.5859C143.846 86.5677 143.471 84.9401 142.723 83.7031C141.974 82.4661 140.786 81.571 139.158 81.0176C137.563 80.4316 135.496 80.1387 132.957 80.1387H124.559V138H107.42V66.9062H132.957C137.352 66.9062 141.274 67.3132 144.725 68.127C148.175 68.9082 151.105 70.1126 153.514 71.7402C155.955 73.3678 157.811 75.4186 159.08 77.8926C160.35 80.334 160.984 83.2148 160.984 86.5352C160.984 89.4323 160.366 92.1504 159.129 94.6895C157.892 97.2285 155.825 99.2956 152.928 100.891C150.063 102.453 146.141 103.267 141.16 103.332L136.424 107.775ZM135.74 138H113.963L119.822 124.816H135.74C138.084 124.816 139.956 124.458 141.355 123.742C142.788 122.993 143.813 122.017 144.432 120.812C145.083 119.576 145.408 118.208 145.408 116.711C145.408 114.888 145.099 113.309 144.48 111.975C143.895 110.64 142.951 109.615 141.648 108.898C140.346 108.15 138.605 107.775 136.424 107.775H122.02L122.117 96.5449H139.354L143.357 101.037C148.11 100.842 151.87 101.509 154.637 103.039C157.436 104.569 159.438 106.587 160.643 109.094C161.847 111.6 162.449 114.221 162.449 116.955C162.449 121.61 161.44 125.5 159.422 128.625C157.436 131.75 154.458 134.094 150.486 135.656C146.515 137.219 141.6 138 135.74 138ZM220.896 124.816V138H183.006V124.816H220.896ZM189.109 66.9062V138H171.971V66.9062H189.109ZM216.014 95.1289V107.873H183.006V95.1289H216.014ZM221.043 66.9062V80.1387H183.006V66.9062H221.043ZM287.303 66.9062V138H270.213L245.066 93.7617V138H227.928V66.9062H245.066L270.213 111.145V66.9062H287.303ZM347.068 124.816V138H309.178V124.816H347.068ZM315.281 66.9062V138H298.143V66.9062H315.281ZM342.186 95.1289V107.873H309.178V95.1289H342.186ZM347.215 66.9062V80.1387H309.178V66.9062H347.215ZM371.238 66.9062V138H354.1V66.9062H371.238ZM398.875 96.4961V109.68H366.355V96.4961H398.875ZM401.658 66.9062V80.1387H366.355V66.9062H401.658ZM427 66.9062V138H409.91V66.9062H427ZM472.02 66.9062V138H454.881V66.9062H472.02ZM493.406 66.9062V80.1387H433.982V66.9062H493.406Z" fill="#5D884F"/>
<rect x="5" y="505" width="1910" height="190" rx="95" fill="#CBA7F6" stroke="#A673E5" stroke-width="10"/>
<path d="M1479.53 610.217V622.912H1428.35L1427.38 612.854L1455.94 566.906H1468.93L1454.82 590.002L1443.1 610.217H1479.53ZM1472.35 566.906V638H1455.89V566.906H1472.35Z" fill="#56298E"/>
<path d="M1720.52 610.217V622.912H1669.35L1668.37 612.854L1696.94 566.906H1709.93L1695.81 590.002L1684.1 610.217H1720.52ZM1713.34 566.906V638H1696.89V566.906H1713.34ZM1777.26 595.959V608.947C1777.26 614.058 1776.66 618.501 1775.45 622.277C1774.28 626.053 1772.59 629.178 1770.38 631.652C1768.19 634.126 1765.59 635.965 1762.56 637.17C1759.54 638.374 1756.2 638.977 1752.55 638.977C1749.62 638.977 1746.89 638.602 1744.35 637.854C1741.81 637.072 1739.52 635.9 1737.46 634.338C1735.45 632.743 1733.71 630.757 1732.24 628.381C1730.78 626.005 1729.65 623.205 1728.87 619.982C1728.09 616.727 1727.7 613.049 1727.7 608.947V595.959C1727.7 590.816 1728.29 586.372 1729.46 582.629C1730.66 578.853 1732.37 575.728 1734.58 573.254C1736.8 570.78 1739.42 568.941 1742.45 567.736C1745.47 566.532 1748.81 565.93 1752.46 565.93C1755.38 565.93 1758.1 566.32 1760.61 567.102C1763.15 567.85 1765.44 569.022 1767.49 570.617C1769.54 572.18 1771.29 574.149 1772.72 576.525C1774.18 578.902 1775.31 581.717 1776.09 584.973C1776.87 588.195 1777.26 591.857 1777.26 595.959ZM1760.8 610.949V593.859C1760.8 591.581 1760.67 589.595 1760.41 587.902C1760.19 586.21 1759.83 584.777 1759.34 583.605C1758.88 582.434 1758.31 581.49 1757.63 580.773C1756.95 580.025 1756.17 579.488 1755.29 579.162C1754.44 578.804 1753.5 578.625 1752.46 578.625C1751.15 578.625 1749.98 578.902 1748.94 579.455C1747.93 579.976 1747.07 580.822 1746.35 581.994C1745.64 583.166 1745.08 584.729 1744.69 586.682C1744.33 588.635 1744.15 591.027 1744.15 593.859V610.949C1744.15 613.26 1744.27 615.279 1744.5 617.004C1744.76 618.697 1745.11 620.145 1745.57 621.35C1746.06 622.521 1746.64 623.482 1747.33 624.23C1748.01 624.947 1748.79 625.467 1749.67 625.793C1750.55 626.118 1751.51 626.281 1752.55 626.281C1753.82 626.281 1754.96 626.021 1755.97 625.5C1756.98 624.979 1757.84 624.133 1758.56 622.961C1759.31 621.757 1759.86 620.178 1760.22 618.225C1760.61 616.239 1760.8 613.814 1760.8 610.949Z" fill="#56298E"/>
<path d="M937.256 595.959V608.947C937.256 614.058 936.654 618.501 935.449 622.277C934.277 626.053 932.585 629.178 930.371 631.652C928.19 634.126 925.586 635.965 922.559 637.17C919.531 638.374 916.195 638.977 912.549 638.977C909.619 638.977 906.885 638.602 904.346 637.854C901.807 637.072 899.512 635.9 897.461 634.338C895.443 632.743 893.701 630.757 892.236 628.381C890.771 626.005 889.648 623.205 888.867 619.982C888.086 616.727 887.695 613.049 887.695 608.947V595.959C887.695 590.816 888.281 586.372 889.453 582.629C890.658 578.853 892.367 575.728 894.58 573.254C896.794 570.78 899.414 568.941 902.441 567.736C905.469 566.532 908.805 565.93 912.451 565.93C915.381 565.93 918.099 566.32 920.605 567.102C923.145 567.85 925.439 569.022 927.49 570.617C929.541 572.18 931.283 574.149 932.715 576.525C934.18 578.902 935.303 581.717 936.084 584.973C936.865 588.195 937.256 591.857 937.256 595.959ZM920.801 610.949V593.859C920.801 591.581 920.671 589.595 920.41 587.902C920.182 586.21 919.824 584.777 919.336 583.605C918.88 582.434 918.311 581.49 917.627 580.773C916.943 580.025 916.162 579.488 915.283 579.162C914.437 578.804 913.493 578.625 912.451 578.625C911.149 578.625 909.977 578.902 908.936 579.455C907.926 579.976 907.064 580.822 906.348 581.994C905.632 583.166 905.078 584.729 904.688 586.682C904.329 588.635 904.15 591.027 904.15 593.859V610.949C904.15 613.26 904.264 615.279 904.492 617.004C904.753 618.697 905.111 620.145 905.566 621.35C906.055 622.521 906.641 623.482 907.324 624.23C908.008 624.947 908.789 625.467 909.668 625.793C910.547 626.118 911.507 626.281 912.549 626.281C913.818 626.281 914.958 626.021 915.967 625.5C916.976 624.979 917.839 624.133 918.555 622.961C919.303 621.757 919.857 620.178 920.215 618.225C920.605 616.239 920.801 613.814 920.801 610.949Z" fill="#56298E"/>
<path d="M1060.22 597.668V611.779H1011.49V597.668H1060.22ZM1043.62 579.113V630.871H1028.24V579.113H1043.62Z" fill="#A673E5"/>
<path d="M604.949 606.311L591.863 603.234L596.16 566.906H637.713V579.699H609.588L607.977 593.811C608.758 593.355 610.076 592.818 611.932 592.199C613.82 591.548 615.903 591.223 618.182 591.223C621.697 591.223 624.806 591.76 627.508 592.834C630.242 593.876 632.553 595.422 634.441 597.473C636.329 599.491 637.745 601.981 638.689 604.943C639.666 607.906 640.154 611.291 640.154 615.1C640.154 618.16 639.65 621.122 638.641 623.986C637.664 626.818 636.15 629.374 634.1 631.652C632.081 633.898 629.526 635.689 626.434 637.023C623.341 638.326 619.679 638.977 615.447 638.977C612.29 638.977 609.214 638.488 606.219 637.512C603.224 636.535 600.522 635.135 598.113 633.312C595.737 631.457 593.849 629.227 592.449 626.623C591.082 623.986 590.415 621.04 590.447 617.785H607C607.098 619.51 607.505 621.008 608.221 622.277C608.937 623.547 609.897 624.54 611.102 625.256C612.339 625.939 613.755 626.281 615.35 626.281C616.977 626.281 618.328 625.956 619.402 625.305C620.477 624.654 621.323 623.758 621.941 622.619C622.56 621.48 622.999 620.178 623.26 618.713C623.52 617.215 623.65 615.637 623.65 613.977C623.65 612.219 623.455 610.64 623.064 609.24C622.706 607.84 622.12 606.652 621.307 605.676C620.493 604.667 619.435 603.902 618.133 603.381C616.863 602.86 615.333 602.6 613.543 602.6C611.167 602.6 609.295 603.007 607.928 603.82C606.561 604.634 605.568 605.464 604.949 606.311ZM659.295 625.793H660.271C663.527 625.793 666.456 625.435 669.061 624.719C671.665 624.003 673.895 622.896 675.75 621.398C677.605 619.868 679.021 617.899 679.998 615.49C681.007 613.049 681.512 610.103 681.512 606.652V591.955C681.512 589.676 681.316 587.707 680.926 586.047C680.535 584.354 679.965 582.954 679.217 581.848C678.468 580.741 677.573 579.927 676.531 579.406C675.49 578.853 674.318 578.576 673.016 578.576C671.714 578.576 670.558 578.951 669.549 579.699C668.572 580.415 667.726 581.392 667.01 582.629C666.326 583.833 665.805 585.201 665.447 586.73C665.089 588.228 664.91 589.742 664.91 591.271C664.91 592.997 665.089 594.608 665.447 596.105C665.838 597.57 666.391 598.856 667.107 599.963C667.856 601.037 668.784 601.883 669.891 602.502C671.03 603.12 672.348 603.43 673.846 603.43C675.343 603.43 676.629 603.169 677.703 602.648C678.81 602.095 679.721 601.379 680.438 600.5C681.154 599.589 681.674 598.612 682 597.57C682.358 596.529 682.521 595.503 682.488 594.494L687.273 598.254C687.273 600.337 686.801 602.388 685.857 604.406C684.913 606.424 683.611 608.264 681.951 609.924C680.291 611.551 678.37 612.854 676.189 613.83C674.041 614.807 671.762 615.295 669.354 615.295C666.131 615.295 663.217 614.725 660.613 613.586C658.042 612.447 655.844 610.819 654.021 608.703C652.199 606.587 650.799 604.064 649.822 601.135C648.878 598.173 648.406 594.885 648.406 591.271C648.406 587.788 649.008 584.517 650.213 581.457C651.417 578.397 653.126 575.712 655.34 573.4C657.553 571.057 660.174 569.217 663.201 567.883C666.229 566.548 669.549 565.881 673.162 565.881C676.58 565.881 679.786 566.532 682.781 567.834C685.776 569.104 688.413 570.975 690.691 573.449C692.97 575.923 694.76 578.967 696.062 582.58C697.365 586.193 698.016 590.327 698.016 594.982V600.646C698.016 605.692 697.397 610.249 696.16 614.318C694.923 618.387 693.165 621.968 690.887 625.061C688.608 628.12 685.906 630.692 682.781 632.775C679.689 634.826 676.255 636.372 672.479 637.414C668.735 638.456 664.764 638.977 660.564 638.977H659.295V625.793Z" fill="#56298E"/>
<path d="M805.717 590.051V602.746H760.453V590.051H805.717ZM805.717 611.486V624.182H760.453V611.486H805.717Z" fill="#A673E5"/>
<path d="M1358.22 597.668V611.779H1309.49V597.668H1358.22ZM1341.62 579.113V630.871H1326.24V579.113H1341.62Z" fill="#A673E5"/>
<path d="M1603.22 597.668V611.779H1554.49V597.668H1603.22ZM1586.62 579.113V630.871H1571.24V579.113H1586.62Z" fill="#A673E5"/>
<path d="M1165.31 566.906V638H1148.86V585.461L1132.65 590.197V577.697L1163.8 566.906H1165.31ZM1200.96 606.311L1187.87 603.234L1192.17 566.906H1233.72V579.699H1205.6L1203.98 593.811C1204.77 593.355 1206.08 592.818 1207.94 592.199C1209.83 591.548 1211.91 591.223 1214.19 591.223C1217.71 591.223 1220.81 591.76 1223.52 592.834C1226.25 593.876 1228.56 595.422 1230.45 597.473C1232.34 599.491 1233.75 601.981 1234.7 604.943C1235.67 607.906 1236.16 611.291 1236.16 615.1C1236.16 618.16 1235.66 621.122 1234.65 623.986C1233.67 626.818 1232.16 629.374 1230.11 631.652C1228.09 633.898 1225.53 635.689 1222.44 637.023C1219.35 638.326 1215.69 638.977 1211.46 638.977C1208.3 638.977 1205.22 638.488 1202.23 637.512C1199.23 636.535 1196.53 635.135 1194.12 633.312C1191.74 631.457 1189.86 629.227 1188.46 626.623C1187.09 623.986 1186.42 621.04 1186.46 617.785H1203.01C1203.11 619.51 1203.51 621.008 1204.23 622.277C1204.94 623.547 1205.9 624.54 1207.11 625.256C1208.35 625.939 1209.76 626.281 1211.36 626.281C1212.99 626.281 1214.34 625.956 1215.41 625.305C1216.48 624.654 1217.33 623.758 1217.95 622.619C1218.57 621.48 1219.01 620.178 1219.27 618.713C1219.53 617.215 1219.66 615.637 1219.66 613.977C1219.66 612.219 1219.46 610.64 1219.07 609.24C1218.71 607.84 1218.13 606.652 1217.31 605.676C1216.5 604.667 1215.44 603.902 1214.14 603.381C1212.87 602.86 1211.34 602.6 1209.55 602.6C1207.17 602.6 1205.3 603.007 1203.94 603.82C1202.57 604.634 1201.58 605.464 1200.96 606.311Z" fill="#56298E"/>
<path d="M144.041 619.104C144.041 617.997 143.878 617.004 143.553 616.125C143.227 615.214 142.625 614.367 141.746 613.586C140.867 612.805 139.598 612.023 137.938 611.242C136.31 610.428 134.161 609.582 131.492 608.703C128.367 607.661 125.356 606.49 122.459 605.188C119.562 603.853 116.974 602.307 114.695 600.549C112.417 598.758 110.61 596.675 109.275 594.299C107.941 591.89 107.273 589.09 107.273 585.9C107.273 582.84 107.957 580.09 109.324 577.648C110.691 575.174 112.596 573.075 115.037 571.35C117.511 569.592 120.408 568.257 123.729 567.346C127.049 566.402 130.678 565.93 134.617 565.93C139.826 565.93 144.415 566.841 148.387 568.664C152.391 570.454 155.516 573.01 157.762 576.33C160.04 579.618 161.18 583.508 161.18 588H144.139C144.139 586.21 143.764 584.631 143.016 583.264C142.299 581.896 141.209 580.822 139.744 580.041C138.279 579.26 136.44 578.869 134.227 578.869C132.078 578.869 130.271 579.195 128.807 579.846C127.342 580.497 126.235 581.376 125.486 582.482C124.738 583.557 124.363 584.745 124.363 586.047C124.363 587.121 124.656 588.098 125.242 588.977C125.861 589.823 126.723 590.62 127.83 591.369C128.969 592.118 130.337 592.834 131.932 593.518C133.559 594.201 135.382 594.868 137.4 595.52C141.176 596.724 144.529 598.075 147.459 599.572C150.421 601.037 152.911 602.714 154.93 604.602C156.98 606.457 158.527 608.573 159.568 610.949C160.643 613.326 161.18 616.011 161.18 619.006C161.18 622.196 160.561 625.028 159.324 627.502C158.087 629.976 156.313 632.076 154.002 633.801C151.691 635.493 148.924 636.779 145.701 637.658C142.479 638.537 138.882 638.977 134.91 638.977C131.264 638.977 127.667 638.521 124.119 637.609C120.604 636.665 117.413 635.233 114.549 633.312C111.684 631.359 109.389 628.869 107.664 625.842C105.971 622.782 105.125 619.152 105.125 614.953H122.312C122.312 617.036 122.589 618.794 123.143 620.227C123.696 621.659 124.51 622.814 125.584 623.693C126.658 624.54 127.977 625.158 129.539 625.549C131.102 625.907 132.892 626.086 134.91 626.086C137.091 626.086 138.849 625.777 140.184 625.158C141.518 624.507 142.495 623.661 143.113 622.619C143.732 621.545 144.041 620.373 144.041 619.104ZM210.447 613.928H227.537C227.309 618.876 225.975 623.238 223.533 627.014C221.092 630.79 217.706 633.736 213.377 635.852C209.08 637.935 204.002 638.977 198.143 638.977C193.39 638.977 189.142 638.179 185.398 636.584C181.688 634.989 178.53 632.694 175.926 629.699C173.354 626.704 171.385 623.075 170.018 618.811C168.683 614.546 168.016 609.745 168.016 604.406V600.549C168.016 595.21 168.715 590.409 170.115 586.145C171.548 581.848 173.566 578.202 176.17 575.207C178.807 572.18 181.964 569.868 185.643 568.273C189.321 566.678 193.406 565.881 197.898 565.881C204.083 565.881 209.308 566.988 213.572 569.201C217.837 571.415 221.141 574.458 223.484 578.332C225.828 582.173 227.212 586.551 227.635 591.467H210.545C210.48 588.798 210.024 586.568 209.178 584.777C208.331 582.954 206.997 581.587 205.174 580.676C203.351 579.764 200.926 579.309 197.898 579.309C195.783 579.309 193.943 579.699 192.381 580.48C190.818 581.262 189.516 582.499 188.475 584.191C187.433 585.884 186.652 588.081 186.131 590.783C185.643 593.452 185.398 596.675 185.398 600.451V604.406C185.398 608.182 185.626 611.405 186.082 614.074C186.538 616.743 187.27 618.924 188.279 620.617C189.288 622.31 190.59 623.563 192.186 624.377C193.813 625.158 195.799 625.549 198.143 625.549C200.747 625.549 202.944 625.142 204.734 624.328C206.525 623.482 207.908 622.212 208.885 620.52C209.861 618.794 210.382 616.597 210.447 613.928ZM295.799 601.037V603.918C295.799 609.354 295.034 614.237 293.504 618.566C292.007 622.863 289.874 626.542 287.107 629.602C284.34 632.629 281.069 634.956 277.293 636.584C273.517 638.179 269.35 638.977 264.793 638.977C260.203 638.977 256.004 638.179 252.195 636.584C248.419 634.956 245.132 632.629 242.332 629.602C239.565 626.542 237.417 622.863 235.887 618.566C234.389 614.237 233.641 609.354 233.641 603.918V601.037C233.641 595.601 234.389 590.718 235.887 586.389C237.417 582.059 239.549 578.381 242.283 575.354C245.05 572.294 248.322 569.966 252.098 568.371C255.906 566.743 260.105 565.93 264.695 565.93C269.253 565.93 273.419 566.743 277.195 568.371C281.004 569.966 284.292 572.294 287.059 575.354C289.826 578.381 291.974 582.059 293.504 586.389C295.034 590.718 295.799 595.601 295.799 601.037ZM278.416 603.918V600.939C278.416 597.424 278.107 594.331 277.488 591.662C276.902 588.96 276.023 586.698 274.852 584.875C273.68 583.052 272.231 581.685 270.506 580.773C268.813 579.829 266.876 579.357 264.695 579.357C262.417 579.357 260.431 579.829 258.738 580.773C257.046 581.685 255.63 583.052 254.49 584.875C253.351 586.698 252.488 588.96 251.902 591.662C251.349 594.331 251.072 597.424 251.072 600.939V603.918C251.072 607.401 251.349 610.493 251.902 613.195C252.488 615.865 253.351 618.127 254.49 619.982C255.662 621.838 257.094 623.238 258.787 624.182C260.512 625.126 262.514 625.598 264.793 625.598C266.974 625.598 268.911 625.126 270.604 624.182C272.296 623.238 273.712 621.838 274.852 619.982C276.023 618.127 276.902 615.865 277.488 613.195C278.107 610.493 278.416 607.401 278.416 603.918ZM304.686 566.906H332.664C338.133 566.906 342.885 567.72 346.922 569.348C350.958 570.975 354.067 573.384 356.248 576.574C358.462 579.764 359.568 583.703 359.568 588.391C359.568 592.46 358.934 595.861 357.664 598.596C356.395 601.33 354.62 603.592 352.342 605.383C350.096 607.141 347.475 608.589 344.48 609.729L338.865 612.902H315.379L315.281 599.67H332.664C334.845 599.67 336.652 599.279 338.084 598.498C339.516 597.717 340.59 596.61 341.307 595.178C342.055 593.713 342.43 591.971 342.43 589.953C342.43 587.902 342.055 586.145 341.307 584.68C340.558 583.215 339.451 582.092 337.986 581.311C336.554 580.529 334.78 580.139 332.664 580.139H321.824V638H304.686V566.906ZM343.602 638L327.879 606.555L346.043 606.457L361.961 637.268V638H343.602ZM418.846 624.816V638H380.955V624.816H418.846ZM387.059 566.906V638H369.92V566.906H387.059ZM413.963 595.129V607.873H380.955V595.129H413.963ZM418.992 566.906V580.139H380.955V566.906H418.992Z" fill="#56298E"/>
<rect x="1535" y="755" width="809" height="190" rx="95" fill="#FBE1AB" stroke="#FFBC51" stroke-width="10"/>
<path d="M1632.46 854.311L1619.37 851.234L1623.67 814.906H1665.22V827.699H1637.1L1635.48 841.811C1636.27 841.355 1637.58 840.818 1639.44 840.199C1641.33 839.548 1643.41 839.223 1645.69 839.223C1649.21 839.223 1652.31 839.76 1655.02 840.834C1657.75 841.876 1660.06 843.422 1661.95 845.473C1663.84 847.491 1665.25 849.981 1666.2 852.943C1667.17 855.906 1667.66 859.291 1667.66 863.1C1667.66 866.16 1667.16 869.122 1666.15 871.986C1665.17 874.818 1663.66 877.374 1661.61 879.652C1659.59 881.898 1657.03 883.689 1653.94 885.023C1650.85 886.326 1647.19 886.977 1642.96 886.977C1639.8 886.977 1636.72 886.488 1633.73 885.512C1630.73 884.535 1628.03 883.135 1625.62 881.312C1623.24 879.457 1621.36 877.227 1619.96 874.623C1618.59 871.986 1617.92 869.04 1617.96 865.785H1634.51C1634.61 867.51 1635.01 869.008 1635.73 870.277C1636.44 871.547 1637.4 872.54 1638.61 873.256C1639.85 873.939 1641.26 874.281 1642.86 874.281C1644.49 874.281 1645.84 873.956 1646.91 873.305C1647.98 872.654 1648.83 871.758 1649.45 870.619C1650.07 869.48 1650.51 868.178 1650.77 866.713C1651.03 865.215 1651.16 863.637 1651.16 861.977C1651.16 860.219 1650.96 858.64 1650.57 857.24C1650.21 855.84 1649.63 854.652 1648.81 853.676C1648 852.667 1646.94 851.902 1645.64 851.381C1644.37 850.86 1642.84 850.6 1641.05 850.6C1638.67 850.6 1636.8 851.007 1635.44 851.82C1634.07 852.634 1633.08 853.464 1632.46 854.311ZM1686.8 873.793H1687.78C1691.03 873.793 1693.96 873.435 1696.57 872.719C1699.17 872.003 1701.4 870.896 1703.26 869.398C1705.11 867.868 1706.53 865.899 1707.51 863.49C1708.51 861.049 1709.02 858.103 1709.02 854.652V839.955C1709.02 837.676 1708.82 835.707 1708.43 834.047C1708.04 832.354 1707.47 830.954 1706.72 829.848C1705.98 828.741 1705.08 827.927 1704.04 827.406C1703 826.853 1701.83 826.576 1700.52 826.576C1699.22 826.576 1698.07 826.951 1697.06 827.699C1696.08 828.415 1695.23 829.392 1694.52 830.629C1693.83 831.833 1693.31 833.201 1692.96 834.73C1692.6 836.228 1692.42 837.742 1692.42 839.271C1692.42 840.997 1692.6 842.608 1692.96 844.105C1693.35 845.57 1693.9 846.856 1694.62 847.963C1695.36 849.037 1696.29 849.883 1697.4 850.502C1698.54 851.12 1699.86 851.43 1701.35 851.43C1702.85 851.43 1704.14 851.169 1705.21 850.648C1706.32 850.095 1707.23 849.379 1707.95 848.5C1708.66 847.589 1709.18 846.612 1709.51 845.57C1709.87 844.529 1710.03 843.503 1710 842.494L1714.78 846.254C1714.78 848.337 1714.31 850.388 1713.37 852.406C1712.42 854.424 1711.12 856.264 1709.46 857.924C1707.8 859.551 1705.88 860.854 1703.7 861.83C1701.55 862.807 1699.27 863.295 1696.86 863.295C1693.64 863.295 1690.73 862.725 1688.12 861.586C1685.55 860.447 1683.35 858.819 1681.53 856.703C1679.71 854.587 1678.31 852.064 1677.33 849.135C1676.39 846.173 1675.91 842.885 1675.91 839.271C1675.91 835.788 1676.52 832.517 1677.72 829.457C1678.93 826.397 1680.63 823.712 1682.85 821.4C1685.06 819.057 1687.68 817.217 1690.71 815.883C1693.74 814.548 1697.06 813.881 1700.67 813.881C1704.09 813.881 1707.29 814.532 1710.29 815.834C1713.28 817.104 1715.92 818.975 1718.2 821.449C1720.48 823.923 1722.27 826.967 1723.57 830.58C1724.87 834.193 1725.52 838.327 1725.52 842.982V848.646C1725.52 853.692 1724.9 858.249 1723.67 862.318C1722.43 866.387 1720.67 869.968 1718.39 873.061C1716.12 876.12 1713.41 878.692 1710.29 880.775C1707.2 882.826 1703.76 884.372 1699.99 885.414C1696.24 886.456 1692.27 886.977 1688.07 886.977H1686.8V873.793ZM1929.67 858.217V870.912H1878.5L1877.53 860.854L1906.09 814.906H1919.08L1904.97 838.002L1893.25 858.217H1929.67ZM1922.5 814.906V886H1906.04V814.906H1922.5ZM1952.04 843.568H1960.04C1962.1 843.568 1963.77 843.21 1965.07 842.494C1966.41 841.745 1967.4 840.704 1968.05 839.369C1968.7 838.002 1969.03 836.391 1969.03 834.535C1969.03 833.103 1968.72 831.785 1968.1 830.58C1967.52 829.376 1966.6 828.415 1965.37 827.699C1964.13 826.951 1962.55 826.576 1960.63 826.576C1959.33 826.576 1958.06 826.853 1956.82 827.406C1955.59 827.927 1954.56 828.676 1953.75 829.652C1952.96 830.629 1952.57 831.817 1952.57 833.217H1936.07C1936.07 829.18 1937.18 825.73 1939.39 822.865C1941.64 819.968 1944.58 817.755 1948.23 816.225C1951.91 814.662 1955.86 813.881 1960.09 813.881C1965.14 813.881 1969.57 814.662 1973.38 816.225C1977.18 817.755 1980.15 820.033 1982.26 823.061C1984.41 826.055 1985.48 829.766 1985.48 834.193C1985.48 836.635 1984.91 838.93 1983.78 841.078C1982.64 843.227 1981.04 845.115 1978.99 846.742C1976.94 848.37 1974.53 849.656 1971.76 850.6C1969.03 851.511 1966.03 851.967 1962.78 851.967H1952.04V843.568ZM1952.04 855.824V847.621H1962.78C1966.33 847.621 1969.57 848.028 1972.5 848.842C1975.43 849.623 1977.95 850.795 1980.06 852.357C1982.18 853.92 1983.81 855.857 1984.95 858.168C1986.09 860.447 1986.66 863.067 1986.66 866.029C1986.66 869.35 1985.99 872.312 1984.65 874.916C1983.32 877.52 1981.45 879.717 1979.04 881.508C1976.63 883.298 1973.81 884.665 1970.59 885.609C1967.37 886.521 1963.87 886.977 1960.09 886.977C1957.13 886.977 1954.17 886.586 1951.21 885.805C1948.24 884.991 1945.54 883.754 1943.1 882.094C1940.66 880.401 1938.69 878.253 1937.19 875.648C1935.73 873.012 1935 869.87 1935 866.225H1951.5C1951.5 867.722 1951.91 869.089 1952.72 870.326C1953.57 871.531 1954.69 872.491 1956.09 873.207C1957.49 873.923 1959 874.281 1960.63 874.281C1962.65 874.281 1964.36 873.907 1965.76 873.158C1967.19 872.377 1968.28 871.335 1969.03 870.033C1969.78 868.731 1970.15 867.283 1970.15 865.688C1970.15 863.279 1969.75 861.358 1968.93 859.926C1968.15 858.493 1966.99 857.452 1965.46 856.801C1963.97 856.15 1962.16 855.824 1960.04 855.824H1952.04ZM2189.68 814.906V886H2173.23V833.461L2157.02 838.197V825.697L2188.17 814.906H2189.68ZM2248.33 813.881H2250.96V826.82H2250.08C2246.93 826.82 2243.96 827.26 2241.2 828.139C2238.46 829.018 2236.05 830.352 2233.97 832.143C2231.92 833.9 2230.31 836.13 2229.14 838.832C2228 841.534 2227.43 844.708 2227.43 848.354V860.805C2227.43 863.083 2227.62 865.069 2228.01 866.762C2228.4 868.454 2228.99 869.854 2229.77 870.961C2230.55 872.068 2231.51 872.898 2232.65 873.451C2233.82 874.005 2235.18 874.281 2236.71 874.281C2237.97 874.281 2239.15 873.988 2240.22 873.402C2241.29 872.816 2242.22 871.986 2243 870.912C2243.82 869.838 2244.44 868.585 2244.86 867.152C2245.28 865.72 2245.49 864.158 2245.49 862.465C2245.49 860.642 2245.27 858.998 2244.81 857.533C2244.35 856.068 2243.7 854.831 2242.86 853.822C2242.04 852.781 2241.05 851.999 2239.88 851.479C2238.74 850.925 2237.49 850.648 2236.12 850.648C2234.04 850.648 2232.26 851.12 2230.8 852.064C2229.36 852.976 2228.27 854.148 2227.53 855.58C2226.81 857.012 2226.45 858.461 2226.45 859.926L2222.5 855.922C2222.43 853.969 2222.81 851.951 2223.62 849.867C2224.43 847.784 2225.65 845.847 2227.28 844.057C2228.91 842.266 2230.94 840.818 2233.38 839.711C2235.83 838.604 2238.66 838.051 2241.88 838.051C2245.14 838.051 2248 838.669 2250.47 839.906C2252.98 841.143 2255.08 842.868 2256.77 845.082C2258.5 847.296 2259.8 849.883 2260.68 852.846C2261.56 855.808 2262 859.014 2262 862.465C2262 865.948 2261.38 869.187 2260.14 872.182C2258.94 875.144 2257.23 877.732 2255.02 879.945C2252.8 882.159 2250.18 883.884 2247.15 885.121C2244.13 886.358 2240.79 886.977 2237.14 886.977C2233.4 886.977 2229.93 886.342 2226.74 885.072C2223.59 883.77 2220.82 881.898 2218.44 879.457C2216.1 876.983 2214.26 873.972 2212.93 870.424C2211.62 866.876 2210.97 862.855 2210.97 858.363V852.357C2210.97 846.27 2211.97 840.85 2213.95 836.098C2215.97 831.345 2218.7 827.325 2222.15 824.037C2225.64 820.717 2229.62 818.194 2234.12 816.469C2238.61 814.743 2243.35 813.881 2248.33 813.881Z" fill="#D88A0E"/>
<path d="M1816.59 848.988V861.732H1787.24V848.988H1816.59ZM2091.98 838.051V850.746H2046.71V838.051H2091.98ZM2091.98 859.486V872.182H2046.71V859.486H2091.98Z" fill="#FFBC51"/>
</g>
<defs>
<clipPath id="clip0_12_379">
<rect width="3890" height="950" fill="white"/>
</clipPath>
</defs>
</svg>
