<svg width="1892" height="1051" viewBox="0 0 1892 1051" fill="none" xmlns="http://www.w3.org/2000/svg">
<rect x="1021" y="511" width="820.156" height="411.361" rx="90" fill="#BFE0A9" stroke="#8DC26A" stroke-width="20"/>
<path d="M1264.79 733.442V743.989H1234.48V733.442H1264.79ZM1239.36 687.114V743.989H1225.65V687.114H1239.36ZM1260.88 709.692V719.887H1234.48V709.692H1260.88ZM1264.91 687.114V697.7H1234.48V687.114H1264.91ZM1294.52 699.067L1280.65 743.989H1265.92L1286.82 687.114H1296.16L1294.52 699.067ZM1306 743.989L1292.09 699.067L1290.3 687.114H1299.75L1320.77 743.989H1306ZM1305.45 722.778V733.364H1276.27V722.778H1305.45ZM1354.24 728.872C1354.24 727.986 1354.11 727.192 1353.85 726.489C1353.59 725.76 1353.11 725.083 1352.41 724.458C1351.7 723.833 1350.69 723.208 1349.36 722.583C1348.06 721.932 1346.34 721.255 1344.2 720.551C1341.7 719.718 1339.29 718.781 1336.98 717.739C1334.66 716.671 1332.59 715.434 1330.77 714.028C1328.94 712.596 1327.5 710.929 1326.43 709.028C1325.36 707.101 1324.83 704.861 1324.83 702.309C1324.83 699.861 1325.37 697.661 1326.47 695.708C1327.56 693.728 1329.09 692.049 1331.04 690.669C1333.02 689.262 1335.34 688.195 1337.99 687.465C1340.65 686.71 1343.55 686.333 1346.7 686.333C1350.87 686.333 1354.54 687.062 1357.72 688.52C1360.92 689.952 1363.42 691.997 1365.22 694.653C1367.04 697.283 1367.95 700.395 1367.95 703.989H1354.32C1354.32 702.557 1354.02 701.294 1353.42 700.2C1352.85 699.106 1351.98 698.247 1350.8 697.622C1349.63 696.997 1348.16 696.684 1346.39 696.684C1344.67 696.684 1343.23 696.945 1342.05 697.465C1340.88 697.986 1340 698.689 1339.4 699.575C1338.8 700.434 1338.5 701.385 1338.5 702.426C1338.5 703.286 1338.73 704.067 1339.2 704.77C1339.7 705.447 1340.39 706.085 1341.27 706.684C1342.18 707.283 1343.28 707.856 1344.55 708.403C1345.86 708.95 1347.31 709.484 1348.93 710.005C1351.95 710.968 1354.63 712.049 1356.98 713.247C1359.35 714.419 1361.34 715.76 1362.95 717.27C1364.59 718.755 1365.83 720.447 1366.66 722.348C1367.52 724.249 1367.95 726.398 1367.95 728.794C1367.95 731.346 1367.46 733.611 1366.47 735.59C1365.48 737.57 1364.06 739.249 1362.21 740.63C1360.36 741.984 1358.15 743.012 1355.57 743.715C1352.99 744.419 1350.11 744.77 1346.94 744.77C1344.02 744.77 1341.14 744.406 1338.3 743.676C1335.49 742.921 1332.94 741.775 1330.65 740.239C1328.36 738.676 1326.52 736.684 1325.14 734.262C1323.79 731.814 1323.11 728.911 1323.11 725.551H1336.86C1336.86 727.218 1337.08 728.624 1337.52 729.77C1337.97 730.916 1338.62 731.84 1339.48 732.544C1340.34 733.221 1341.39 733.715 1342.64 734.028C1343.89 734.314 1345.32 734.458 1346.94 734.458C1348.68 734.458 1350.09 734.21 1351.16 733.715C1352.22 733.195 1353.01 732.518 1353.5 731.684C1353.99 730.825 1354.24 729.887 1354.24 728.872ZM1385.34 687.114L1395.8 711.801L1406.31 687.114H1421.08L1402.8 723.559V743.989H1388.85V723.559L1370.53 687.114H1385.34ZM1458.3 738.833L1469.63 687.114H1476.39L1480.06 691.528L1467.99 743.989H1460.53L1458.3 738.833ZM1455.3 687.114L1464.87 739.223L1462.41 743.989H1453.77L1441.7 687.114H1455.3ZM1486.27 738.95L1495.77 687.114H1509.32L1497.25 743.989H1488.66L1486.27 738.95ZM1481.27 687.114L1492.87 739.145L1490.53 743.989H1483.07L1470.73 691.45L1474.55 687.114H1481.27ZM1529.28 687.114V743.989H1515.61V687.114H1529.28ZM1586.43 687.114V743.989H1572.76L1552.64 708.598V743.989H1538.93V687.114H1552.64L1572.76 722.505V687.114H1586.43ZM1624.4 728.872C1624.4 727.986 1624.27 727.192 1624.01 726.489C1623.75 725.76 1623.27 725.083 1622.56 724.458C1621.86 723.833 1620.84 723.208 1619.52 722.583C1618.21 721.932 1616.49 721.255 1614.36 720.551C1611.86 719.718 1609.45 718.781 1607.13 717.739C1604.81 716.671 1602.74 715.434 1600.92 714.028C1599.1 712.596 1597.65 710.929 1596.59 709.028C1595.52 707.101 1594.98 704.861 1594.98 702.309C1594.98 699.861 1595.53 697.661 1596.62 695.708C1597.72 693.728 1599.24 692.049 1601.2 690.669C1603.17 689.262 1605.49 688.195 1608.15 687.465C1610.8 686.71 1613.71 686.333 1616.86 686.333C1621.03 686.333 1624.7 687.062 1627.87 688.52C1631.08 689.952 1633.58 691.997 1635.37 694.653C1637.2 697.283 1638.11 700.395 1638.11 703.989H1624.48C1624.48 702.557 1624.18 701.294 1623.58 700.2C1623.01 699.106 1622.13 698.247 1620.96 697.622C1619.79 696.997 1618.32 696.684 1616.55 696.684C1614.83 696.684 1613.38 696.945 1612.21 697.465C1611.04 697.986 1610.15 698.689 1609.55 699.575C1608.96 700.434 1608.66 701.385 1608.66 702.426C1608.66 703.286 1608.89 704.067 1609.36 704.77C1609.85 705.447 1610.54 706.085 1611.43 706.684C1612.34 707.283 1613.43 707.856 1614.71 708.403C1616.01 708.95 1617.47 709.484 1619.09 710.005C1622.11 710.968 1624.79 712.049 1627.13 713.247C1629.5 714.419 1631.49 715.76 1633.11 717.27C1634.75 718.755 1635.99 720.447 1636.82 722.348C1637.68 724.249 1638.11 726.398 1638.11 728.794C1638.11 731.346 1637.61 733.611 1636.62 735.59C1635.64 737.57 1634.22 739.249 1632.37 740.63C1630.52 741.984 1628.3 743.012 1625.73 743.715C1623.15 744.419 1620.27 744.77 1617.09 744.77C1614.18 744.77 1611.3 744.406 1608.46 743.676C1605.65 742.921 1603.1 741.775 1600.8 740.239C1598.51 738.676 1596.68 736.684 1595.3 734.262C1593.94 731.814 1593.27 728.911 1593.27 725.551H1607.02C1607.02 727.218 1607.24 728.624 1607.68 729.77C1608.12 730.916 1608.77 731.84 1609.63 732.544C1610.49 733.221 1611.55 733.715 1612.8 734.028C1614.05 734.314 1615.48 734.458 1617.09 734.458C1618.84 734.458 1620.24 734.21 1621.31 733.715C1622.38 733.195 1623.16 732.518 1623.66 731.684C1624.15 730.825 1624.4 729.887 1624.4 728.872Z" fill="#5D884F"/>
<rect x="131" y="29" width="820.156" height="411.361" rx="90" fill="#FEB1A0" stroke="#FF7A5C" stroke-width="20"/>
<path d="M352.417 205.275V262.15H338.706V205.275H352.417ZM369.526 205.275V215.861H321.987V205.275H369.526ZM389.917 205.275V262.15H376.245V205.275H389.917ZM406.362 205.275H417.534L430.229 244.845L442.924 205.275H454.096L434.76 262.15H425.698L406.362 205.275ZM399.565 205.275H411.128L413.276 248.869V262.15H399.565V205.275ZM449.331 205.275H460.932V262.15H447.182V248.869L449.331 205.275ZM508.862 251.603V262.15H478.549V251.603H508.862ZM483.432 205.275V262.15H469.721V205.275H483.432ZM504.956 227.853V238.048H478.549V227.853H504.956ZM508.979 205.275V215.861H478.549V205.275H508.979ZM563.706 247.033C563.706 246.147 563.575 245.353 563.315 244.65C563.055 243.921 562.573 243.244 561.87 242.619C561.167 241.994 560.151 241.369 558.823 240.744C557.521 240.093 555.802 239.416 553.667 238.713C551.167 237.879 548.758 236.942 546.44 235.9C544.122 234.832 542.052 233.595 540.229 232.189C538.406 230.757 536.961 229.09 535.893 227.189C534.825 225.262 534.292 223.022 534.292 220.47C534.292 218.022 534.839 215.822 535.932 213.869C537.026 211.89 538.549 210.21 540.503 208.83C542.482 207.423 544.799 206.356 547.456 205.627C550.112 204.871 553.016 204.494 556.167 204.494C560.333 204.494 564.005 205.223 567.182 206.681C570.385 208.114 572.885 210.158 574.682 212.814C576.505 215.444 577.417 218.556 577.417 222.15H563.784C563.784 220.718 563.484 219.455 562.885 218.361C562.312 217.267 561.44 216.408 560.268 215.783C559.096 215.158 557.625 214.845 555.854 214.845C554.135 214.845 552.69 215.106 551.518 215.627C550.346 216.147 549.461 216.851 548.862 217.736C548.263 218.595 547.964 219.546 547.964 220.588C547.964 221.447 548.198 222.228 548.667 222.931C549.161 223.608 549.852 224.246 550.737 224.845C551.648 225.444 552.742 226.017 554.018 226.564C555.32 227.111 556.779 227.645 558.393 228.166C561.414 229.129 564.096 230.21 566.44 231.408C568.81 232.58 570.802 233.921 572.417 235.431C574.057 236.916 575.294 238.608 576.128 240.509C576.987 242.41 577.417 244.559 577.417 246.955C577.417 249.507 576.922 251.772 575.932 253.752C574.943 255.731 573.523 257.41 571.674 258.791C569.825 260.145 567.612 261.173 565.034 261.877C562.456 262.58 559.578 262.931 556.401 262.931C553.484 262.931 550.607 262.567 547.768 261.838C544.956 261.082 542.404 259.936 540.112 258.4C537.82 256.838 535.984 254.845 534.604 252.423C533.25 249.976 532.573 247.072 532.573 243.713H546.323C546.323 245.379 546.544 246.785 546.987 247.931C547.43 249.077 548.081 250.002 548.94 250.705C549.799 251.382 550.854 251.877 552.104 252.189C553.354 252.476 554.786 252.619 556.401 252.619C558.146 252.619 559.552 252.371 560.62 251.877C561.687 251.356 562.469 250.679 562.964 249.845C563.458 248.986 563.706 248.048 563.706 247.033ZM599.057 205.275V262.15H585.385V205.275H599.057ZM656.206 205.275V262.15H642.534L622.417 226.759V262.15H608.706V205.275H622.417L642.534 240.666V205.275H656.206ZM678.589 205.275V262.15H664.878V205.275H678.589ZM712.534 205.275L690.503 234.103L677.612 248.205L675.112 235.627L683.354 223.127L695.62 205.275H712.534ZM696.323 262.15L681.635 236.525L692.299 228.673L712.534 262.15H696.323ZM745.346 247.033C745.346 246.147 745.216 245.353 744.956 244.65C744.695 243.921 744.214 243.244 743.51 242.619C742.807 241.994 741.792 241.369 740.464 240.744C739.161 240.093 737.443 239.416 735.307 238.713C732.807 237.879 730.398 236.942 728.081 235.9C725.763 234.832 723.693 233.595 721.87 232.189C720.047 230.757 718.602 229.09 717.534 227.189C716.466 225.262 715.932 223.022 715.932 220.47C715.932 218.022 716.479 215.822 717.573 213.869C718.667 211.89 720.19 210.21 722.143 208.83C724.122 207.423 726.44 206.356 729.096 205.627C731.753 204.871 734.656 204.494 737.807 204.494C741.974 204.494 745.646 205.223 748.823 206.681C752.026 208.114 754.526 210.158 756.323 212.814C758.146 215.444 759.057 218.556 759.057 222.15H745.424C745.424 220.718 745.125 219.455 744.526 218.361C743.953 217.267 743.081 216.408 741.909 215.783C740.737 215.158 739.266 214.845 737.495 214.845C735.776 214.845 734.331 215.106 733.159 215.627C731.987 216.147 731.102 216.851 730.503 217.736C729.904 218.595 729.604 219.546 729.604 220.588C729.604 221.447 729.839 222.228 730.307 222.931C730.802 223.608 731.492 224.246 732.378 224.845C733.289 225.444 734.383 226.017 735.659 226.564C736.961 227.111 738.419 227.645 740.034 228.166C743.055 229.129 745.737 230.21 748.081 231.408C750.45 232.58 752.443 233.921 754.057 235.431C755.698 236.916 756.935 238.608 757.768 240.509C758.628 242.41 759.057 244.559 759.057 246.955C759.057 249.507 758.562 251.772 757.573 253.752C756.583 255.731 755.164 257.41 753.315 258.791C751.466 260.145 749.253 261.173 746.674 261.877C744.096 262.58 741.219 262.931 738.042 262.931C735.125 262.931 732.247 262.567 729.409 261.838C726.596 261.082 724.044 259.936 721.753 258.4C719.461 256.838 717.625 254.845 716.245 252.423C714.891 249.976 714.214 247.072 714.214 243.713H727.964C727.964 245.379 728.185 246.785 728.628 247.931C729.07 249.077 729.721 250.002 730.581 250.705C731.44 251.382 732.495 251.877 733.745 252.189C734.995 252.476 736.427 252.619 738.042 252.619C739.786 252.619 741.193 252.371 742.26 251.877C743.328 251.356 744.109 250.679 744.604 249.845C745.099 248.986 745.346 248.048 745.346 247.033Z" fill="#CC5129"/>
<rect x="1021" y="29" width="820.156" height="411.361" rx="90" fill="#CBA7F6" stroke="#A673E5" stroke-width="20"/>
<path d="M1175.43 205.133V262.008H1161.76V205.133H1175.43ZM1232.58 205.133V262.008H1218.91L1198.79 226.618V262.008H1185.08V205.133H1198.79L1218.91 240.524V205.133H1232.58ZM1262.78 248.61L1274.61 205.133H1289.97L1270.79 262.008H1260.86L1262.78 248.61ZM1252.04 205.133L1263.87 248.61L1265.86 262.008H1255.82L1236.76 205.133H1252.04ZM1333.29 251.461V262.008H1302.97V251.461H1333.29ZM1307.86 205.133V262.008H1294.14V205.133H1307.86ZM1329.38 227.711V237.907H1302.97V227.711H1329.38ZM1333.4 205.133V215.719H1302.97V205.133H1333.4ZM1368.21 246.891C1368.21 246.006 1368.08 245.211 1367.82 244.508C1367.56 243.779 1367.07 243.102 1366.37 242.477C1365.67 241.852 1364.65 241.227 1363.32 240.602C1362.02 239.951 1360.3 239.274 1358.17 238.571C1355.67 237.738 1353.26 236.8 1350.94 235.758C1348.62 234.691 1346.55 233.454 1344.73 232.047C1342.91 230.615 1341.46 228.948 1340.39 227.047C1339.33 225.12 1338.79 222.881 1338.79 220.329C1338.79 217.881 1339.34 215.68 1340.43 213.727C1341.53 211.748 1343.05 210.068 1345 208.688C1346.98 207.282 1349.3 206.214 1351.96 205.485C1354.61 204.73 1357.52 204.352 1360.67 204.352C1364.83 204.352 1368.51 205.081 1371.68 206.54C1374.89 207.972 1377.39 210.016 1379.18 212.672C1381.01 215.303 1381.92 218.415 1381.92 222.008H1368.29C1368.29 220.576 1367.99 219.313 1367.39 218.219C1366.81 217.126 1365.94 216.266 1364.77 215.641C1363.6 215.016 1362.13 214.704 1360.36 214.704C1358.64 214.704 1357.19 214.964 1356.02 215.485C1354.85 216.006 1353.96 216.709 1353.36 217.594C1352.76 218.454 1352.47 219.404 1352.47 220.446C1352.47 221.305 1352.7 222.086 1353.17 222.79C1353.66 223.467 1354.35 224.105 1355.24 224.704C1356.15 225.303 1357.24 225.876 1358.52 226.422C1359.82 226.969 1361.28 227.503 1362.89 228.024C1365.92 228.988 1368.6 230.068 1370.94 231.266C1373.31 232.438 1375.3 233.779 1376.92 235.29C1378.56 236.774 1379.8 238.467 1380.63 240.368C1381.49 242.269 1381.92 244.417 1381.92 246.813C1381.92 249.365 1381.42 251.631 1380.43 253.61C1379.44 255.589 1378.03 257.269 1376.18 258.649C1374.33 260.003 1372.11 261.032 1369.54 261.735C1366.96 262.438 1364.08 262.79 1360.9 262.79C1357.99 262.79 1355.11 262.425 1352.27 261.696C1349.46 260.941 1346.91 259.795 1344.61 258.258C1342.32 256.696 1340.49 254.704 1339.11 252.282C1337.75 249.834 1337.07 246.93 1337.07 243.571H1350.82C1350.82 245.238 1351.05 246.644 1351.49 247.79C1351.93 248.935 1352.58 249.86 1353.44 250.563C1354.3 251.24 1355.36 251.735 1356.61 252.047C1357.86 252.334 1359.29 252.477 1360.9 252.477C1362.65 252.477 1364.05 252.23 1365.12 251.735C1366.19 251.214 1366.97 250.537 1367.47 249.704C1367.96 248.844 1368.21 247.907 1368.21 246.891ZM1416.53 205.133V262.008H1402.82V205.133H1416.53ZM1433.64 205.133V215.719H1386.1V205.133H1433.64ZM1446.25 205.133H1457.43L1470.12 244.704L1482.82 205.133H1493.99L1474.65 262.008H1465.59L1446.25 205.133ZM1439.46 205.133H1451.02L1453.17 248.727V262.008H1439.46V205.133ZM1489.22 205.133H1500.82V262.008H1487.07V248.727L1489.22 205.133ZM1548.75 251.461V262.008H1518.44V251.461H1548.75ZM1523.32 205.133V262.008H1509.61V205.133H1523.32ZM1544.85 227.711V237.907H1518.44V227.711H1544.85ZM1548.87 205.133V215.719H1518.44V205.133H1548.87ZM1601.88 205.133V262.008H1588.21L1568.09 226.618V262.008H1554.38V205.133H1568.09L1588.21 240.524V205.133H1601.88ZM1636.92 205.133V262.008H1623.21V205.133H1636.92ZM1654.03 205.133V215.719H1606.49V205.133H1654.03ZM1688.52 246.891C1688.52 246.006 1688.39 245.211 1688.13 244.508C1687.87 243.779 1687.39 243.102 1686.68 242.477C1685.98 241.852 1684.97 241.227 1683.64 240.602C1682.34 239.951 1680.62 239.274 1678.48 238.571C1675.98 237.738 1673.57 236.8 1671.25 235.758C1668.94 234.691 1666.87 233.454 1665.04 232.047C1663.22 230.615 1661.78 228.948 1660.71 227.047C1659.64 225.12 1659.11 222.881 1659.11 220.329C1659.11 217.881 1659.65 215.68 1660.75 213.727C1661.84 211.748 1663.36 210.068 1665.32 208.688C1667.3 207.282 1669.61 206.214 1672.27 205.485C1674.93 204.73 1677.83 204.352 1680.98 204.352C1685.15 204.352 1688.82 205.081 1692 206.54C1695.2 207.972 1697.7 210.016 1699.5 212.672C1701.32 215.303 1702.23 218.415 1702.23 222.008H1688.6C1688.6 220.576 1688.3 219.313 1687.7 218.219C1687.13 217.126 1686.25 216.266 1685.08 215.641C1683.91 215.016 1682.44 214.704 1680.67 214.704C1678.95 214.704 1677.5 214.964 1676.33 215.485C1675.16 216.006 1674.28 216.709 1673.68 217.594C1673.08 218.454 1672.78 219.404 1672.78 220.446C1672.78 221.305 1673.01 222.086 1673.48 222.79C1673.98 223.467 1674.67 224.105 1675.55 224.704C1676.46 225.303 1677.56 225.876 1678.83 226.422C1680.13 226.969 1681.59 227.503 1683.21 228.024C1686.23 228.988 1688.91 230.068 1691.25 231.266C1693.62 232.438 1695.62 233.779 1697.23 235.29C1698.87 236.774 1700.11 238.467 1700.94 240.368C1701.8 242.269 1702.23 244.417 1702.23 246.813C1702.23 249.365 1701.74 251.631 1700.75 253.61C1699.76 255.589 1698.34 257.269 1696.49 258.649C1694.64 260.003 1692.43 261.032 1689.85 261.735C1687.27 262.438 1684.39 262.79 1681.22 262.79C1678.3 262.79 1675.42 262.425 1672.58 261.696C1669.77 260.941 1667.22 259.795 1664.93 258.258C1662.63 256.696 1660.8 254.704 1659.42 252.282C1658.06 249.834 1657.39 246.93 1657.39 243.571H1671.14C1671.14 245.238 1671.36 246.644 1671.8 247.79C1672.24 248.935 1672.89 249.86 1673.75 250.563C1674.61 251.24 1675.67 251.735 1676.92 252.047C1678.17 252.334 1679.6 252.477 1681.22 252.477C1682.96 252.477 1684.37 252.23 1685.43 251.735C1686.5 251.214 1687.28 250.537 1687.78 249.704C1688.27 248.844 1688.52 247.907 1688.52 246.891Z" fill="#56298E"/>
<rect x="131" y="510.639" width="820.156" height="411.361" rx="90" fill="#A3E7F1" stroke="#55CEE0" stroke-width="20"/>
<path d="M422.25 724.023H435.922C435.74 727.982 434.672 731.471 432.719 734.492C430.766 737.513 428.057 739.87 424.594 741.562C421.156 743.229 417.094 744.062 412.406 744.062C408.604 744.062 405.206 743.424 402.211 742.148C399.242 740.872 396.716 739.036 394.633 736.64C392.576 734.245 391 731.341 389.906 727.929C388.839 724.518 388.305 720.677 388.305 716.406V713.32C388.305 709.049 388.865 705.208 389.984 701.797C391.13 698.359 392.745 695.442 394.828 693.047C396.938 690.625 399.464 688.776 402.406 687.5C405.349 686.224 408.617 685.586 412.211 685.586C417.159 685.586 421.339 686.471 424.75 688.242C428.162 690.013 430.805 692.448 432.68 695.547C434.555 698.62 435.662 702.122 436 706.054H422.328C422.276 703.919 421.912 702.135 421.234 700.703C420.557 699.245 419.49 698.151 418.031 697.422C416.573 696.692 414.633 696.328 412.211 696.328C410.518 696.328 409.047 696.64 407.797 697.265C406.547 697.89 405.505 698.88 404.672 700.234C403.839 701.588 403.214 703.346 402.797 705.508C402.406 707.643 402.211 710.221 402.211 713.242V716.406C402.211 719.427 402.393 722.005 402.758 724.14C403.122 726.276 403.708 728.021 404.516 729.375C405.323 730.729 406.365 731.732 407.641 732.383C408.943 733.008 410.531 733.32 412.406 733.32C414.49 733.32 416.247 732.995 417.68 732.343C419.112 731.666 420.219 730.651 421 729.297C421.781 727.916 422.198 726.159 422.25 724.023ZM480.727 708.984V719.531H451.547V708.984H480.727ZM456.117 686.406V743.281H442.406V686.406H456.117ZM489.945 686.406V743.281H476.274V686.406H489.945ZM546.781 713.711V716.015C546.781 720.364 546.169 724.271 544.945 727.734C543.747 731.172 542.042 734.114 539.828 736.562C537.615 738.984 534.997 740.846 531.977 742.148C528.956 743.424 525.622 744.062 521.977 744.062C518.305 744.062 514.945 743.424 511.899 742.148C508.878 740.846 506.247 738.984 504.008 736.562C501.794 734.114 500.076 731.172 498.852 727.734C497.654 724.271 497.055 720.364 497.055 716.015V713.711C497.055 709.362 497.654 705.455 498.852 701.992C500.076 698.528 501.781 695.586 503.969 693.164C506.182 690.716 508.8 688.854 511.82 687.578C514.867 686.276 518.227 685.625 521.899 685.625C525.544 685.625 528.878 686.276 531.899 687.578C534.945 688.854 537.576 690.716 539.789 693.164C542.003 695.586 543.721 698.528 544.945 701.992C546.169 705.455 546.781 709.362 546.781 713.711ZM532.875 716.015V713.633C532.875 710.82 532.628 708.346 532.133 706.211C531.664 704.049 530.961 702.239 530.024 700.781C529.086 699.323 527.927 698.229 526.547 697.5C525.193 696.745 523.643 696.367 521.899 696.367C520.076 696.367 518.487 696.745 517.133 697.5C515.779 698.229 514.646 699.323 513.734 700.781C512.823 702.239 512.133 704.049 511.664 706.211C511.221 708.346 511 710.82 511 713.633V716.015C511 718.802 511.221 721.276 511.664 723.437C512.133 725.573 512.823 727.383 513.734 728.867C514.672 730.351 515.818 731.471 517.172 732.226C518.552 732.982 520.154 733.359 521.977 733.359C523.721 733.359 525.271 732.982 526.625 732.226C527.979 731.471 529.112 730.351 530.024 728.867C530.961 727.383 531.664 725.573 532.133 723.437C532.628 721.276 532.875 718.802 532.875 716.015ZM553.891 686.406H576.274C580.649 686.406 584.451 687.057 587.68 688.359C590.909 689.661 593.396 691.588 595.141 694.14C596.912 696.692 597.797 699.843 597.797 703.593C597.797 706.849 597.289 709.57 596.274 711.758C595.258 713.945 593.839 715.755 592.016 717.187C590.219 718.593 588.122 719.752 585.727 720.664L581.234 723.203H562.445L562.367 712.617H576.274C578.018 712.617 579.464 712.304 580.609 711.679C581.755 711.054 582.615 710.169 583.188 709.023C583.787 707.851 584.086 706.458 584.086 704.843C584.086 703.203 583.787 701.797 583.188 700.625C582.589 699.453 581.703 698.554 580.531 697.929C579.385 697.304 577.966 696.992 576.274 696.992H567.602V743.281H553.891V686.406ZM585.024 743.281L572.445 718.125L586.977 718.047L599.711 742.695V743.281H585.024ZM645.219 732.734V743.281H614.906V732.734H645.219ZM619.789 686.406V743.281H606.078V686.406H619.789ZM641.313 708.984V719.179H614.906V708.984H641.313ZM645.336 686.406V696.992H614.906V686.406H645.336ZM680.141 728.164C680.141 727.278 680.01 726.484 679.75 725.781C679.49 725.052 679.008 724.375 678.305 723.75C677.602 723.125 676.586 722.5 675.258 721.875C673.956 721.224 672.237 720.547 670.102 719.843C667.602 719.01 665.193 718.073 662.875 717.031C660.557 715.963 658.487 714.726 656.664 713.32C654.841 711.888 653.396 710.221 652.328 708.32C651.26 706.393 650.727 704.153 650.727 701.601C650.727 699.153 651.273 696.953 652.367 695C653.461 693.021 654.984 691.341 656.938 689.961C658.917 688.554 661.234 687.487 663.891 686.758C666.547 686.002 669.451 685.625 672.602 685.625C676.768 685.625 680.44 686.354 683.617 687.812C686.82 689.245 689.32 691.289 691.117 693.945C692.94 696.575 693.852 699.687 693.852 703.281H680.219C680.219 701.849 679.919 700.586 679.32 699.492C678.747 698.398 677.875 697.539 676.703 696.914C675.531 696.289 674.06 695.976 672.289 695.976C670.57 695.976 669.125 696.237 667.953 696.758C666.781 697.278 665.896 697.982 665.297 698.867C664.698 699.726 664.398 700.677 664.398 701.718C664.398 702.578 664.633 703.359 665.102 704.062C665.596 704.739 666.287 705.377 667.172 705.976C668.083 706.575 669.177 707.148 670.453 707.695C671.755 708.242 673.214 708.776 674.828 709.297C677.849 710.26 680.531 711.341 682.875 712.539C685.245 713.711 687.237 715.052 688.852 716.562C690.492 718.047 691.729 719.739 692.563 721.64C693.422 723.541 693.852 725.69 693.852 728.086C693.852 730.638 693.357 732.903 692.367 734.883C691.378 736.862 689.958 738.541 688.109 739.922C686.26 741.276 684.047 742.304 681.469 743.008C678.891 743.711 676.013 744.062 672.836 744.062C669.919 744.062 667.042 743.698 664.203 742.968C661.391 742.213 658.839 741.067 656.547 739.531C654.255 737.968 652.419 735.976 651.039 733.554C649.685 731.107 649.008 728.203 649.008 724.843H662.758C662.758 726.51 662.979 727.916 663.422 729.062C663.865 730.208 664.516 731.133 665.375 731.836C666.234 732.513 667.289 733.008 668.539 733.32C669.789 733.607 671.221 733.75 672.836 733.75C674.581 733.75 675.987 733.502 677.055 733.008C678.122 732.487 678.904 731.81 679.398 730.976C679.893 730.117 680.141 729.179 680.141 728.164Z" fill="#2478A8"/>
<path d="M856.655 1023.82H842.007L841.928 1014.84H853.803C855.939 1014.84 857.645 1014.6 858.921 1014.13C860.197 1013.64 861.121 1012.92 861.694 1011.98C862.293 1011.05 862.592 1009.88 862.592 1008.47C862.592 1006.85 862.293 1005.55 861.694 1004.56C861.095 1003.57 860.145 1002.86 858.842 1002.41C857.566 1001.95 855.913 1001.71 853.882 1001.71H847.163V1048H833.452V991.125H853.882C857.397 991.125 860.535 991.451 863.296 992.102C866.056 992.727 868.4 993.69 870.327 994.992C872.28 996.294 873.764 997.935 874.78 999.914C875.796 1001.87 876.303 1004.17 876.303 1006.83C876.303 1009.15 875.809 1011.32 874.819 1013.35C873.829 1015.38 872.176 1017.04 869.858 1018.31C867.566 1019.56 864.428 1020.21 860.444 1020.27L856.655 1023.82ZM856.108 1048H838.686L843.374 1037.45H856.108C857.983 1037.45 859.48 1037.17 860.6 1036.59C861.746 1035.99 862.566 1035.21 863.061 1034.25C863.582 1033.26 863.842 1032.17 863.842 1030.97C863.842 1029.51 863.595 1028.25 863.1 1027.18C862.632 1026.11 861.876 1025.29 860.835 1024.72C859.793 1024.12 858.4 1023.82 856.655 1023.82H845.132L845.21 1014.84H858.999L862.202 1018.43C866.004 1018.27 869.012 1018.81 871.225 1020.03C873.465 1021.26 875.066 1022.87 876.03 1024.88C876.993 1026.88 877.475 1028.98 877.475 1031.16C877.475 1034.89 876.668 1038 875.053 1040.5C873.465 1043 871.082 1044.88 867.905 1046.12C864.728 1047.38 860.796 1048 856.108 1048ZM924.233 1037.45V1048H893.921V1037.45H924.233ZM898.803 991.125V1048H885.092V991.125H898.803ZM920.327 1013.7V1023.9H893.921V1013.7H920.327ZM924.35 991.125V1001.71H893.921V991.125H924.35ZM977.358 991.125V1048H963.686L943.569 1012.61V1048H929.858V991.125H943.569L963.686 1026.52V991.125H977.358ZM1025.17 1037.45V1048H994.858V1037.45H1025.17ZM999.741 991.125V1048H986.03V991.125H999.741ZM1021.26 1013.7V1023.9H994.858V1013.7H1021.26ZM1025.29 991.125V1001.71H994.858V991.125H1025.29ZM1044.51 991.125V1048H1030.8V991.125H1044.51ZM1066.62 1014.8V1025.34H1040.6V1014.8H1066.62ZM1068.84 991.125V1001.71H1040.6V991.125H1068.84ZM1089.12 991.125V1048H1075.44V991.125H1089.12ZM1125.13 991.125V1048H1111.42V991.125H1125.13ZM1142.24 991.125V1001.71H1094.7V991.125H1142.24Z" fill="#FFBC51"/>
<path d="M38.7422 543.882V530.21C42.7005 530.392 46.1901 531.46 49.2109 533.413C52.2318 535.366 54.5885 538.074 56.2813 541.538C57.9479 544.975 58.7813 549.038 58.7813 553.725C58.7813 557.527 58.1432 560.926 56.8672 563.921C55.5911 566.889 53.7552 569.415 51.3594 571.499C48.9635 573.556 46.0599 575.132 42.6484 576.225C39.237 577.293 35.3958 577.827 31.125 577.827H28.0391C23.7682 577.827 19.9271 577.267 16.5156 576.147C13.0781 575.001 10.1615 573.387 7.76563 571.303C5.34375 569.194 3.49479 566.668 2.21875 563.725C0.942708 560.783 0.304688 557.514 0.304688 553.921C0.304688 548.973 1.1901 544.793 2.96094 541.382C4.73177 537.97 7.16667 535.327 10.2656 533.452C13.3385 531.577 16.8411 530.47 20.7734 530.132V543.803C18.638 543.856 16.8542 544.22 15.4219 544.897C13.9635 545.574 12.8698 546.642 12.1406 548.1C11.4115 549.559 11.0469 551.499 11.0469 553.921C11.0469 555.613 11.3594 557.085 11.9844 558.335C12.6094 559.585 13.599 560.626 14.9531 561.46C16.3073 562.293 18.0651 562.918 20.2266 563.335C22.362 563.725 24.9401 563.921 27.9609 563.921H31.125C34.1458 563.921 36.724 563.738 38.8594 563.374C40.9948 563.009 42.7396 562.423 44.0938 561.616C45.4479 560.809 46.4505 559.767 47.1016 558.491C47.7266 557.189 48.0391 555.6 48.0391 553.725C48.0391 551.642 47.7135 549.884 47.0625 548.452C46.3854 547.02 45.3698 545.913 44.0156 545.132C42.6354 544.35 40.8776 543.934 38.7422 543.882ZM28.4297 475.6H30.7344C35.0833 475.6 38.9896 476.212 42.4531 477.436C45.8906 478.634 48.8333 480.34 51.2813 482.553C53.7031 484.767 55.5651 487.384 56.8672 490.405C58.1432 493.426 58.7813 496.759 58.7813 500.405C58.7813 504.077 58.1432 507.436 56.8672 510.483C55.5651 513.504 53.7031 516.134 51.2813 518.374C48.8333 520.587 45.8906 522.306 42.4531 523.53C38.9896 524.728 35.0833 525.327 30.7344 525.327H28.4297C24.0807 525.327 20.1745 524.728 16.7109 523.53C13.2474 522.306 10.3047 520.6 7.88281 518.413C5.4349 516.199 3.57292 513.582 2.29688 510.561C0.994792 507.514 0.34375 504.155 0.34375 500.483C0.34375 496.837 0.994792 493.504 2.29688 490.483C3.57292 487.436 5.4349 484.806 7.88281 482.592C10.3047 480.379 13.2474 478.66 16.7109 477.436C20.1745 476.212 24.0807 475.6 28.4297 475.6ZM30.7344 489.507H28.3516C25.5391 489.507 23.0651 489.754 20.9297 490.249C18.7682 490.717 16.9583 491.421 15.5 492.358C14.0417 493.296 12.9479 494.454 12.2188 495.835C11.4635 497.189 11.0859 498.738 11.0859 500.483C11.0859 502.306 11.4635 503.895 12.2188 505.249C12.9479 506.603 14.0417 507.736 15.5 508.647C16.9583 509.559 18.7682 510.249 20.9297 510.717C23.0651 511.16 25.5391 511.382 28.3516 511.382H30.7344C33.5208 511.382 35.9948 511.16 38.1563 510.717C40.2917 510.249 42.1016 509.559 43.5859 508.647C45.0703 507.71 46.1901 506.564 46.9453 505.21C47.7005 503.829 48.0781 502.228 48.0781 500.405C48.0781 498.66 47.7005 497.111 46.9453 495.757C46.1901 494.402 45.0703 493.27 43.5859 492.358C42.1016 491.421 40.2917 490.717 38.1563 490.249C35.9948 489.754 33.5208 489.507 30.7344 489.507ZM42.8828 439.194C41.9974 439.194 41.2031 439.324 40.5 439.585C39.7708 439.845 39.0938 440.327 38.4688 441.03C37.8438 441.733 37.2188 442.749 36.5938 444.077C35.9427 445.379 35.2656 447.098 34.5625 449.233C33.7292 451.733 32.7917 454.142 31.75 456.46C30.6823 458.777 29.4453 460.848 28.0391 462.671C26.6068 464.494 24.9401 465.939 23.0391 467.007C21.112 468.074 18.8724 468.608 16.3203 468.608C13.8724 468.608 11.6719 468.061 9.71875 466.967C7.73958 465.874 6.0599 464.35 4.67969 462.397C3.27344 460.418 2.20573 458.1 1.47656 455.444C0.721354 452.788 0.34375 449.884 0.34375 446.733C0.34375 442.566 1.07292 438.895 2.53125 435.717C3.96354 432.514 6.00781 430.014 8.66406 428.217C11.2943 426.395 14.4063 425.483 18 425.483V439.116C16.5677 439.116 15.3047 439.415 14.2109 440.014C13.1172 440.587 12.2578 441.46 11.6328 442.632C11.0078 443.803 10.6953 445.275 10.6953 447.046C10.6953 448.764 10.9557 450.21 11.4766 451.382C11.9974 452.553 12.7005 453.439 13.5859 454.038C14.4453 454.637 15.3958 454.936 16.4375 454.936C17.2969 454.936 18.0781 454.702 18.7813 454.233C19.4583 453.738 20.0964 453.048 20.6953 452.163C21.2943 451.251 21.8672 450.158 22.4141 448.882C22.9609 447.579 23.4948 446.121 24.0156 444.507C24.9792 441.486 26.0599 438.803 27.2578 436.46C28.4297 434.09 29.7708 432.098 31.2813 430.483C32.7656 428.842 34.4583 427.606 36.3594 426.772C38.2604 425.913 40.4089 425.483 42.8047 425.483C45.3568 425.483 47.6224 425.978 49.6016 426.967C51.5807 427.957 53.2604 429.376 54.6406 431.225C55.9948 433.074 57.0234 435.288 57.7266 437.866C58.4297 440.444 58.7813 443.322 58.7813 446.499C58.7813 449.415 58.4167 452.293 57.6875 455.132C56.9323 457.944 55.7865 460.496 54.25 462.788C52.6875 465.079 50.6953 466.915 48.2734 468.296C45.8255 469.65 42.9219 470.327 39.5625 470.327V456.577C41.2292 456.577 42.6354 456.356 43.7813 455.913C44.9271 455.47 45.8516 454.819 46.5547 453.96C47.2318 453.1 47.7266 452.046 48.0391 450.796C48.3255 449.546 48.4688 448.113 48.4688 446.499C48.4688 444.754 48.2214 443.348 47.7266 442.28C47.2057 441.212 46.5286 440.431 45.6953 439.936C44.8359 439.441 43.8984 439.194 42.8828 439.194ZM1.125 390.874H58V404.585H1.125L1.125 390.874ZM1.125 373.764H11.7109L11.7109 421.303H1.125L1.125 373.764Z" fill="#FFBC51"/>
<path d="M1174.5 1022L1880 1022" stroke="#FFBC51" stroke-width="20" stroke-linecap="round"/>
<path d="M32 340L32 9.99999" stroke="#FFBC51" stroke-width="20" stroke-linecap="round"/>
<path d="M790.5 1022L79 1022" stroke="#FFBC51" stroke-width="20" stroke-linecap="round"/>
<line x1="29" y1="954" x2="29" y2="625" stroke="#FFBC51" stroke-width="20" stroke-linecap="round"/>
</svg>
