<?xml version="1.0" encoding="UTF-8"?>
<svg viewBox="0 0 1024 1024" version="1.1" xmlns="http://www.w3.org/2000/svg" xmlns:xlink="http://www.w3.org/1999/xlink">
    <title>audio</title>
    <defs>
        <path d="M128.298964,540 C101.645423,540 80.5988774,530.902527 65.1593264,512.707581 C49.7197755,494.512635 42,471.606498 42,443.98917 C42,379.981949 53.6202936,320.929603 76.8608808,266.83213 C100.101468,212.734657 132.849568,165.703971 175.105181,125.740072 C217.360794,85.7761733 267.092401,54.8285199 324.3,32.8971119 C381.507599,10.965704 444.240933,0 512.5,0 C580.759067,0 643.492401,10.965704 700.7,32.8971119 C757.907599,54.8285199 807.639206,85.7761733 849.894819,125.740072 C892.150432,165.703971 924.898532,212.734657 948.139119,266.83213 C971.379706,320.929603 983,379.981949 983,443.98917 C983,471.606498 975.361485,494.512635 960.084456,512.707581 C944.807427,530.902527 923.67962,540 896.701036,540 C867.122107,540 843.231434,531.714801 825.029016,515.144404 C806.826598,498.574007 796.587737,473.555957 794.312435,440.090253 C791.062003,390.054152 776.760104,346.6787 751.406736,309.963899 C726.053368,273.249097 692.655181,244.900722 651.212176,224.918773 C609.769171,204.936823 563.531779,194.945848 512.5,194.945848 C461.468221,194.945848 415.31209,204.936823 374.031606,224.918773 C332.751123,244.900722 299.352936,273.249097 273.837047,309.963899 C248.321157,346.6787 233.937997,390.054152 230.687565,440.090253 C228.412263,473.555957 218.254663,498.574007 200.214767,515.144404 C182.17487,531.714801 158.202936,540 128.298964,540 Z M149,903 C122,903 101.75,893.876404 88.25,875.629213 C74.75,857.382022 68,835.876404 68,811.11236 C68,791.88764 72.2289157,774.210674 80.686747,758.081461 C89.1445783,741.952247 102.319277,732.258427 120.210843,729 C120.861446,739.101124 122.162651,752.460674 124.114458,769.078652 C126.066265,785.696629 128.506024,803.047753 131.433735,821.132022 C134.361446,839.216292 137.370482,855.671348 140.460843,870.497191 C143.551205,885.323034 146.39759,896.157303 149,903 Z M292.287625,985 C275.03456,971.037647 259.409142,947.577647 245.411371,914.62 C231.413601,881.662353 220.345596,844.321176 212.207358,802.596471 C204.069119,760.871765 200,719.877647 200,679.614118 C200,659.482353 201.139353,640.162353 203.41806,621.654118 C205.696767,603.145882 209.277592,586.261176 214.160535,571 L267.87291,571 C263.966555,584.962353 261.118172,600.061176 259.327759,616.296471 C257.537347,632.531765 256.64214,649.416471 256.64214,666.950588 C256.64214,706.24 260.71126,746.747059 268.849498,788.471765 C276.987737,830.196471 287.811594,868.430588 301.32107,903.174118 C314.830546,937.917647 329.723523,964.543529 346,983.051765 L292.287625,985 Z M103.846154,740 C101.876923,717.525988 100.153846,692.364865 98.6769231,664.516632 C97.2,636.668399 96.0512821,608.738739 95.2307692,580.727651 C94.4102564,552.716563 94,527.474012 94,505 L151.6,505 C151.6,522.262647 151.928205,542.212405 152.584615,564.849272 C153.241026,587.48614 154.061538,610.04158 155.046154,632.515593 C156.030769,654.989605 157.015385,674.857935 158,692.120582 L103.846154,740 Z M318.822306,973 C324.349716,973 329.714556,972.75625 334.916824,972.26875 C340.119093,971.78125 345.321361,971.05 350.523629,970.075 L398.319471,961.7875 C403.846881,953.3375 407.342155,940.58125 408.805293,923.51875 C410.268431,906.45625 411,892.8875 411,882.8125 C411,844.7875 407.586011,806.84375 400.758034,768.98125 C393.930057,731.11875 384.094518,695.9375 371.251418,663.4375 C358.408318,630.9375 342.720227,604.125 324.187146,583 L276.879017,590.8 C252.818526,594.7 231.440454,605.2625 212.744802,622.4875 C194.049149,639.7125 179.417769,661.1625 168.850662,686.8375 C158.283554,712.5125 153,740.4625 153,770.6875 C153,807.0875 159.258979,840.64375 171.776938,871.35625 C184.294896,902.06875 202.909263,926.6875 227.620038,945.2125 C252.330813,963.7375 282.731569,973 318.822306,973 Z M328.850806,1024 C279.409946,1024 237.69422,1013.18426 203.703629,991.552788 C169.713038,969.921313 144.098118,939.995061 126.858871,901.774034 C109.619624,863.553007 101,819.720808 101,770.277436 C101,738.724759 106.366935,706.602831 117.100806,673.911655 C127.834677,641.220478 144.34207,612.595369 166.622984,588.036326 C188.903898,563.477283 217.120968,548.10755 251.274194,541.927129 L308.846774,531.192713 C327.712366,527.614574 344.626344,532.087248 359.58871,544.610733 C374.551075,557.134219 387.80578,574.699627 399.352823,597.306958 C410.899866,619.914289 420.739247,645.123903 428.870968,672.935799 C437.002688,700.747695 443.670699,728.47827 448.875,756.127524 C454.079301,783.776778 457.90121,808.823749 460.340726,831.268437 C462.780242,853.713126 464,870.790606 464,882.500878 C464,897.464004 463.105511,914.622805 461.316532,933.977283 C459.527554,953.33176 454.648522,970.653205 446.679435,985.941615 C438.710349,1001.23003 425.293011,1010.50066 406.427419,1013.75351 L358.125,1022.04829 C353.896505,1022.69886 349.342742,1023.18679 344.46371,1023.51207 C339.584677,1023.83736 334.380376,1024 328.850806,1024 Z M409.030888,985 C399.877735,985 389.825611,975.888136 378.874517,957.664407 C367.923423,939.440678 357.462677,914.789831 347.492278,883.711864 C337.521879,852.633898 329.104247,817.894915 322.239382,779.494915 C317.989704,754.762712 314.720721,731.088136 312.432432,708.471186 C310.144144,685.854237 309,665.108475 309,646.233898 C309,632.566102 309.817246,618.572881 311.451737,604.254237 C313.086229,589.935593 315.864865,577.813559 319.787645,567.888136 C323.710425,557.962712 329.267696,553 336.459459,553 C345.612613,553 355.583012,562.111864 366.370656,580.335593 C377.158301,598.559322 387.619048,623.210169 397.752896,654.288136 C407.886744,685.366102 416.3861,720.105085 423.250965,758.505085 C426.846847,777.705085 429.870656,799.833898 432.322394,824.891525 C434.774131,849.949153 436,873.867797 436,896.647458 C436,921.379661 434.03861,942.288136 430.11583,959.372881 C426.19305,976.457627 419.164736,985 409.030888,985 Z M615.969112,985 C605.835264,985 598.80695,976.457627 594.88417,959.372881 C590.96139,942.288136 589,921.379661 589,896.647458 C589,873.867797 590.307593,849.949153 592.92278,824.891525 C595.537967,799.833898 598.480051,777.705085 601.749035,758.505085 C608.6139,720.105085 617.113256,685.366102 627.247104,654.288136 C637.380952,623.210169 647.841699,598.559322 658.629344,580.335593 C669.416988,562.111864 679.387387,553 688.540541,553 C695.732304,553 701.289575,557.962712 705.212355,567.888136 C709.135135,577.813559 711.913771,589.935593 713.548263,604.254237 C715.182754,618.572881 716,632.566102 716,646.233898 C716,665.108475 714.93758,685.854237 712.812741,708.471186 C710.687902,731.088136 707.337194,754.762712 702.760618,779.494915 C695.895753,817.894915 687.478121,852.633898 677.507722,883.711864 C667.537323,914.789831 657.158301,939.440678 646.370656,957.664407 C635.583012,975.888136 625.449163,985 615.969112,985 Z M732.712375,985 L679,983.051765 C695.276477,964.543529 710.169454,937.917647 723.67893,903.174118 C737.188406,868.430588 748.012263,830.196471 756.150502,788.471765 C764.28874,746.747059 768.35786,706.24 768.35786,666.950588 C768.35786,649.416471 767.462653,632.531765 765.672241,616.296471 C763.881828,600.061176 761.033445,584.962353 757.12709,571 L810.839465,571 C815.722408,586.261176 819.303233,603.145882 821.58194,621.654118 C823.860647,640.162353 825,659.482353 825,679.614118 C825,719.877647 820.930881,760.871765 812.792642,802.596471 C804.654404,844.321176 793.586399,881.662353 779.588629,914.62 C765.590858,947.577647 749.96544,971.037647 732.712375,985 Z M705.177694,973 C741.593573,973 772.075614,963.7375 796.623819,945.2125 C821.172023,926.6875 839.705104,902.06875 852.223062,871.35625 C864.741021,840.64375 871,807.0875 871,770.6875 C871,740.4625 865.716446,712.5125 855.149338,686.8375 C844.582231,661.1625 830.032136,639.7125 811.499055,622.4875 C792.965974,605.2625 771.506616,594.7 747.120983,590.8 L699.812854,583 C681.604915,604.125 665.99811,630.9375 652.992439,663.4375 C639.986767,695.9375 630.069943,731.11875 623.241966,768.98125 C616.413989,806.84375 613,844.7875 613,882.8125 C613,892.8875 613.731569,906.45625 615.194707,923.51875 C616.657845,940.58125 620.153119,953.3375 625.680529,961.7875 L673.476371,970.075 C678.678639,971.05 683.962193,971.78125 689.327032,972.26875 C694.691871,972.75625 699.975425,973 705.177694,973 Z M697.149194,1024 C691.944892,1024 686.903226,1023.83736 682.024194,1023.51207 C677.145161,1023.18679 672.428763,1022.69886 667.875,1022.04829 L619.572581,1013.75351 C601.032258,1010.50066 587.696237,1001.23003 579.564516,985.941615 C571.432796,970.653205 566.472446,953.33176 564.683468,933.977283 C562.894489,914.622805 562,897.464004 562,882.500878 C562,870.790606 563.219758,853.713126 565.659274,831.268437 C568.09879,808.823749 571.920699,783.776778 577.125,756.127524 C582.329301,728.47827 588.997312,700.747695 597.129032,672.935799 C605.260753,645.123903 615.100134,619.914289 626.647177,597.306958 C638.19422,574.699627 651.448925,557.134219 666.41129,544.610733 C681.373656,532.087248 698.287634,527.614574 717.153226,531.192713 L774.725806,541.927129 C808.879032,548.10755 837.096102,563.477283 859.377016,588.036326 C881.65793,612.595369 898.165323,641.220478 908.899194,673.911655 C919.633065,706.602831 925,738.724759 925,770.277436 C925,819.720808 916.380376,863.553007 899.141129,901.774034 C881.901882,939.995061 856.36828,969.921313 822.540323,991.552788 C788.712366,1013.18426 746.915323,1024 697.149194,1024 Z M876,903 C878.60241,896.157303 881.448795,885.323034 884.539157,870.497191 C887.629518,855.671348 890.638554,839.216292 893.566265,821.132022 C896.493976,803.047753 898.933735,785.696629 900.885542,769.078652 C902.837349,752.460674 904.138554,739.101124 904.789157,729 C922.680723,732.258427 935.855422,741.952247 944.313253,758.081461 C952.771084,774.210674 957,791.88764 957,811.11236 C957,835.876404 950.25,857.382022 936.75,875.629213 C923.25,893.876404 903,903 876,903 Z M133.020979,489 C148.954545,489 159.197552,485.339387 163.75,478.018161 C168.302448,470.696935 171.066434,458.413545 172.041958,441.167991 C174.643357,392.359818 185.699301,349.164586 205.20979,311.582293 C224.72028,274 250.327797,242.193341 282.032343,216.162316 C313.736888,190.13129 349.424825,170.445327 389.096154,157.104427 C428.767483,143.763526 469.902098,137.093076 512.5,137.093076 C555.097902,137.093076 596.232517,143.763526 635.903846,157.104427 C675.575175,170.445327 711.263112,190.13129 742.967657,216.162316 C774.672203,242.193341 800.361014,274 820.034091,311.582293 C839.707168,349.164586 850.681818,392.359818 852.958042,441.167991 C853.933566,458.413545 856.697552,470.696935 861.25,478.018161 C865.802448,485.339387 876.045455,489 891.979021,489 C906.611888,489 916.773601,484.769958 922.464161,476.309875 C928.15472,467.849792 931,457.274688 931,444.584563 C931,387.641695 920.756993,335.660991 900.270979,288.642452 C879.784965,241.623912 850.763112,200.950435 813.20542,166.62202 C775.647727,132.293606 731.423951,105.774499 680.534091,87.0646992 C629.644231,68.3548997 573.632867,59 512.5,59 C451.692308,59 395.762238,68.3548997 344.70979,87.0646992 C293.657343,105.774499 249.352273,132.293606 211.79458,166.62202 C174.236888,200.950435 145.215035,241.623912 124.729021,288.642452 C104.243007,335.660991 94,387.641695 94,444.584563 C94,457.274688 96.8452797,467.849792 102.535839,476.309875 C108.226399,484.769958 118.388112,489 133.020979,489 Z M921.153846,740 L867,692.120582 C868.312821,674.857935 869.379487,654.989605 870.2,632.515593 C871.020513,610.04158 871.758974,587.48614 872.415385,564.849272 C873.071795,542.212405 873.4,522.262647 873.4,505 L931,505 C931,527.474012 930.589744,552.716563 929.769231,580.727651 C928.948718,608.738739 927.8,636.668399 926.323077,664.516632 C924.846154,692.364865 923.123077,717.525988 921.153846,740 Z" id="path-1"></path>
    </defs>
    <g id="audio" stroke="none" stroke-width="1" fill="none" fill-rule="evenodd">
        <mask id="mask-2" fill="white">
            <use xlink:href="#path-1"></use>
        </mask>
        <use id="Mask" fill="var(--color-primary)" fill-rule="nonzero" xlink:href="#path-1"></use>
    </g>
</svg>