<?xml version="1.0" encoding="UTF-8"?>
<svg width="1024px" height="1024px" viewBox="0 0 1024 1024" version="1.1" xmlns="http://www.w3.org/2000/svg" xmlns:xlink="http://www.w3.org/1999/xlink">
    <title>calendar</title>
    <g id="calendar" stroke="none" stroke-width="1" fill="none" fill-rule="evenodd">
        <path d="M17,944 L17,397.1 L17,397.1 L68.0921178,392 L68.0921178,893 C68.0921178,926.137085 94.9550328,953 128.092118,953 L555,953 L555,953 L555,1004 L77,1004 C43.862915,1004 17,977.137085 17,944 Z M527,978.439462 C527,964.322766 538.443843,952.878924 552.560538,952.878924 L691.680851,952.878924 C724.817936,952.878924 751.680851,926.016009 751.680851,892.878924 L751.680851,819.641256 C751.680851,786.504171 778.543766,759.641256 811.680851,759.641256 L895.93617,759.641256 C929.073255,759.641256 955.93617,732.778341 955.93617,699.641256 L955.93617,573.531915 C955.93617,559.431028 967.367198,548 981.468085,548 C995.568972,548 1007,559.431028 1007,573.531915 L1007,784.929878 C1007,801.419815 1000.21334,817.182914 988.234601,828.515514 L820.094927,987.585636 C808.953255,998.12632 794.197956,1004 778.860326,1004 L552.560538,1004 C538.443843,1004 527,992.556157 527,978.439462 Z M947,19 C980.137085,19 1007,45.862915 1007,79 L1007,427 L17,427 L17,79 C17,45.862915 43.862915,19 77,19 L947,19 Z M340.218978,168 C324.557178,168 310.662105,171.373984 298.533759,178.121951 C286.405414,184.869919 276.951034,194.509872 270.17062,207.041812 C263.390207,219.573751 260,234.226481 260,251 C260,267.773519 263.390207,282.426249 270.17062,294.958188 C276.951034,307.490128 286.405414,317.130081 298.533759,323.878049 C310.662105,330.626016 324.557178,334 340.218978,334 C360.082725,334 376.795012,328.601626 390.355839,317.804878 C403.916667,307.00813 412.798054,292.162602 417,273.268293 L364.857664,273.268293 C360.46472,285.607433 351.965328,291.777003 339.359489,291.777003 C330.382603,291.777003 323.220195,288.25842 317.872263,281.221254 C312.524331,274.184088 309.850365,264.110337 309.850365,251 C309.850365,237.889663 312.524331,227.815912 317.872263,220.778746 C323.220195,213.74158 330.382603,210.222997 339.359489,210.222997 C351.965328,210.222997 360.46472,216.392567 364.857664,228.731707 L417,228.731707 C412.798054,209.4518 403.964416,194.509872 390.499088,183.905923 C377.033759,173.301974 360.273723,168 340.218978,168 Z M527.001698,168 C513.724958,168 501.698925,171.373984 490.923599,178.121951 C480.148274,184.869919 471.633843,194.509872 465.380306,207.041812 C459.126769,219.573751 456,234.130081 456,250.710801 C456,267.291521 459.126769,281.896051 465.380306,294.52439 C471.633843,307.152729 480.148274,316.889082 490.923599,323.733449 C501.698925,330.577816 513.628749,334 526.713073,334 C538.065648,334 548.023203,331.686411 556.585739,327.059233 C565.148274,322.432056 571.834748,316.358885 576.645161,308.839721 L576.645161,331.686411 L626,331.686411 L626,170.313589 L576.645161,170.313589 L576.645161,193.160279 C572.027165,185.641115 565.436899,179.567944 556.874363,174.940767 C548.311828,170.313589 538.354273,168 527.001698,168 Z M737,119 L687,119 L687,332 L737,332 L737,119 Z M541.432937,211.090592 C551.24618,211.090592 559.568195,214.657375 566.398981,221.790941 C573.229768,228.924506 576.645161,238.660859 576.645161,251 C576.645161,263.339141 573.229768,273.075494 566.398981,280.209059 C559.568195,287.342625 551.24618,290.909408 541.432937,290.909408 C531.619694,290.909408 523.29768,287.294425 516.466893,280.06446 C509.636106,272.834495 506.220713,263.049942 506.220713,250.710801 C506.220713,238.371661 509.636106,228.683508 516.466893,221.646341 C523.29768,214.609175 531.619694,211.090592 541.432937,211.090592 Z M956,613 L956,397 L1007,397 L1007,613 L956,613 Z" id="Shape" fill="--primary" fill-rule="nonzero"></path>
        <g id="2" transform="translate(399, 522)" fill="--primary" fill-rule="nonzero">
            <path d="M0.900793651,273.884511 C11.1097884,265.789402 15.7638889,262.041667 14.8630952,262.641304 C44.2890212,238.355978 67.4844577,218.418025 84.4494048,202.827446 C101.414352,187.236866 115.751984,170.896739 127.462302,153.807065 C139.172619,136.717391 145.027778,120.077446 145.027778,103.887228 C145.027778,91.5946558 142.175265,82.0004529 136.470238,75.1046196 C130.765212,68.2087862 122.207672,64.7608696 110.797619,64.7608696 C99.3875661,64.7608696 90.4546958,69.033288 83.9990079,77.578125 C77.5433201,86.122962 74.3154762,98.1906703 74.3154762,113.78125 L0,113.78125 C0.600529101,88.2966486 6.08035714,67.0095109 16.4394841,49.919837 C26.7986111,32.830163 40.4606481,20.2377717 57.4255952,12.142663 C74.3905423,4.04755435 93.2321429,0 113.950397,0 C149.681878,0 176.630622,9.14447464 194.796627,27.4334239 C212.962632,45.7223732 222.045635,69.557971 222.045635,98.9402174 C222.045635,131.020833 211.085979,160.777853 189.166667,188.211277 C167.247354,215.644701 139.322751,242.403533 105.392857,268.487772 L227,268.487772 L227,331 L0.900793651,331 L0.900793651,273.884511 Z" id="Path"></path>
        </g>
    </g>
</svg>