<?xml version="1.0" encoding="UTF-8"?>
<svg width="1024px" height="1024px" viewBox="0 0 1024 1024" version="1.1" xmlns="http://www.w3.org/2000/svg" xmlns:xlink="http://www.w3.org/1999/xlink">
    <title>crash-course</title>
    <g id="crash-course" stroke="none" stroke-width="1" fill="none" fill-rule="evenodd">
        <g id="crash-course" transform="translate(29.2831, 94.4434)" fill="--primary" fill-rule="nonzero">
            <path d="M482.517578,603.743164 L0,322.738281 L0,273.055664 L482.915039,0 L965.830078,273.055664 L965.830078,322.738281 L482.517578,603.743164 Z M211.051758,834.667969 C203.897461,834.667969 197.670573,832.084473 192.371094,826.91748 C187.071615,821.750488 183.891927,815.32487 182.832031,807.640625 C180.977214,814.264974 177.996257,819.69694 173.88916,823.936523 C169.782064,828.176107 165.476237,830.295898 160.97168,830.295898 C149.577799,830.295898 143.880859,822.34668 143.880859,806.448242 C143.880859,791.079753 145.271973,772.796549 148.054199,751.598633 C150.836426,730.400716 154.479818,708.010417 158.984375,684.427734 C163.488932,660.845052 168.457194,637.593587 173.88916,614.67334 C179.321126,591.753092 184.819336,570.886393 190.383789,552.073242 C183.229492,548.363607 177.996257,542.931641 174.684082,535.777344 C171.371908,528.623047 169.71582,521.733724 169.71582,515.109375 C169.71582,508.220052 171.371908,501.198242 174.684082,494.043945 C177.996257,486.889648 183.229492,481.590169 190.383789,478.145508 L190.383789,431.642578 C190.383789,413.889323 192.437337,400.640625 196.544434,391.896484 C200.65153,383.152344 208.799479,374.938151 220.988281,367.253906 L436.412109,231.322266 L470.991211,255.169922 L258.74707,391.101562 C248.413086,397.725911 242.053711,403.952799 239.668945,409.782227 C237.28418,415.611654 235.429362,426.078125 234.104492,441.181641 L231.322266,478.145508 C238.741536,481.590169 244.041016,486.889648 247.220703,494.043945 C250.400391,501.198242 251.990234,508.220052 251.990234,515.109375 C251.990234,521.733724 250.400391,528.556803 247.220703,535.578613 C244.041016,542.600423 238.741536,547.966146 231.322266,551.675781 C236.886719,570.488932 242.384928,591.355632 247.816895,614.275879 C253.248861,637.196126 258.217122,660.513835 262.72168,684.229004 C267.226237,707.944173 270.869629,730.400716 273.651855,751.598633 C276.434082,772.796549 277.825195,791.079753 277.825195,806.448242 C277.825195,822.34668 272.128255,830.295898 260.734375,830.295898 C255.964844,830.295898 251.592773,828.176107 247.618164,823.936523 C243.643555,819.69694 240.993815,814.264974 239.668945,807.640625 C238.609049,815.32487 235.429362,821.750488 230.129883,826.91748 C224.830404,832.084473 218.471029,834.667969 211.051758,834.667969 Z M483.3125,711.057617 C428.727865,711.057617 376.859212,700.789876 327.706543,680.254395 C278.553874,659.718913 235.95931,633.420247 199.922852,601.358398 L229.334961,565.189453 C261.131836,593.276693 299.221842,616.660645 343.60498,635.341309 C387.988118,654.021973 434.557292,663.362305 483.3125,663.362305 C531.802734,663.362305 575.457194,655.87679 614.275879,640.905762 C653.094564,625.934733 688.667318,605.068034 720.994141,578.305664 L720.994141,436.014648 L768.689453,426.873047 L768.689453,604.538086 C742.722005,624.941081 715.760905,643.224284 687.806152,659.387695 C659.8514,675.551107 629.313151,688.203613 596.191406,697.345215 C563.069661,706.486816 525.443359,711.057617 483.3125,711.057617 Z M481.722656,577.510742 L930.058594,323.533203 L930.058594,323.533203 L481.722656,577.510742 L23.8476562,316.378906 L23.8476562,316.378906 L481.722656,577.510742 Z M482.915039,548.496094 L923.301758,292.133789 L482.120117,43.7207031 L42.5283203,292.133789 L482.915039,548.496094 Z M452.310547,278.620117 C441.181641,278.620117 431.576335,275.042969 423.494629,267.888672 C415.412923,260.734375 411.37207,252.520182 411.37207,243.246094 C411.37207,235.031901 414.816732,227.480143 421.706055,220.59082 C428.595378,213.701497 436.942057,208.070801 446.746094,203.69873 C456.55013,199.32666 465.956706,197.140625 474.96582,197.140625 C486.624674,197.140625 496.296224,200.452799 503.980469,207.077148 C511.664714,213.701497 515.506836,221.650716 515.506836,230.924805 C515.506836,239.403971 512.128418,247.286947 505.371582,254.57373 C498.614746,261.860514 490.400553,267.689941 480.729004,272.062012 C471.057454,276.434082 461.584635,278.620117 452.310547,278.620117 Z" id="Shape"></path>
        </g>
    </g>
</svg>