<?xml version="1.0" encoding="UTF-8"?>
<svg viewBox="0 0 1024 1024" version="1.1" xmlns="http://www.w3.org/2000/svg" xmlns:xlink="http://www.w3.org/1999/xlink">
    <title>guide</title>
    <defs>
        <path d="M175,628 L175,596.510638 C184.220339,595.092199 193.008475,593.602837 201.364407,592.042553 C209.720339,590.48227 217.932203,589.134752 226,588 L226,619.489362 C217.932203,620.624113 209.720339,621.971631 201.364407,623.531915 C193.008475,625.092199 184.220339,626.58156 175,628 Z M174,543 L174,511.091743 C189.193333,508.217125 204.028333,505.629969 218.505,503.330275 C232.981667,501.030581 246.813333,498.587156 260,496 L260,527.477064 C246.813333,529.776758 232.981667,532.220183 218.505,534.807339 C204.028333,537.394495 189.193333,540.125382 174,543 Z M255,615 L255,583.381818 C274.456366,579.963636 292.482117,576.972727 309.077253,574.409091 C325.672389,571.845455 340.979971,569.709091 355,568 L355,599.618182 C340.979971,601.327273 325.529328,603.534848 308.648069,606.240909 C291.76681,608.94697 273.88412,611.866667 255,615 Z M288,523 L288,491.114943 C295.402778,489.950192 302.592014,488.858238 309.567708,487.83908 C316.543403,486.819923 323.020833,485.873563 329,485 L329,517.321839 C323.305556,517.904215 316.685764,518.777778 309.140625,519.942529 C301.595486,521.10728 294.548611,522.126437 288,523 Z M174,457 L174,425.123077 C200.133333,420.528205 224.974359,416.148718 248.523077,411.984615 C272.071795,407.820513 293.897436,404.158974 314,401 L314,433.307692 C293.897436,436.179487 272.071795,439.625641 248.523077,443.646154 C224.974359,447.666667 200.133333,452.117949 174,457 Z M440,597 C434.80597,595.852321 429.756219,595.135021 424.850746,594.848101 C419.945274,594.561181 414.606965,594.417722 408.835821,594.417722 C405.084577,594.417722 401.116915,594.561181 396.932836,594.848101 C392.748756,595.135021 387.771144,595.565401 382,596.139241 L382,564.721519 C387.771144,563.860759 392.748756,563.35865 396.932836,563.21519 C401.116915,563.07173 405.084577,563 408.835821,563 C414.318408,563 419.584577,563.07173 424.634328,563.21519 C429.68408,563.35865 434.80597,564.004219 440,565.151899 L440,597 Z M175,370 L175,338.18 C185.806527,335.886667 196.257576,333.951667 206.353147,332.375 C216.448718,330.798333 226.331002,329.006667 236,327 L236,358.82 C226.331002,360.826667 216.448718,362.618333 206.353147,364.195 C196.257576,365.771667 185.806527,367.706667 175,370 Z M122,719 C144.379747,717.567026 168.194093,714.199538 193.443038,708.897535 C218.691983,703.595532 243.797468,697.791988 268.759494,691.486903 C292.860759,685.181818 314.738397,680.094761 334.392405,676.225732 C354.046414,672.356703 370.759494,670.422188 384.531646,670.422188 C409.206751,670.422188 430.582278,673.216487 448.658228,678.805085 C466.734177,684.393683 482.514768,692.489985 496,703.093991 L496,195.391371 C486.531646,172.46379 458.843882,161 412.936709,161 C392.565401,161 356.987342,164.869029 306.202532,172.607088 C255.417722,180.345146 194.016878,191.379045 122,205.708783 L122,719 Z M358,513 L358,481.337349 C368.357895,479.891566 377.780702,478.807229 386.268421,478.084337 C394.75614,477.361446 402.308772,477 408.926316,477 C414.392982,477 419.64386,477.144578 424.678947,477.433735 C429.714035,477.722892 434.821053,478.445783 440,479.60241 L440,511.698795 C434.821053,510.253012 429.785965,509.457831 424.894737,509.313253 C420.003509,509.168675 414.680702,509.096386 408.926316,509.096386 C395.691228,509.096386 378.715789,510.39759 358,513 Z M345,428 L345,396.285714 C352.455197,395.142857 359.623656,394.214286 366.505376,393.5 C373.387097,392.785714 379.551971,392.285714 385,392 L385,423.285714 C379.551971,423.571429 373.315412,424.142857 366.290323,425 C359.265233,425.857143 352.168459,426.857143 345,428 Z M268,353 L268,321.078431 C283.169284,318.490196 297.69459,316.117647 311.575916,313.960784 C325.457243,311.803922 338.265271,310.150327 350,309 L350,340.921569 C338.265271,342.359477 325.528796,344.156863 311.790576,346.313725 C298.052356,348.470588 283.455497,350.699346 268,353 Z M512,853 C491.346789,853 477.721407,841.819169 471.123853,819.457508 C468.829052,811.430245 463.307187,804.693078 454.558257,799.246006 C445.809327,793.798935 435.554434,791.075399 423.793578,791.075399 C408.30367,791.075399 390.088685,793.010543 369.148624,796.880831 C348.208563,800.751118 325.26055,805.338126 300.304587,810.641853 C275.348624,815.94558 249.101835,820.532588 221.56422,824.402875 C194.026606,828.273163 166.058716,830.208307 137.66055,830.208307 C108.401835,830.208307 87.6769113,829.563259 75.4857798,828.273163 C75.4857798,828.273163 75.4857798,828.273163 75.4857798,828.273163 C57.016445,826.318692 43.0000305,810.740764 43,792.168303 L43,251.362527 C43,244.964032 45.1161205,238.745167 49.0187383,233.674633 L80.5168772,192.750204 C84.7165145,187.293763 92.544313,186.274922 98.0007546,190.474559 C98.8328704,191.11501 99.5807418,191.858021 100.226606,192.685942 C106.104764,200.221057 106.363085,210.714193 100.862822,218.529422 L79.6946438,248.606925 C76.2557359,253.493211 74.4100917,259.322463 74.4100917,265.297567 L74.4100917,798.815974 L74.4100917,798.815974 C83.5892966,799.38935 92.4816514,799.819382 101.087156,800.10607 C109.692661,800.392758 118.15474,800.536102 126.473394,800.536102 C160.895413,800.536102 192.73578,798.600958 221.994495,794.730671 C251.253211,790.860383 278.145413,786.41672 302.671101,781.399681 C327.196789,776.382641 349.499388,771.938978 369.578899,768.06869 C389.65841,764.198403 407.729969,762.263259 423.793578,762.263259 C443.012538,762.263259 459.578135,767.208626 473.490367,777.099361 C487.402599,786.990096 496.653517,799.246006 501.243119,813.867093 C503.53792,821.034292 507.123547,824.617891 512,824.617891 C516.876453,824.617891 520.46208,821.034292 522.756881,813.867093 C527.346483,799.246006 536.597401,786.990096 550.509633,777.099361 C564.421865,767.208626 580.987462,762.263259 600.206422,762.263259 C616.270031,762.263259 634.34159,764.198403 654.421101,768.06869 C674.500612,771.938978 696.803211,776.382641 721.328899,781.399681 C745.854587,786.41672 772.746789,790.860383 802.005505,794.730671 C831.26422,798.600958 863.104587,800.536102 897.526606,800.536102 C905.84526,800.536102 914.307339,800.392758 922.912844,800.10607 C931.518349,799.819382 940.410703,799.38935 949.589908,798.815974 L949.589908,265.297567 C949.589908,259.322463 947.744264,253.493211 944.305356,248.606925 L923.137178,218.529422 C917.636915,210.714193 917.895236,200.221057 923.773394,192.685942 C928.008523,187.257002 935.842798,186.289225 941.271739,190.524353 C942.099661,191.170217 942.842672,191.918088 943.483123,192.750204 L974.981262,233.674633 C978.88388,238.745167 981,244.964032 981,251.362527 L981,798.603137 C981.001139,813.025023 970.404412,825.256289 956.129446,827.309606 C953.371206,827.70662 950.832797,828.027805 948.51422,828.273163 C936.323089,829.563259 915.598165,830.208307 886.33945,830.208307 C859.949235,830.208307 832.698471,828.273163 804.587156,824.402875 C776.475841,820.532588 749.296789,815.94558 723.05,810.641853 C696.803211,805.338126 672.994648,800.751118 651.624312,796.880831 C630.253976,793.010543 613.114679,791.075399 600.206422,791.075399 C588.732416,791.075399 578.620948,793.798935 569.872018,799.246006 C561.123089,804.693078 555.457798,811.430245 552.876147,819.457508 C545.991743,841.819169 532.366361,853 512,853 Z M174,285 L174,252.970149 C202.732394,248.064677 230.028169,243.303483 255.887324,238.686567 C281.746479,234.069652 305.450704,230.174129 327,227 L327,259.029851 C305.738028,261.915423 282.177465,265.666667 256.31831,270.283582 C230.459155,274.900498 203.019718,279.80597 174,285 Z M440,425 C435.013333,423.535565 429.733333,422.656904 424.16,422.364017 C418.586667,422.07113 412.866667,422.07113 407,422.364017 L407,390.292887 C412.866667,390 418.513333,389.926778 423.94,390.073222 C429.366667,390.219665 434.72,390.878661 440,392.050209 L440,425 Z M585,597 L585,565.151899 C590.19403,564.004219 595.31592,563.35865 600.365672,563.21519 C605.415423,563.07173 610.681592,563 616.164179,563 C619.915423,563 623.955224,563.07173 628.283582,563.21519 C632.61194,563.35865 637.517413,563.860759 643,564.721519 L643,596.139241 C637.517413,595.565401 632.61194,595.135021 628.283582,594.848101 C623.955224,594.561181 619.915423,594.417722 616.164179,594.417722 C610.681592,594.417722 605.415423,594.561181 600.365672,594.848101 C595.31592,595.135021 590.19403,595.852321 585,597 Z M499.165442,744.889394 C480.087503,728.892492 464.91637,718.691364 453.652041,714.286008 C433.12619,706.258573 410.088435,702.244856 384.538776,702.244856 C370.185034,702.244856 352.09932,704.681756 330.281633,709.555556 C308.463946,714.429355 284.852041,720.091564 259.445918,726.542181 C234.039796,732.992798 208.203061,738.655007 181.935714,743.528807 C155.668367,748.402606 130.764626,750.839506 107.22449,750.839506 C107.22449,750.839506 107.22449,750.839506 107.22449,750.839506 C97.7116668,750.839506 90,743.127839 90,733.615016 L90,198.624198 C89.999296,187.645173 97.758461,178.196405 108.527978,176.061806 C141.193755,169.585822 166.595994,164.649582 184.734694,161.253086 C216.887075,155.23251 247.747619,149.785322 277.316327,144.911523 C306.885034,140.037723 333.439456,136.167353 356.979592,133.300412 C380.519728,130.433471 399.179592,129 412.959184,129 C474.680272,129 512.430612,148.065158 526.210204,186.195473 L497.789796,186.195473 C511.569388,148.065158 549.319728,129 611.040816,129 C624.820408,129 643.480272,130.433471 667.020408,133.300412 C690.560544,136.167353 717.114966,140.037723 746.683673,144.911523 C776.252381,149.785322 807.112925,155.23251 839.265306,161.253086 C856.344296,164.45115 879.862907,169.014302 909.82114,174.942541 C923.87422,177.721766 934.001226,190.049184 934,204.374447 L934,733.614988 C934.000029,743.127827 926.288349,750.839506 916.77551,750.839506 C916.77551,750.839506 916.77551,750.839506 916.77551,750.839506 C893.235374,750.839506 868.331633,748.402606 842.064286,743.528807 C815.796939,738.655007 789.960204,732.992798 764.554082,726.542181 C739.147959,720.091564 715.536054,714.429355 693.718367,709.555556 C671.90068,704.681756 653.814966,702.244856 639.461224,702.244856 C614.198639,702.244856 591.232653,706.258573 570.563265,714.286008 C559.216801,718.69267 543.977434,728.898544 524.845165,744.903628 L524.846001,744.904628 C517.412637,751.122269 506.591178,751.116143 499.16486,744.890088 Z M440,339 C434.790698,337.541667 429.726098,336.739583 424.806202,336.59375 C419.886305,336.447917 414.5323,336.375 408.744186,336.375 C405.271318,336.375 401.509044,336.520833 397.457364,336.8125 C393.405685,337.104167 388.919897,337.541667 384,338.125 L384,305.75 C388.341085,305.166667 392.682171,304.729167 397.023256,304.4375 C401.364341,304.145833 405.271318,304 408.744186,304 C414.242894,304 419.524548,304.145833 424.589147,304.4375 C429.653747,304.729167 434.790698,305.458333 440,306.625 L440,339 Z M769,615 C750.11588,611.866667 732.23319,608.94697 715.351931,606.240909 C698.470672,603.534848 683.020029,601.327273 669,599.618182 L669,568 C683.020029,569.709091 698.399142,571.845455 715.137339,574.409091 C731.875536,576.972727 749.829757,579.963636 769,583.381818 L769,615 Z M667,513 C646.284211,510.39759 629.308772,509.096386 616.073684,509.096386 C610.607018,509.096386 605.35614,509.168675 600.321053,509.313253 C595.285965,509.457831 590.178947,510.253012 585,511.698795 L585,479.60241 C590.178947,478.445783 595.285965,477.722892 600.321053,477.433735 C605.35614,477.144578 610.607018,477 616.073684,477 C622.691228,477 630.24386,477.361446 638.731579,478.084337 C647.219298,478.807229 656.642105,479.891566 667,481.337349 L667,513 Z M360,253 L360,221.841463 C370.09009,220.418699 379.243243,219.422764 387.459459,218.853659 C395.675676,218.284553 402.810811,218 408.864865,218 C414.342342,218 419.603604,218.142276 424.648649,218.426829 C429.693694,218.711382 434.810811,219.422764 440,220.560976 L440,252.146341 C434.810811,250.723577 429.765766,249.941057 424.864865,249.79878 C419.963964,249.656504 414.630631,249.585366 408.864865,249.585366 C402.810811,249.585366 395.675676,249.79878 387.459459,250.22561 C379.243243,250.652439 370.09009,251.577236 360,253 Z M584,425 L584,392.050209 C589.28,390.878661 594.633333,390.219665 600.06,390.073222 C605.486667,389.926778 611.133333,390 617,390.292887 L617,422.364017 C611.133333,422.07113 605.413333,422.07113 599.84,422.364017 C594.266667,422.656904 588.986667,423.535565 584,425 Z M737,523 C730.736111,522.126437 723.760417,521.10728 716.072917,519.942529 C708.385417,518.777778 701.694444,517.904215 696,517.321839 L696,485 C701.979167,485.873563 708.527778,486.819923 715.645833,487.83908 C722.763889,488.858238 729.881944,489.950192 737,491.114943 L737,523 Z M850,628 C841.067797,626.58156 832.423729,625.092199 824.067797,623.531915 C815.711864,621.971631 807.355932,620.624113 799,619.489362 L799,588 C807.355932,589.134752 815.711864,590.48227 824.067797,592.042553 C832.423729,593.602837 841.067797,595.092199 850,596.510638 L850,628 Z M679,428 C671.831541,426.857143 664.806452,425.857143 657.924731,425 C651.043011,424.142857 644.734767,423.571429 639,423.285714 L639,392 C644.734767,392.285714 651.043011,392.785714 657.924731,393.5 C664.806452,394.214286 671.831541,395.142857 679,396.285714 L679,428 Z M902,719 L902,205.708783 C829.983122,191.379045 768.582278,180.345146 717.797468,172.607088 C667.012658,164.869029 631.434599,161 611.063291,161 C565.156118,161 537.468354,172.46379 528,195.391371 L528,703.093991 C541.485232,692.489985 557.265823,684.393683 575.341772,678.805085 C593.417722,673.216487 614.793249,670.422188 639.468354,670.422188 C653.240506,670.422188 669.953586,672.356703 689.607595,676.225732 C709.261603,680.094761 731.139241,685.181818 755.240506,691.486903 C780.202532,697.791988 805.308017,703.595532 830.556962,708.897535 C855.805907,714.199538 879.620253,717.567026 902,719 Z M850,543 C834.806667,540.125382 820.043333,537.394495 805.71,534.807339 C791.376667,532.220183 777.473333,529.776758 764,527.477064 L764,496 C777.473333,498.587156 791.448333,501.030581 805.925,503.330275 C820.401667,505.629969 835.093333,508.217125 850,511.091743 L850,543 Z M585,339 L585,306.625 C590.209302,305.458333 595.346253,304.729167 600.410853,304.4375 C605.475452,304.145833 610.757106,304 616.255814,304 C619.728682,304 623.635659,304.145833 627.976744,304.4375 C632.317829,304.729167 636.658915,305.166667 641,305.75 L641,338.125 C636.369509,337.541667 631.956072,337.104167 627.75969,336.8125 C623.563307,336.520833 619.728682,336.375 616.255814,336.375 C610.757106,336.375 605.475452,336.447917 600.410853,336.59375 C595.346253,336.739583 590.209302,337.541667 585,339 Z M850,457 C823.866667,452.117949 799.025641,447.666667 775.476923,443.646154 C751.928205,439.625641 730.102564,436.179487 710,433.307692 L710,401 C730.102564,404.158974 751.928205,407.820513 775.476923,411.984615 C799.025641,416.148718 823.866667,420.528205 850,425.123077 L850,457 Z M756,353 C740.544503,350.699346 725.947644,348.470588 712.209424,346.313725 C698.471204,344.156863 685.734729,342.359477 674,340.921569 L674,309 C685.734729,310.150327 698.542757,311.803922 712.424084,313.960784 C726.30541,316.117647 740.830716,318.490196 756,321.078431 L756,353 Z M584,252.146341 L584,220.560976 C589.189189,219.422764 594.306306,218.711382 599.351351,218.426829 C604.396396,218.142276 609.657658,218 615.135135,218 C621.189189,218 628.396396,218.284553 636.756757,218.853659 C645.117117,219.422764 654.198198,220.418699 664,221.841463 L664,253 C653.90991,251.577236 644.756757,250.652439 636.540541,250.22561 C628.324324,249.79878 621.189189,249.585366 615.135135,249.585366 C609.657658,249.585366 604.396396,249.656504 599.351351,249.79878 C594.306306,249.941057 589.189189,250.723577 584,252.146341 Z M850,370 C839.477855,367.706667 829.097902,365.771667 818.86014,364.195 C808.622378,362.618333 798.668998,360.826667 789,358.82 L789,327 C798.95338,329.006667 808.977855,330.798333 819.073427,332.375 C829.168998,333.951667 839.477855,335.886667 850,338.18 L850,370 Z M850,285 C821.267606,279.80597 793.9,274.900498 767.897183,270.283582 C741.894366,265.666667 718.261972,261.915423 697,259.029851 L697,227 C718.549296,230.174129 742.253521,234.069652 768.112676,238.686567 C793.971831,243.303483 821.267606,248.064677 850,252.970149 L850,285 Z M512,895 C493.355742,895 477.938375,891.34204 465.747899,884.026119 C453.557423,876.710199 445.02409,867.027363 440.147899,854.977612 L31.5140351,890.536304 C15.5580744,891.924767 1.49764067,880.115477 0.109177448,864.159516 C0.0364267671,863.323479 3.20771951e-14,862.484678 0,861.645481 L0,237.306137 C-1.8186325e-15,222.455876 11.2182666,210.005217 25.9882255,208.462954 L62.3524539,204.66584 C69.3742286,203.932634 75.6608827,209.030526 76.394089,216.0523 C76.4937819,217.007041 76.4856168,217.969973 76.3697479,218.922886 C75.230549,228.291726 67.8864107,235.697098 58.5273525,236.914047 L52.9210084,237.643035 C40.6157994,239.24307 31.4084034,249.725206 31.4084034,262.134004 L31.4084034,826.738081 C31.4084034,842.754339 44.3921456,855.738081 60.4084034,855.738081 C61.2625703,855.738081 62.1163201,855.700343 62.9671557,855.624977 L444.800337,821.802841 C452.7075,821.101687 460.047401,825.966006 462.481851,833.521685 C466.133831,844.846715 470.449405,852.572488 475.428571,856.699005 C485.467787,865.019071 497.658263,869.179104 512,869.179104 C526.341737,869.179104 538.532213,865.019071 548.571429,856.699005 C553.713994,852.43707 558.038055,844.335773 561.543611,832.395115 C563.558103,825.534183 570.135395,821.049014 577.258137,821.679179 L961.036179,855.628943 C976.990134,857.040262 991.06747,845.251125 992.478788,829.29717 C992.553957,828.447438 992.591597,827.594802 992.591597,826.741752 L992.591597,262.134004 C992.591597,249.725206 983.384201,239.24307 971.078992,237.643035 L965.426803,236.908086 C956.149499,235.701767 948.941347,228.23673 948.060504,218.922886 C947.380143,211.728887 952.660489,205.345457 959.854487,204.665096 C960.721351,204.583114 961.594234,204.587869 962.460154,204.679292 L998.044872,208.436297 C1012.80039,209.994172 1024,222.438471 1024,237.276005 L1024,861.645481 C1024,877.661739 1011.01626,890.645481 995,890.645481 C994.160803,890.645481 993.322002,890.609055 992.485965,890.536304 L583.852101,854.977612 L583.852101,854.977612 C578.97591,867.027363 570.442577,876.710199 558.252101,884.026119 C546.061625,891.34204 530.644258,895 512,895 Z" id="path-1"></path>
    </defs>
    <g id="guide" stroke="none" stroke-width="1" fill="none" fill-rule="evenodd">
        <mask id="mask-2" fill="white">
            <use xlink:href="#path-1"></use>
        </mask>
        <use id="Mask" fill="var(--color-primary)" fill-rule="nonzero" xlink:href="#path-1"></use>
    </g>
</svg>