<svg width="1024" height="1024" viewBox="0 0 1024 1024" fill="none" xmlns="http://www.w3.org/2000/svg">
<g id="dexter-app" clip-path="url(#clip0_183_2)">
<rect width="1024" height="1024" fill="white"/>
<g id="Group">
<path id="Vector" d="M780.15 29.1219C777.822 29.7275 772.694 32.2665 769.892 34.1999C766.4 36.6194 757.952 44.5188 756.572 46.6138C756.098 47.381 754.719 49.0727 753.557 50.444C752.392 51.814 751.099 53.4664 750.71 54.152C748.169 58.5036 745.926 62.0107 744.289 64.1464C743.256 65.5177 742.134 67.3303 741.744 68.1776C741.357 69.0642 739.849 71.4823 738.342 73.6181C736.875 75.7144 735.108 78.4557 734.461 79.6641C732.737 82.848 730.497 86.2736 727.823 89.7006C726.529 91.353 724.85 94.0929 724.031 95.7453C723.211 97.3977 722.349 99.1315 722.091 99.5741C721.832 100.018 720.409 102.557 718.945 105.258C717.48 107.917 715.627 111.101 714.807 112.311C713.987 113.52 712.995 115.012 712.608 115.697C710.41 119.283 709.29 121.056 707.824 123.233C706.962 124.523 705.326 127.305 704.247 129.318C700.496 136.493 697.78 141.009 695.969 143.143C695.237 144.031 693.384 146.812 691.876 149.352C688.126 155.638 685.971 158.822 683.644 161.441C681.143 164.263 678.946 167.043 677.091 169.744C676.274 170.914 675.454 171.962 675.238 172.083C675.023 172.204 674.118 173.373 673.212 174.622C672.306 175.912 670.411 178.329 668.945 179.984C663.557 186.15 657.006 195.096 654.679 199.408C653.859 200.94 651.445 204.407 649.333 207.108C647.222 209.808 645.022 212.63 644.507 213.353C643.386 214.805 634.808 222.142 631.49 224.397C628.041 226.817 625.885 227.541 621.144 227.986C616.962 228.388 611.532 228.469 611.015 228.187C610.583 227.945 598.084 230.04 595.887 230.726C592.869 231.693 587.697 233.143 586.187 233.508C576.1 235.884 563.646 237.82 560.843 237.458C559.852 237.335 557.482 237.133 555.585 236.973C551.446 236.69 548.947 236.005 544.378 233.951C536.75 230.486 530.154 226.09 523.258 219.843C514.766 212.145 512.309 209.849 510.11 207.389C508.819 205.939 507.612 204.729 507.439 204.649C507.267 204.567 506.405 203.56 505.5 202.433C504.593 201.264 502.956 199.248 501.794 197.917C500.671 196.587 499.12 194.493 498.387 193.283C497.655 192.073 496.922 190.985 496.748 190.864C496.619 190.743 495.628 189.574 494.595 188.245C493.604 186.914 492.008 185.141 491.101 184.336C490.155 183.488 489.422 182.641 489.422 182.44C489.422 182.239 488.302 181.03 486.879 179.74C483.731 176.797 479.25 171.762 478.387 170.269C478.042 169.624 476.922 167.972 475.844 166.561C474.811 165.151 473.559 163.134 473.087 162.128C472.138 160.112 467.05 151.687 466.579 151.365C466.405 151.245 465.846 150.278 465.327 149.19C464.81 148.062 463.948 146.611 463.432 145.964C462.87 145.28 461.492 143.184 460.37 141.33C459.206 139.436 457.914 137.541 457.482 137.098C457.052 136.656 456.534 135.929 456.405 135.487C456.232 135.002 455.543 133.875 454.896 132.948C454.207 132.019 453.646 131.174 453.646 131.013C453.646 130.891 452.871 129.279 451.964 127.465C449.379 122.386 446.75 116.744 446.75 116.181C446.708 114.448 442.915 105.217 441.19 102.637C440.501 101.63 439.337 99.5741 438.604 98.1241C437.872 96.6726 436.965 95.2212 436.62 94.9401C436.232 94.617 435.629 93.8512 435.241 93.1669C434.896 92.4813 433.13 90.1039 431.405 87.8866C427.958 83.5337 425.889 80.6322 422.182 74.7871C420.888 72.7315 419.122 70.3133 418.302 69.386C417.441 68.4994 416.232 67.0886 415.587 66.2428C414.941 65.4363 414.208 64.5497 413.905 64.2279C413.56 63.9455 412.656 62.8973 411.836 61.8898C410.112 59.8342 405.414 55.6021 402.7 53.628C401.664 52.9016 398.819 51.2492 396.32 49.9593C393.863 48.7102 390.716 46.8962 389.38 46.0096C386.405 44.0355 381.45 41.4557 378.215 40.2867C376.924 39.8034 374.855 39.0376 373.648 38.5936C371.019 37.5861 362.958 36.6995 359.985 37.0621C357.527 37.3852 354.984 38.3927 351.233 40.6085C347.657 42.6641 344.812 46.3328 340.372 54.3123C337.613 59.3509 336.321 62.3338 334.036 69.0234C332.485 73.6181 330.329 79.8651 329.296 82.8888C328.26 85.9111 327.182 89.539 326.924 90.9497C326.709 92.3604 326.191 94.4161 325.848 95.5036C325.502 96.5925 325.199 98.0833 325.199 98.8084C325.199 99.5348 324.899 100.985 324.511 102.033C324.121 103.081 323.562 105.943 323.217 108.401C322.917 110.86 322.355 113.882 321.968 115.092C321.623 116.302 321.322 117.752 321.322 118.315C321.322 118.881 320.545 121.943 319.641 125.168C314.036 144.877 313.736 146.046 313.348 149.272C313.219 150.642 312.829 152.495 312.485 153.34C312.183 154.228 311.667 157.049 311.407 159.629C311.149 162.208 310.631 165.071 310.287 165.956C309.985 166.803 309.598 168.736 309.425 170.23C309.296 171.721 308.777 174.298 308.347 175.953C307.915 177.605 307.269 181.676 306.924 185.02C306.579 188.325 306.02 191.953 305.632 193.082C305.287 194.17 304.771 197.073 304.511 199.529C304.251 201.948 303.735 204.85 303.39 205.978C303.046 207.067 302.097 214.522 301.277 222.505C300.46 230.486 299.511 238.021 299.166 239.231C298.563 241.365 297.872 244.388 295.89 253.135C295.372 255.351 294.597 258.414 294.165 259.988C293.692 261.52 292.571 265.631 291.624 269.055C288.907 278.971 288.261 281.309 284.855 292.028C284.08 294.567 283.218 297.754 283.002 299.082C282.787 300.411 282.398 302.025 282.098 302.71C281.84 303.356 281.02 309.602 280.331 316.614C278.391 335.76 278.692 339.105 284.726 361.554C285.416 364.214 287.227 369.294 288.778 372.84C290.288 376.388 291.967 380.458 292.486 381.91C293.003 383.36 293.778 385.213 294.21 386.021C294.943 387.388 294.943 387.592 294.339 388.962C293.303 391.299 292.7 397.183 293.303 399.078C294.294 402.142 294.554 409.556 293.907 415.765C293.606 418.989 293.219 425.154 293.132 429.469C292.916 438.456 291.624 450.71 290.502 454.255C287.572 463.808 283.176 474.408 280.633 478.196C279.986 479.123 278.908 481.218 278.262 482.833C277.571 484.444 276.451 486.579 275.761 487.547C274.382 489.441 272.226 493.31 270.201 497.582C269.511 499.033 267.745 502.38 266.237 504.998C264.727 507.618 263.047 510.884 262.485 512.255C261.924 513.625 259.727 518.501 257.571 523.135C255.415 527.731 253.349 532.567 252.959 533.816C252.572 535.066 251.797 536.879 251.28 537.888C249.986 540.306 245.847 551.994 244.642 556.629C244.123 558.604 243.434 561.143 243.09 562.27C242.788 563.359 242.398 565.092 242.227 566.1C242.098 567.108 241.581 569.525 241.107 571.542C240.676 573.515 239.599 582.141 238.78 590.687C237.96 599.231 237.14 607.291 237.011 608.621C236.494 613.178 236.798 629.298 237.485 634.015C237.572 634.659 237.744 637.4 237.918 640.06C238.047 642.72 238.218 645.622 238.347 646.508C238.476 647.394 238.65 649.572 238.78 651.345C238.909 653.117 239.296 656.18 239.641 658.197C239.987 660.171 240.374 662.912 240.503 664.243C240.676 665.572 240.934 667.75 241.149 669.08C241.883 673.674 241.323 692.86 240.116 705.15C239.468 711.48 238.693 717.525 238.347 718.653C238.047 719.742 237.615 721.556 237.485 722.684C237.185 724.618 236.538 727.439 234.642 734.977C231.625 746.867 229.34 753.839 225.246 763.271C224.039 766.093 223.048 768.552 223.048 768.712C223.048 768.873 222.399 770.042 221.582 771.29C220.805 772.5 219.728 774.516 219.254 775.765C218.736 777.016 216.797 780.36 214.945 783.222C210.849 789.468 207.529 795.274 206.322 798.255C205.848 799.506 204.253 802.286 202.788 804.502C199.772 809.015 198.393 811.474 197.616 813.732C197.314 814.578 196.452 816.312 195.634 817.56C194.858 818.81 193.693 821.027 193.089 822.559C192.488 824.05 191.281 826.67 190.332 828.403C189.427 830.094 188.349 832.514 187.918 833.724C187.487 834.932 186.71 836.785 186.151 837.794C185.634 838.802 184.643 841.138 183.995 843.034C183.391 844.887 182.487 847.065 182.1 847.829C181.668 848.596 179.943 852.868 178.219 857.302C176.495 861.735 174.555 866.733 173.91 868.386C173.219 870.038 172.356 872.658 171.969 874.229C171.581 875.761 170.633 878.863 169.858 881.082C169.083 883.296 167.876 886.643 167.229 888.537C166.582 890.431 165.634 892.688 165.073 893.576C163.607 895.993 159.556 907.077 158.219 912.317C157.573 914.856 156.669 918.402 156.195 920.136C155.72 922.11 154.772 929.81 153.823 939.685C152.273 956.047 152.273 956.047 150.85 958.949C150.03 960.563 148.824 962.577 148.134 963.384C147.443 964.229 145.506 967.372 143.781 970.357C142.1 973.339 140.118 976.804 139.385 978.014C136.109 983.616 133.781 988.492 133.393 990.508C132.444 995.708 131.669 1006.55 132.144 1008.56C132.789 1011.55 136.066 1016.54 139.34 1019.65C144.772 1024.81 155.204 1029.76 166.972 1032.83C170.806 1033.84 174.383 1034.28 189.211 1035.65C204.771 1037.06 207.4 1037.42 211.193 1038.47C213.564 1039.16 218.047 1040.45 221.108 1041.29C228.693 1043.47 238.476 1046.81 239.9 1047.78C240.547 1048.22 241.925 1048.91 242.961 1049.35C245.288 1050.32 253.736 1055.4 257.226 1057.94C258.693 1058.99 261.278 1060.68 262.918 1061.73C264.598 1062.77 266.796 1064.31 267.874 1065.19C268.952 1066.04 270.675 1067.17 271.753 1067.69C272.83 1068.21 274.382 1069.3 275.202 1070.11C276.019 1070.95 278.346 1072.65 280.373 1073.86C282.398 1075.07 285.287 1077.04 286.84 1078.17C290.546 1080.91 296.277 1084.1 299.812 1085.35C301.364 1085.91 303.475 1086.76 304.554 1087.24C306.666 1088.29 315.285 1091.67 321.968 1094.17C330.287 1097.23 334.338 1098.52 339.338 1099.69C345.716 1101.14 356.233 1104.09 367.052 1107.43C369.121 1108.08 371.19 1108.6 371.708 1108.6C372.182 1108.6 374.38 1109.13 376.579 1109.81C384.724 1112.23 408.863 1117.55 417.01 1118.72C423.215 1119.6 429.165 1120.85 434.596 1122.34C446.621 1125.73 449.637 1126.21 464.465 1127.54C482.44 1129.12 481.533 1128.99 484.509 1129.68C485.888 1130.04 487.912 1130.41 488.99 1130.53C492.482 1130.97 505.887 1133.51 511.834 1134.84C513.603 1135.24 519.55 1135.93 524.983 1136.37C530.456 1136.85 535.972 1137.49 537.266 1137.86C538.559 1138.23 546.058 1139.11 553.861 1139.84C565.586 1140.89 569.464 1141.09 575.842 1140.97C580.11 1140.89 593.213 1140.76 604.936 1140.68C616.662 1140.6 628.214 1140.32 630.583 1140.09C637.308 1139.43 640.971 1139.23 652.568 1139.03C658.514 1138.9 665.109 1138.67 667.222 1138.43C669.378 1138.23 673.083 1137.86 675.541 1137.66C677.953 1137.42 680.109 1137.18 680.28 1137.1C680.454 1136.98 681.745 1136.77 683.17 1136.65C693.729 1135.56 699.85 1134.15 705.326 1131.58C707.178 1130.69 708.902 1129.96 709.116 1129.96C709.377 1129.96 710.797 1129.2 712.35 1128.23C713.901 1127.3 717.177 1125.81 719.633 1124.96C726.358 1122.71 728.299 1121.74 731.359 1119.32L734.16 1117.14L740.969 1116.66C748.987 1116.14 750.625 1115.85 754.29 1114.24C755.797 1113.56 757.306 1113.03 757.608 1113.03C759.073 1112.99 771.703 1108.12 773.254 1106.99C773.512 1106.83 774.677 1106.18 775.839 1105.54C777.047 1104.93 778.683 1104.09 779.503 1103.64C780.323 1103.2 781.573 1102.39 782.264 1101.87C782.995 1101.31 785.108 1100.18 787.004 1099.37C788.944 1098.52 792.694 1096.43 795.365 1094.65C798.038 1092.92 801.745 1090.62 803.599 1089.58C807.306 1087.48 812.951 1082.28 814.418 1079.58C814.934 1078.61 815.754 1075.39 816.4 1071.8C817.52 1065.8 817.52 1065.6 816.831 1061.45C816.487 1059.11 816.055 1056.2 815.925 1055C815.493 1051.37 814.418 1045.56 813.77 1043.27C813.427 1042.06 812.736 1039.2 812.262 1036.86C810.021 1026.02 807.435 1017.27 804.504 1011.06C803.125 1008.08 801.83 1005.06 801.659 1004.41C801.485 1003.73 800.882 1002.24 800.323 1001.03C799.761 999.82 798.815 996.957 798.212 994.66C797.263 990.91 796.616 989.339 794.373 985.671C792.908 983.254 790.712 978.697 790.107 976.804C789.718 975.635 788.169 972.21 786.615 969.187C785.063 966.165 783.813 963.545 783.813 963.384C783.813 963.22 782.822 961.045 781.615 958.547C779.159 953.427 774.978 941.981 774.332 938.314C774.074 936.984 773.383 933.962 772.778 931.623C772.22 929.285 771.745 926.826 771.745 926.141C771.745 925.498 771.442 924.045 771.099 922.998C770.754 921.909 770.367 919.772 770.238 918.201C769.979 915.664 768.469 907.804 767.436 903.853C766.445 899.903 766.445 900.104 767.565 900.308C768.598 900.508 770.322 900.308 782.09 898.652C789.331 897.646 791.055 897.242 798.683 894.705C804.117 892.89 810.882 889.626 813.986 887.327C816.142 885.716 825.494 876.768 828.555 873.382C834.115 867.297 836.787 862.299 839.977 852.262C841.313 848.112 842.692 835.657 842.263 831.749C841.744 827.273 840.02 820.1 837.562 812.563C836.271 808.573 835.064 804.703 834.891 803.978C834.16 800.633 828.252 791.162 823.425 785.56C822.476 784.43 821.185 782.618 820.581 781.529C818.511 777.78 811.917 769.074 806.228 762.584C799.245 754.565 798.296 753.517 796.572 751.38C795.796 750.454 791.961 746.746 788.038 743.117C781.012 736.63 780.883 736.429 777.134 730.422C773.512 724.497 772.607 722.199 772.823 719.621C773.038 717.685 773.77 714.984 774.677 713.213C775.152 712.204 775.926 710.592 776.443 709.583C777.692 706.966 781.141 701.12 782.306 699.71C782.822 699.025 784.591 696.325 786.27 693.664C787.909 691.004 790.107 687.498 791.184 685.927C793.211 682.781 798.296 676.938 800.278 675.367L801.53 674.438L804.891 675.728C806.744 676.415 809.417 677.099 810.795 677.22C812.22 677.341 814.589 677.785 816.142 678.188C822.218 679.839 829.288 679.396 841.744 676.536C847.26 675.246 848.425 674.843 855.495 671.737C857.562 670.852 859.373 670.086 859.502 670.086C860.193 670.086 866.917 666.702 868.77 665.451C869.89 664.645 871.614 663.154 872.563 662.066C874.63 659.769 879.933 651.626 880.924 649.248C881.313 648.323 882.304 646.346 883.166 644.855C883.986 643.324 884.673 641.913 884.673 641.712C884.673 641.27 886.527 636.512 889.287 629.904C890.924 625.913 891.227 624.624 891.83 619.423C892.821 610.637 892.605 608.662 888.985 594.716C888.467 592.822 887.735 589.759 887.26 587.826C886.397 584.077 884.331 578.998 882.691 576.741L881.658 575.331L883.511 572.024C885.751 568.114 887.26 564.649 888.596 560.257C889.977 555.703 890.02 546.793 888.641 540.709C887.26 534.624 886.14 530.714 884.847 527.771C881.184 519.307 879.804 517.01 875.45 512.294C871.183 507.698 861.4 498.912 858.382 496.979C856.83 496.011 855.02 494.721 854.288 494.117C853.597 493.552 851.831 492.301 850.408 491.416C848.985 490.489 847.476 489.48 847.089 489.119C846.656 488.756 845.194 487.95 843.813 487.346C841.614 486.337 841.056 485.855 839.028 482.952C837.778 481.138 836.097 478.801 835.322 477.712C834.502 476.664 833.555 474.85 833.21 473.642C832.606 471.707 832.606 471.303 833.168 469.772C833.51 468.806 834.029 466.427 834.244 464.411C834.502 462.436 834.891 460.503 835.106 460.098C835.322 459.736 835.667 458.407 835.883 457.238C836.142 456.029 836.616 453.974 836.959 452.643C837.349 451.312 838.037 446.153 838.553 441.156C840.02 425.962 839.286 415.925 835.839 404.034C833.426 395.895 832.519 392.105 831.657 386.464L830.84 381.102L831.916 370.745C833.726 353.01 833.468 349.02 829.978 340.596C827.39 334.269 824.071 329.957 817.133 323.709C813.298 320.324 813.037 319.718 814.16 317.299C814.934 315.566 818.943 312.021 825.407 307.263C831.357 302.911 836.184 297.875 838.295 293.843C839.676 291.223 839.847 290.497 840.538 283.768C841.314 276.229 841.442 267.001 840.969 256.963C840.58 248.339 839.891 239.11 839.373 235.2C838.64 229.839 838.598 229.517 838.34 226.655C837.821 221.254 835.968 210.937 834.288 204.367C832.908 198.965 832.477 196.547 831.228 187.036C830.192 179.137 828.985 171.842 827.693 165.673C826.486 159.87 824.59 150.116 822.176 137.42C821.744 134.922 821.056 132.18 820.668 131.295C819.891 129.563 818.727 125.532 816.184 115.898C812.436 101.912 810.969 96.6319 810.58 95.6245C809.762 93.6503 807.132 81.7999 806.444 77.2052C805.84 72.9338 805.108 69.0234 803.383 60.4791C802.434 55.7229 801.185 52.1358 798.857 47.3809C797.737 45.0429 796.401 41.7381 795.883 39.9636C794.202 33.9582 792.908 32.0642 789.46 30.291C787.735 29.4451 786.528 29.1627 784.117 29.0418C782.393 28.9617 780.623 29.0011 780.15 29.1219ZM376.75 99.3732C377.57 100.582 378.562 102.598 378.907 103.806C379.251 105.016 380.329 107.837 381.234 110.053C382.138 112.27 383.087 115.051 383.345 116.22C384.207 120.13 388.821 129.643 392.052 134.076C392.959 135.325 394.466 137.863 395.415 139.719C396.363 141.572 397.873 144.192 398.777 145.522C399.726 146.852 400.802 148.746 401.233 149.714C401.622 150.722 402.353 151.972 402.787 152.575C403.649 153.664 407.526 161.2 407.526 161.724C407.526 161.927 407.958 162.692 408.518 163.458C409.078 164.223 410.156 166.32 410.974 168.093C411.752 169.865 413.217 172.565 414.25 174.058C415.285 175.548 416.406 177.364 416.708 178.087C417.052 178.814 418.69 181.635 420.329 184.417C422.008 187.198 423.518 189.898 423.691 190.462C424.122 191.792 426.967 196.911 429.036 200.134C430.715 202.714 432.267 204.729 436.406 209.808C437.569 211.258 439.25 213.435 440.112 214.643C441.017 215.853 443.26 218.353 445.113 220.165C446.966 222.019 449.207 224.559 450.111 225.808C451.664 228.066 472.096 247.654 476.06 250.717C477.138 251.524 478.818 252.852 479.854 253.619C483.127 256.158 488.302 262.606 489.335 265.386C489.852 266.758 489.768 266.921 487.699 269.822C484.076 274.94 480.112 278.85 476.707 280.662C472.18 283.041 467.353 286.465 461.492 291.424C457.827 294.487 450.241 307.668 445.717 318.712C444.81 320.887 443.948 322.74 443.777 322.861C443.603 322.944 443.215 322.62 442.957 322.136C442.354 321.088 440.112 315.365 438.948 311.941C437.31 307.103 429.294 293.318 427.18 291.666C426.793 291.385 425.673 289.732 424.682 288.04C422.224 283.929 416.016 277.841 412.743 276.471C410.112 275.344 404.036 274.497 401.191 274.859C399.251 275.101 396.75 276.189 395.242 277.398C392.959 279.252 390.674 283.404 390.07 286.751C389.899 287.716 389.509 289.086 389.208 289.773C388.001 292.474 387.181 305.611 387.398 318.187L387.656 330.117L385.931 334.148C384.985 336.364 383.907 338.581 383.475 339.065C382.787 339.912 382.657 339.953 381.493 339.386C378.691 338.016 375.63 337.492 371.19 337.654C366.923 337.775 366.71 337.816 364.641 339.226C361.063 341.604 358.003 347.287 355.889 355.51C355.631 356.395 355.026 358.573 354.51 360.345C353.993 362.118 353.476 364.013 353.347 364.577C353.26 365.143 352.957 366.35 352.699 367.277L352.227 369.01L351.02 368.325C349.122 367.277 340.416 358.452 338.045 355.227C336.88 353.614 335.502 351.72 334.943 350.995C333.736 349.462 332.311 345.756 329.813 337.574C327.442 329.957 326.622 325.603 326.278 319.034C325.977 313.471 326.882 303.072 327.915 300.291C328.26 299.405 328.648 297.591 328.822 296.26C328.993 294.932 329.425 293.037 329.726 292.028C330.287 290.336 331.191 287.193 332.787 281.348C333.131 280.019 333.736 278.003 334.036 276.915C334.381 275.787 334.769 274.094 334.943 273.086C335.114 272.077 335.889 269.096 336.666 266.436C337.484 263.816 338.132 261.237 338.132 260.752C338.132 260.23 338.691 258.414 339.381 256.682C340.07 254.949 340.761 252.731 340.89 251.725C341.063 250.717 341.752 248.379 342.441 246.485C343.13 244.591 343.992 242.052 344.337 240.842C345.458 237.174 346.794 232.7 347.442 230.566C347.743 229.436 348.433 227.299 348.906 225.769C349.381 224.277 349.768 222.544 349.768 221.938C349.768 221.375 350.113 219.723 350.588 218.273C351.02 216.821 351.536 214 351.708 212.024C351.882 210.009 352.786 205.576 353.69 202.149C354.597 198.724 355.371 195.42 355.371 194.854C355.371 194.251 355.675 193.001 356.018 192.033C356.407 191.065 356.88 189.252 357.054 188.042C357.269 186.834 357.7 184.739 358.087 183.408C358.432 182.078 358.865 179.699 358.994 178.128C359.123 176.596 359.51 174.663 359.856 173.896C360.156 173.132 360.673 170.511 360.889 168.093C361.147 165.634 361.622 162.933 361.967 162.047C362.312 161.16 362.7 159.346 362.872 158.017C363.045 156.686 363.432 154.792 363.779 153.785C364.079 152.776 364.554 150.479 364.812 148.626C365.07 146.812 365.458 144.958 365.716 144.554C366.235 143.588 366.58 140.645 368.518 120.331C369.553 109.691 370.372 103.081 370.89 101.388C371.319 99.938 371.795 97.5185 371.966 95.9883C372.095 94.4554 372.355 93.0054 372.484 92.8031C372.613 92.5614 373.302 93.4887 373.993 94.7786C374.639 96.0684 375.888 98.1634 376.75 99.3732ZM778.125 100.461C779.158 104.693 779.806 109.812 780.15 116.704C780.539 123.757 781.744 130.973 783.555 136.736C784.375 139.436 785.15 142.499 785.279 143.588C785.408 144.635 785.624 146.531 785.753 147.738C785.882 148.947 786.186 151.125 786.444 152.575C786.702 154.027 787.047 156.646 787.262 158.419C787.477 160.151 788.082 162.973 788.598 164.667C789.116 166.32 790.064 169.504 790.754 171.721C792.004 175.912 792.175 176.717 792.649 180.386C792.823 181.596 792.995 182.682 793.082 182.804C793.124 182.925 793.34 184.093 793.469 185.423C794.115 191.105 794.676 194.331 795.451 196.627C795.883 197.997 796.487 200.134 796.745 201.344C797.047 202.554 797.737 204.85 798.254 206.381C799.287 209.446 799.461 210.21 800.194 216.459C800.452 218.674 801.055 222.947 801.485 225.929C803.512 239.673 803.254 251.966 800.752 259.744C800.149 261.64 799.416 264.3 799.116 265.631C798.857 266.96 798.212 269.096 797.692 270.386C797.176 271.676 796.53 273.57 796.272 274.618C795.496 278.003 792.908 283.404 789.505 288.844C784.462 296.907 784.288 297.148 779.416 301.5C774.332 306.094 772.003 308.875 770.28 312.504C768.34 316.655 767.736 322.781 768.943 326.489C769.289 327.578 769.505 328.505 769.46 328.546C769.418 328.587 768.124 327.941 766.574 327.093C761.228 324.151 744.763 309.804 739.978 303.919C738.513 302.146 734.979 298.518 732.091 295.858C726.487 290.7 720.583 284.411 718.858 281.751C718.255 280.863 717.048 279.413 716.143 278.528C715.237 277.64 713.816 275.828 712.995 274.497C712.177 273.166 710.281 270.224 708.773 267.927C707.263 265.631 705.455 262.93 704.763 261.882C704.117 260.833 703.039 259.422 702.394 258.778C701.745 258.093 699.634 254.587 697.694 250.998C695.195 246.405 693.384 243.705 691.747 241.972C689.29 239.391 689.29 239.391 689.677 237.174C689.893 236.005 690.54 235.32 693.342 233.143C695.798 231.289 697.91 229.114 700.754 225.527C705.884 219.117 710.581 213.072 713.342 209.404C714.549 207.831 716.618 205.131 717.996 203.439C719.375 201.747 721.142 199.408 721.961 198.322C722.736 197.194 723.859 195.902 724.463 195.378C725.021 194.854 726.745 192.64 728.254 190.421C729.764 188.204 732.824 184.093 735.022 181.312C737.177 178.53 738.987 176.154 738.987 175.953C738.987 175.79 739.72 174.784 740.624 173.695C742.264 171.721 743.9 168.899 750.625 156.285C753.686 150.518 756.746 143.425 758.642 137.662C758.944 136.656 760.324 134.076 761.615 131.898C762.952 129.764 764.375 127.022 764.804 125.853C765.237 124.725 766.142 122.669 766.789 121.34C768.385 117.993 771.574 110.417 772.565 107.555C774.074 103.364 776.831 96.9958 777.221 96.9551C777.263 96.9551 777.65 98.5273 778.125 100.461ZM664.548 308.191C670.411 314.438 675.67 322.861 678.472 330.48C682.35 340.918 682.608 341.927 684.074 351.077C684.461 353.493 685.152 357.363 685.584 359.66C686.013 361.956 686.401 364.376 686.401 365.061C686.401 365.706 686.704 367.478 687.049 368.97C687.866 372.437 689.419 380.458 689.677 382.513C690.066 385.656 691.144 389.445 693.945 397.426C695.54 401.859 697.178 407.1 697.651 409.114C698.083 411.088 698.859 414.113 699.334 415.765C699.808 417.416 700.454 419.876 700.799 421.206C702.868 429.629 707.824 438.617 714.375 445.952C717.48 449.459 718.987 450.749 721.961 452.602C724.721 454.295 726.229 454.78 730.108 455.102C734.246 455.464 736.746 455.061 738.816 453.812C742.522 451.554 744.031 448.331 744.331 442.205C744.463 439.262 744.289 438.093 743.469 435.755C742.091 431.685 739.633 425.278 739.204 424.591C738.816 423.947 736.315 420.319 734.632 417.94C733.988 417.014 733.341 415.845 733.167 415.32C732.953 414.797 732.35 413.628 731.788 412.782C731.185 411.935 730.368 410.243 729.935 409.114C729.506 407.945 728.857 406.534 728.514 406.011C728.125 405.526 727.436 403.351 726.919 401.254C726.4 399.159 725.712 396.78 725.409 396.015C724.331 393.275 723.082 386.866 722.868 382.916C722.736 380.7 722.523 378.442 722.394 377.879C722.178 376.87 721.919 373.363 721.532 365.987C721.316 361.837 721.229 361.273 720.196 356.153C719.891 354.501 719.678 353.09 719.762 353.01C719.978 352.768 725.97 355.992 728.254 357.605C729.461 358.452 731.572 360.064 732.91 361.192C738.987 366.35 743.643 369.091 749.676 371.067C757.263 373.566 763.21 375.016 767.823 375.5C771.961 375.983 772.391 376.104 773.427 377.193C774.03 377.879 775.323 379.168 776.314 380.054C777.263 380.981 778.728 382.513 779.503 383.521C780.323 384.527 781.917 386.382 783.081 387.633C784.246 388.923 785.063 389.968 784.934 389.968C784.762 389.968 783.513 389.525 782.133 388.962C779.203 387.834 771.142 386.906 766.745 387.267C763.729 387.471 759.417 389.164 756.53 391.259C753.77 393.235 750.754 396.257 749.805 397.99C747.865 401.537 747.133 415.483 748.643 420.801C750.883 428.863 753.47 435.434 756.185 439.947C757.048 441.398 757.995 443.09 758.297 443.736C760.495 448.411 769.589 458.407 775.71 462.799C777.692 464.25 781.486 467.031 783.168 468.28C783.9 468.846 785.237 469.691 786.186 470.216C787.693 471.021 790.367 472.795 795.236 476.101C795.925 476.584 797.608 477.712 798.9 478.56C801.83 480.454 805.408 483.073 809.848 486.619C812.952 489.078 814.847 490.69 821.011 496.011L823.125 497.784L818.425 497.422C813.34 497.018 808.384 497.462 802.995 498.832C801.356 499.234 798.038 499.921 795.667 500.364C793.298 500.766 790.107 501.412 788.555 501.775C787.004 502.136 783.813 502.782 781.444 503.185C779.073 503.628 776.314 504.273 775.281 504.596C774.245 504.957 772.436 505.322 771.184 505.482C769.935 505.644 768.298 506.007 767.478 506.288C766.703 506.612 765.753 506.854 765.409 506.854C764.33 506.854 754.978 510.68 750.625 512.899C745.754 515.398 739.849 519.75 735.582 524.023C730.281 529.303 727.737 535.187 726.703 544.337C725.97 551.107 726.099 552.598 727.737 556.789C731.314 565.939 737.952 574.081 754.59 589.88C755.884 591.09 758.555 593.345 760.54 594.919C762.522 596.45 764.849 598.384 765.711 599.151C770.322 603.342 773.599 605.398 781.573 609.147C784.978 610.758 788.642 612.652 789.762 613.379C790.883 614.102 792.175 614.869 792.649 615.151C797.221 617.73 799.332 618.981 799.503 619.222C799.806 619.665 797.479 627.806 795.969 631.596C793.856 636.876 793.34 637.882 791.184 641.069C790.022 642.72 788.555 644.976 787.909 646.104C786.444 648.524 777.866 656.585 775.194 658.117C773.47 659.043 770.709 660.332 766.358 662.228C764.417 663.072 758.599 664.848 754.503 665.854C752.479 666.38 749.418 667.184 747.652 667.626C743.513 668.756 735.495 670.086 732.695 670.086C731.488 670.086 729.461 670.247 728.168 670.45C726.874 670.651 724.763 670.934 723.469 671.054C722.178 671.174 720.54 671.376 719.807 671.456C719.117 671.577 717.909 671.737 717.177 671.861C716.402 671.941 710.71 671.577 704.463 671.054C695.152 670.247 692.048 669.804 687.479 668.715C684.419 667.951 680.712 667.224 679.289 667.063C676.661 666.822 674.074 666.259 664.419 664.001C661.446 663.314 658.039 662.59 656.79 662.429C651.187 661.622 637.997 657.269 628.645 653.158C614.506 646.952 609.334 643.809 596.962 633.973C593.902 631.556 589.721 628.289 587.697 626.758C585.67 625.226 583.945 623.897 583.817 623.776C583.688 623.615 582.351 622.526 580.801 621.317C579.248 620.109 577.912 618.981 577.783 618.86C577.05 618.053 567.913 611.806 565.196 610.275C563.43 609.267 558.3 606.969 553.818 605.156C549.335 603.342 543.042 600.723 539.853 599.352C529.551 594.839 526.232 593.951 516.361 593.023C506.836 592.138 505.455 592.218 499.336 594.192C491.964 596.571 487.612 599.593 486.448 603.14C485.543 606.003 484.594 616.803 484.854 621.317C485.241 628.089 487.137 632.12 492.742 637.843C497.655 642.881 502.052 647.999 507.525 654.971C510.24 658.399 513.948 662.549 518.559 667.224C521.534 670.287 523.86 673.755 526.965 679.759C528.43 682.54 530.025 685.603 530.543 686.612C532.05 689.392 535.498 694.632 537.439 697.049C540.024 700.194 541.274 702.169 543.084 705.997C543.991 707.851 545.24 710.109 545.844 710.994C546.447 711.882 547.395 713.494 547.956 714.623C548.515 715.712 549.422 717.203 549.98 717.887C550.584 718.614 552.482 722.403 554.249 726.35C558.344 735.622 560.068 738.846 562.997 742.594C564.292 744.287 567.05 748.116 569.162 751.099C572.698 756.138 576.749 761.094 583.861 769.074C587.781 773.387 596.662 781.124 600.714 783.665C607.221 787.776 615.368 791.967 626.101 796.805C634.162 800.43 635.97 800.956 642.566 801.519L648.513 802.003L649.42 803.656C651.014 806.559 654.505 811.152 657.091 813.693C658.472 815.063 659.506 816.353 659.377 816.553C659.03 817.078 652.61 816.433 650.065 815.626C648.816 815.224 646.36 814.256 644.593 813.49C642.824 812.725 640.109 811.676 638.557 811.193C635.195 810.063 624.204 806.034 622.396 805.269C621.704 804.987 619.98 804.341 618.557 803.898C615.497 802.93 608.299 799.343 604.636 796.965C594.722 790.557 591.36 788.3 588.171 785.882C586.187 784.391 583.645 782.455 582.525 781.65C581.402 780.843 576.447 776.45 571.491 771.856C566.532 767.262 561.188 762.545 559.636 761.376C558.083 760.168 555.843 758.233 554.681 757.023C553.516 755.813 550.542 753.196 548.043 751.219C543.559 747.593 540.757 744.852 537.568 740.862C536.663 739.733 534.422 737.273 532.567 735.38C530.758 733.485 527.914 730.301 526.275 728.327C524.68 726.311 520.412 721.394 516.835 717.324C513.257 713.293 509.249 708.337 507.956 706.36C505.283 702.33 499.551 694.552 496.448 690.723C493.949 687.619 485.974 679.96 483.602 678.348C482.656 677.705 480.974 676.454 479.896 675.527C478.818 674.64 476.62 672.867 474.94 671.617C470.973 668.555 460.199 658.317 451.577 649.368C448.129 645.783 441.75 645.944 438.214 649.693C436.578 651.466 435.371 655.011 435.716 657.189C436.232 660.737 436.406 660.938 452.31 676.253C456.061 679.88 461.534 684.557 466.879 688.708C474.078 694.351 476.922 696.768 479.163 699.186C481.749 701.927 489.077 711.681 492.828 717.283C494.12 719.217 497.568 723.449 500.5 726.755C503.431 730.06 506.965 734.091 508.301 735.743C513.301 741.868 514.292 743.037 518.733 747.794C521.231 750.454 524.809 754.403 526.707 756.54C528.602 758.715 531.318 761.376 532.741 762.464C534.162 763.593 537.654 766.616 540.499 769.195C543.343 771.775 546.447 774.436 547.395 775.08C548.301 775.765 552.094 779.11 555.801 782.535C568.344 794.265 574.551 799.261 583.601 804.945C585.283 805.993 587.781 807.686 589.204 808.693C592.524 811.113 595.542 812.926 600.627 815.667C605.885 818.448 608.514 819.617 615.929 822.317C619.248 823.527 623.213 824.977 624.765 825.54C628.041 826.75 632.352 828.241 635.11 829.17C636.188 829.491 637.997 830.218 639.161 830.781C641.791 832.03 646.789 833.562 649.333 833.925C651.876 834.286 667.911 834.692 674.978 834.571L680.583 834.45L685.152 839.043C693.168 847.024 694.42 848.353 698.04 852.627C700.928 856.052 701.532 856.94 701.142 857.462C700.883 857.825 700.238 858.914 699.679 859.882C698.298 862.338 696.273 863.749 691.789 865.363C684.851 867.86 681.143 868.386 667.004 868.99C660.497 869.271 656.274 870.038 653.946 871.328C652.436 872.172 647.825 875.802 642.049 880.639C640.497 881.926 637.653 884.104 635.754 885.433C633.859 886.764 631.361 888.697 630.152 889.747C627.48 892.124 617.395 898.331 615.066 899.018C614.117 899.299 611.79 899.581 609.895 899.581C604.42 899.661 602.092 898.331 594.118 890.916C591.36 888.336 587.997 885.433 586.577 884.465C585.196 883.5 583.43 882.251 582.654 881.645C579.981 879.55 574.292 878.341 564.421 877.815C560.197 877.614 559.248 877.694 550.413 879.389L540.931 881.203L534.681 880.639L528.431 880.073L523.473 877.252C517.697 873.988 510.456 868.506 508.603 865.927C507.912 864.959 506.189 862.864 504.767 861.332C502.525 858.832 501.362 856.899 498.688 851.256C498.258 850.37 497.093 847.467 496.06 844.727C493.56 838.075 492.008 835.053 489.119 830.942C486.361 826.951 480.07 821.027 477.309 819.737C473.559 818.005 469.682 816.433 466.534 815.465C462.87 814.296 457.656 812.241 452.267 809.863C448.216 808.05 448.431 808.21 442.008 800.471C435.286 792.33 432.311 786.93 425.371 770.042C424.293 767.504 423.215 765.084 422.87 764.602C422.57 764.157 421.795 762.625 421.191 761.174C420.113 758.675 418.819 755.854 415.587 748.881C410.545 737.96 407.354 734.814 400.2 733.808C393.561 732.881 390.241 732.881 385.76 733.769C383.39 734.251 380.2 735.139 378.649 735.782C377.095 736.388 375.329 736.992 374.684 737.152C373.648 737.394 373.476 737.273 373.476 736.509C373.476 735.983 373.69 734.938 373.906 734.171C374.164 733.404 374.855 731.108 375.416 729.091C376.017 727.037 377.053 724.136 377.742 722.604C379.251 719.298 379.898 714.824 379.727 708.779C379.596 703.137 378.475 700.033 372.828 689.513C370.415 684.918 368.175 680.446 367.872 679.558C367.571 678.67 366.881 677.018 366.364 675.93C363.476 670.086 360.415 664.243 359.553 662.912C358.432 661.26 355.76 654.85 353.002 647.113C351.966 644.333 349.984 639.98 348.519 637.439C341.968 625.953 338.82 618.496 337.054 610.316C336.967 609.911 336.667 608.219 336.408 606.526C336.192 604.874 335.889 603.383 335.805 603.221C335.674 603.058 335.502 601.851 335.33 600.562C335.201 599.231 334.898 597.336 334.64 596.329C334.209 594.393 333.389 582.263 333.605 580.852C333.691 580.368 333.865 578.514 334.036 576.661C334.165 574.805 334.596 572.711 334.898 572.024C335.201 571.301 335.589 569.608 335.76 568.318C336.105 565.213 338.519 558.725 341.019 554.171C342.097 552.196 343.992 548.649 345.244 546.311C349.251 538.815 358.216 525.835 362.183 521.765C367.743 516.042 375.804 505.078 376.879 501.775C377.095 501.13 378.044 498.953 378.993 496.979C379.94 494.963 380.802 492.788 380.976 492.101C381.234 491.094 381.579 490.77 382.526 490.569C383.216 490.448 384.853 489.4 386.234 488.151C388.13 486.458 389.337 485.734 391.752 484.967C397.311 483.194 404.811 481.703 414.208 480.493C417.052 480.132 421.146 479.566 423.259 479.244C425.413 478.922 430.544 478.356 434.683 478.034C438.819 477.672 442.612 477.35 443.128 477.229C443.603 477.149 445.068 476.945 446.362 476.824C458.001 475.616 467.87 472.11 473.904 466.99C477.827 463.687 480.671 459.092 482.094 453.732L482.569 452.039H492.439C497.955 452.039 502.785 451.879 503.431 451.634C504.379 451.312 504.809 451.393 505.929 452.2C508.258 453.812 511.102 454.576 513.861 454.376C516.017 454.214 517.009 453.812 520.973 451.513C523.56 450.063 526.749 448.128 528.085 447.201C529.464 446.275 532.483 444.38 534.81 442.969L538.99 440.43L539.248 441.519C540.628 447.564 545.197 453.369 551.62 457.156C557.87 460.905 560.456 461.672 566.79 461.713C570.971 461.713 578.99 458.971 581.963 456.513C582.912 455.745 584.032 455.303 585.499 455.102C591.491 454.375 598.084 452.28 605.714 448.773C612.006 445.831 612.91 445.147 614.635 441.962C615.584 440.229 615.713 435.594 614.893 433.377C613.773 430.313 605.585 421.648 600.196 417.779C599.118 417.014 596.704 415.199 594.809 413.708C589.592 409.677 583.43 406.896 579.636 406.896C578.774 406.896 577.05 406.413 575.842 405.85C571.446 403.833 562.266 403.351 556.318 404.842C554.334 405.324 549.767 407.059 546.188 408.671C542.568 410.323 539.206 411.775 538.688 411.896C537.481 412.257 528.127 418.061 522.913 421.73C520.67 423.341 518.688 424.631 518.517 424.631C518.258 424.631 516.017 426.001 509.594 430.153C506.92 431.845 505.197 432.692 503.473 433.014C502.137 433.296 499.982 433.701 498.688 433.982C497.396 434.224 496.189 434.345 496.06 434.183C495.931 434.064 497.009 433.256 498.474 432.411C499.938 431.564 501.836 430.475 502.656 429.952C503.473 429.469 506.62 427.855 509.594 426.405C521.748 420.52 524.767 418.345 529.551 411.935C531.921 408.833 532.999 406.976 538.041 398.03C540.757 393.155 542.826 387.874 543.171 384.932C543.3 383.843 543.73 381.828 544.162 380.499C544.593 379.168 545.066 376.629 545.197 374.856C545.369 373.082 545.844 370.179 546.275 368.407C546.749 366.634 547.438 363.812 547.869 362.16C548.257 360.506 548.689 359.015 548.776 358.854C548.86 358.692 550.239 359.216 551.833 360.023C553.429 360.831 555.412 361.837 556.275 362.24C557.912 363.006 563.343 363.772 567.524 363.772C570.196 363.772 575.067 362.322 577.999 360.627C580.411 359.216 585.37 354.462 588.3 350.752C592.049 345.957 593.644 343.498 596.962 337.613C598.602 334.632 600.325 332.011 600.714 331.769C601.792 331.164 608.042 334.026 610.757 336.364C611.964 337.412 613.859 338.944 615.024 339.832C616.187 340.676 617.998 342.653 619.118 344.224C620.196 345.756 623.083 348.858 625.498 351.077C629.421 354.702 630.152 355.549 632.307 359.539C636.832 367.843 639.377 374.372 641.404 383.037C641.746 384.447 642.524 386.785 643.127 388.196C644.722 391.904 647.438 399.199 648.945 403.874C649.678 406.052 650.711 408.792 651.274 409.921C651.834 411.008 653.601 414.555 655.153 417.779C656.748 421.003 658.859 425.033 659.937 426.728C663.731 432.893 667.309 439.826 668.903 443.978C671.618 451.071 671.918 451.716 674.463 455.303C678.298 460.745 682.048 464.13 686.401 466.066C692.091 468.602 699.334 469.369 702.997 467.798C707.048 466.105 708.987 463.525 709.677 459.012C710.41 454.134 710.194 451.838 708.557 446.678C706.746 440.956 706.704 440.835 702.091 432.21C698.472 425.438 696.186 420.842 693.429 414.555C692.609 412.661 691.747 410.928 691.573 410.725C691.402 410.485 690.324 408.227 689.204 405.689C687.221 401.174 684.893 396.821 682.437 393.194C680.883 390.897 678.814 385.857 677.997 382.392C675.885 373.566 674.807 367.803 674.376 363.166C673.558 354.783 673.471 354.259 671.963 347.65C671.618 346.198 671.23 343.94 671.056 342.612C670.927 341.282 670.453 338.743 670.023 336.97C669.591 335.195 669.117 333.1 668.945 332.333C668.774 331.569 668.3 329.753 667.867 328.303C667.437 326.852 666.92 324.677 666.789 323.467C666.617 322.257 666.316 320.967 666.144 320.645C665.884 320.162 664.461 315.084 663.773 312.181C663.212 309.763 662.911 308.795 662.221 307.022C661.186 304.403 661.186 303.999 662.178 305.369C662.566 305.974 663.644 307.223 664.548 308.191ZM818.211 411.976C820.149 419.15 820.668 429.144 819.59 439.625C819.116 444.019 818.554 447.928 818.34 448.331C818.125 448.692 817.822 449.902 817.649 451.031C817.433 452.12 817.046 453.732 816.745 454.537C816.442 455.384 815.968 457.561 815.709 459.375C815.235 463.123 814.46 466.066 813.986 466.347C813.64 466.548 811.271 465.098 806.357 461.713C804.892 460.704 802.176 458.932 800.323 457.722C790.667 451.433 785.495 447.564 781.486 443.535C779.073 441.156 776.056 437.326 776.056 436.643C776.056 436.441 776.746 436.319 777.563 436.319C781.486 436.319 787.735 433.336 789.805 430.516C792.091 427.412 792.607 425.398 792.649 419.109C792.649 415.966 792.778 413.306 792.865 413.225C792.995 413.104 794.46 413.346 796.098 413.749C801.098 414.918 804.934 415.119 807.78 414.355C810.537 413.628 814.589 411.693 815.925 410.485C817.133 409.396 817.562 409.677 818.211 411.976ZM824.59 515.921C828.642 516.243 832.908 516.809 834.073 517.131C835.235 517.452 838.124 517.937 840.493 518.179C846.96 518.782 854.588 521.201 859.502 524.183C861.787 525.593 862.52 526.361 864.545 529.585C865.838 531.64 867.131 534.138 867.434 535.106C867.692 536.074 868.209 537.767 868.512 538.895C870.407 545.142 871.098 552.477 870.02 555.016C869.718 555.662 869.245 557.234 868.899 558.524C868.596 559.773 867.908 561.506 867.389 562.352C866.873 563.199 865.494 565.617 864.287 567.712C862.391 571.098 860.451 574.001 859.676 574.565C859.502 574.686 858.77 575.654 857.951 576.782C855.02 580.893 846.398 588.027 837.262 593.83C831.399 597.536 828.9 599.192 828.642 599.513C828.513 599.634 827.348 600.562 826.055 601.568C824.761 602.576 822.779 604.227 821.614 605.277C820.452 606.366 819.287 607.21 819.074 607.21C816.874 607.21 807.306 602.818 801.142 598.991C798.815 597.58 793.856 594.959 790.022 593.144C784.546 590.567 782.522 589.397 780.323 587.462C778.815 586.091 776.701 584.358 775.626 583.553C774.548 582.746 772.694 581.256 771.487 580.247C770.322 579.239 768.943 578.112 768.469 577.747C766.874 576.498 752.824 561.868 750.625 559.127C749.418 557.636 747.736 555.097 746.919 553.486C745.454 550.704 745.409 550.462 745.667 547.36C745.796 545.585 746.4 542.643 747.004 540.83C747.995 537.847 748.382 537.242 750.754 534.985C754.632 531.357 757.866 529.303 763.987 526.682C770.322 523.942 772.305 523.418 789.634 519.871C791.313 519.509 793.9 518.943 795.451 518.541C797.003 518.138 799.245 517.694 800.41 517.573C801.614 517.412 804.504 516.848 806.874 516.325C811.744 515.237 813.556 514.995 815.709 515.196C816.529 515.277 820.539 515.599 824.59 515.921ZM870.881 600.763C870.881 601.326 871.356 603.383 871.916 605.398C873.339 610.477 873.555 612.531 873.037 616.924C872.734 619.665 872.219 621.681 871.054 624.341C870.191 626.315 868.77 629.863 867.864 632.2C865.665 637.882 861.442 646.024 859.115 649.006C857.478 651.024 856.657 651.667 853.9 652.877C852.09 653.724 850.537 654.368 850.408 654.368C850.321 654.368 848.209 655.254 845.795 656.342C838.081 659.728 825.623 661.903 820.839 660.656C819.547 660.332 817.262 659.929 815.709 659.808C812.649 659.486 808.642 657.916 806.27 656.06L804.848 654.931L805.796 653.117C806.357 652.151 807.522 650.297 808.468 649.006C809.375 647.757 811.271 644.009 812.649 640.744C814.934 635.426 815.754 632.967 817.433 626.959L817.909 625.146L820.194 625.267C822.821 625.429 826.614 624.341 829.201 622.647C830.15 622.003 832.306 620.311 834.029 618.819C837.865 615.433 844.2 610.717 846.743 609.307C848.725 608.219 854.029 604.593 859.46 600.602C861.142 599.392 863.813 597.135 865.494 595.603L868.467 592.822L869.674 596.29C870.32 598.183 870.881 600.198 870.881 600.763ZM599.981 658.721C602.351 660.252 605.885 662.349 607.868 663.437C612.91 666.135 629.936 673.593 633.817 674.762C642.953 677.584 650.885 679.759 651.789 679.759C652.394 679.759 654.161 680.081 655.712 680.526C660.108 681.653 662.653 682.218 665.926 682.781C670.756 683.629 670.972 683.749 673.642 687.941C674.978 690.036 676.057 691.892 676.057 692.093C676.057 692.254 677.091 693.987 678.343 695.882C679.634 697.775 681.961 701.646 683.557 704.547C686.1 709.101 688.082 712.083 688.988 712.809C689.462 713.213 695.756 721.113 699.031 725.506C703.988 732.117 705.712 734.734 708.383 739.613C709.719 742.031 713.384 748.479 716.531 753.919C719.72 759.361 723.211 765.406 724.289 767.422C725.367 769.396 726.658 771.654 727.177 772.379C727.737 773.106 728.944 775.201 729.848 777.016C732.953 782.98 736.142 785.399 740.969 785.399C745.926 785.399 749.849 781.57 749.805 776.732C749.805 774.194 748.856 771.21 747.52 769.517C746.961 768.793 746.229 767.664 745.883 767.017C745.538 766.334 744.418 764.481 743.427 762.867C742.393 761.214 741.573 759.804 741.573 759.644C741.573 759.523 740.54 757.669 739.246 755.572C737.996 753.437 735.755 749.607 734.332 747.068C729.764 738.805 728.599 736.871 727.694 735.662C727.177 735.018 726.186 733.162 725.454 731.591C723.901 728.327 720.583 723.168 716.702 718.13C715.237 716.194 713.429 713.695 712.737 712.569C712.048 711.439 710.497 709.423 709.377 708.133C704.376 702.45 700.841 697.453 698.859 693.262C698.343 692.133 697.436 690.561 696.876 689.714C696.056 688.504 696.014 688.223 696.531 688.223C696.918 688.223 701.403 688.586 706.575 689.07C716.057 689.915 716.315 689.915 725.409 688.829C726.358 688.708 729.161 688.424 731.659 688.182C734.16 687.941 737.867 687.539 739.891 687.256L743.6 686.772L744.16 690.239C744.463 692.134 744.935 694.472 745.28 695.478C745.583 696.485 746.186 698.542 746.529 700.114C746.919 701.646 748.253 705.997 749.505 709.787C752.909 719.984 753.557 722.038 754.074 724.699C754.29 726.028 754.806 728.005 755.194 729.132C756.056 731.632 758.728 736.871 759.288 737.193C759.504 737.355 760.195 738.323 760.753 739.41C763.813 745.053 766.703 748.518 774.074 755.33C780.623 761.415 788.727 770.204 796.53 779.714C798.815 782.494 802.176 787.293 804.461 791.001C805.195 792.209 806.615 794.265 807.651 795.515C812.693 801.841 813.727 803.292 814.934 805.591C815.667 807.002 816.7 809.581 817.304 811.353C817.865 813.127 819.029 816.754 819.891 819.416C821.659 824.897 822.476 828.081 822.866 831.304C822.995 832.514 823.209 833.642 823.296 833.763C823.383 833.925 823.167 836.625 822.821 839.808C822.347 844.526 821.917 846.499 820.539 850.249C817.691 858.067 817.09 858.914 807.651 868.305C802.004 873.907 799.073 875.802 792.436 877.978C786.228 880.032 786.315 879.993 777.35 881.322C765.324 883.095 762.177 882.814 746.745 878.622C742.693 877.534 739.546 875.681 736.618 872.738C735.108 871.207 733.383 869.191 732.824 868.265C732.221 867.337 729.764 863.952 727.392 860.726C724.979 857.503 721.445 852.708 719.504 850.046C717.609 847.387 715.023 844.04 713.771 842.59C712.566 841.138 710.797 839.043 709.935 837.954C707.911 835.415 698.169 825.782 693.083 821.269C690.971 819.375 687.997 816.715 686.575 815.384C685.109 814.054 681.832 811.232 679.289 809.136C672.092 803.172 667.651 798.255 664.935 793.136C664.506 792.289 662.911 789.347 661.446 786.566C659.979 783.784 658.601 781.207 658.343 780.803C658.083 780.401 657.481 779.312 656.961 778.386C656.487 777.458 655.238 775.522 654.247 774.071C652.352 771.332 642.006 752.469 642.006 751.785C642.006 750.938 638.342 743.603 633.859 735.581C633.213 734.452 632.006 732.116 631.101 730.341C630.239 728.569 628.256 725.104 626.705 722.684C625.195 720.225 623.127 716.72 622.135 714.824C621.144 712.93 619.334 709.665 618.083 707.57C616.791 705.475 615.413 702.936 615.024 701.927C614.117 699.79 609.118 691.407 607.739 689.634C606.576 688.182 603.645 682.46 602.396 679.196C601.876 677.906 600.972 676.052 600.411 675.125C599.809 674.198 598.945 672.384 598.473 671.094C597.998 669.804 597.136 667.991 596.575 667.103C596.016 666.176 595.326 664.725 595.023 663.839C594.722 662.951 593.947 661.139 593.299 659.808C591.144 655.537 589.421 651.868 589.421 651.667C589.421 651.587 590.842 652.514 592.566 653.724C594.248 654.971 597.611 657.228 599.981 658.721ZM379.553 826.146C380.372 826.629 381.276 827.314 381.622 827.597C381.967 827.919 383.604 828.967 385.285 830.014C386.967 831.023 389.337 832.553 390.5 833.4C391.707 834.246 392.872 835.094 393.088 835.254C393.95 835.82 397.398 838.478 398.69 839.527C399.423 840.132 401.362 841.339 403 842.268C404.682 843.195 406.709 844.405 407.526 845.008C408.345 845.613 410.414 847.024 412.094 848.071C413.776 849.16 416.579 851.217 418.302 852.667C419.984 854.118 423.69 857.181 426.448 859.517C429.207 861.855 432.44 864.395 433.605 865.16C434.767 865.927 436.578 867.176 437.656 867.901C438.734 868.667 441.276 870.28 443.302 871.529C445.328 872.778 447.397 874.149 447.913 874.551C449.982 876.244 457.914 880.596 462.483 882.532C471.147 886.241 478.56 888.537 488.774 890.754C493.128 891.721 496.88 892.568 499.12 893.171C500.327 893.496 502.052 893.818 502.998 893.978C504.809 894.219 508.516 895.067 511.966 896.033C513.086 896.356 515.326 896.799 516.922 897.001C518.517 897.202 520.844 897.646 522.135 898.009C524.163 898.532 529.551 899.057 542.006 900.024C543.559 900.145 545.326 900.347 545.973 900.428C546.578 900.508 550.455 900.308 554.594 899.983C558.687 899.621 563.904 899.299 566.144 899.259C568.386 899.178 571.317 899.018 572.611 898.814L574.98 898.532L580.153 903.41C584.981 907.964 589.721 911.552 593.299 913.445C594.161 913.848 596.575 914.856 598.687 915.664C601.921 916.871 603.342 917.155 607.092 917.355C614.161 917.798 621.447 916.469 626.231 913.929C630.712 911.552 640.929 904.982 643.342 902.885C644.893 901.515 647.696 899.299 649.591 897.97C651.445 896.598 654.205 894.502 655.625 893.334C663.686 886.764 663.083 887.127 665.926 887.046C668.213 886.965 671.402 886.805 679.505 886.321C690.453 885.716 704.763 880.679 711.186 875.157L713.471 873.221L714.504 874.551C715.065 875.238 716.489 877.212 717.651 878.863C718.813 880.516 720.409 882.653 721.229 883.621C722.047 884.547 722.652 885.394 722.565 885.474C721.445 886.401 709.419 893.576 704.936 895.993C685.842 906.272 662.479 914.977 643.299 918.967C642.953 919.049 641.704 919.33 640.497 919.571C620.971 923.844 597.695 925.779 577.438 924.852C571.833 924.61 566.661 924.329 565.928 924.208C565.24 924.127 563.559 923.964 562.266 923.843C558.083 923.482 555.197 923.16 552.782 922.797C551.491 922.594 549.551 922.313 548.473 922.192C545.844 921.87 537.439 920.459 535.326 919.976C520.586 916.67 512.309 914.495 503.214 911.552C471.664 901.273 441.362 884.951 415.716 864.436C401.664 853.15 387.052 838.922 376.191 825.903L372.484 821.511L375.329 823.325C376.879 824.371 378.778 825.622 379.553 826.146ZM746.4 898.451C746.919 899.5 747.178 901.072 747.178 903.25C747.178 905.022 747.478 907.28 747.823 908.286C748.169 909.295 748.727 911.713 749.073 913.728C749.46 915.703 750.021 918.362 750.41 919.571C751.099 921.87 751.788 927.069 752.566 936.096C753.47 946.778 753.641 950.525 753.857 960.684C753.944 967.01 754.116 974.346 754.203 977.005C754.29 979.665 754.116 984.301 753.815 987.285C753.341 992.523 753.599 1001.91 754.29 1004.05C754.461 1004.53 754.374 1005.3 754.116 1005.7C753.9 1006.15 753.47 1007.6 753.254 1008.89C752.176 1014.57 751.53 1017.07 750.539 1019.73C748.598 1024.77 748.039 1026.98 747.565 1031.42C747.307 1033.8 746.832 1036.5 746.487 1037.38C746.142 1038.27 745.194 1045.64 744.376 1053.75C743.556 1061.85 742.607 1069.38 742.264 1070.47C741.918 1071.6 741.315 1075.67 740.927 1079.54C740.108 1088.29 738.513 1094.45 736.66 1096.27C736.186 1096.75 734.332 1097.6 732.608 1098.08C728.728 1099.21 725.454 1100.94 721.274 1104.17C719.547 1105.5 717.134 1106.91 715.927 1107.35C714.762 1107.76 711.917 1108.76 709.677 1109.57C707.437 1110.37 704.892 1111.46 704.074 1111.99C701.013 1113.92 694.72 1116.74 691.789 1117.47C690.151 1117.87 686.53 1118.43 683.815 1118.68C681.101 1118.96 678.73 1119.24 678.601 1119.28C678.472 1119.36 676.445 1119.64 674.074 1119.84C671.747 1120.09 669.333 1120.37 668.729 1120.45C665.926 1120.89 659.893 1121.18 650.411 1121.3C639.98 1121.46 637.135 1121.62 629.292 1122.34C626.918 1122.55 615.195 1122.79 603.213 1122.87C591.231 1122.95 579.206 1123.11 576.489 1123.23C570.8 1123.43 545.455 1121.5 541.793 1120.53C538.646 1119.68 537.266 1119.52 523.473 1118.43C519.249 1118.07 515.673 1117.47 507.741 1115.65C506.318 1115.33 504.206 1114.97 502.998 1114.85C501.836 1114.69 499.378 1114.24 497.526 1113.8C495.715 1113.4 493.604 1113.03 492.87 1113.03C492.137 1113.03 490.026 1112.67 488.215 1112.27C485.283 1111.54 478.043 1110.74 468.302 1110.01C466.534 1109.89 464.379 1109.69 463.517 1109.57L461.923 1109.37L461.665 1106.26C461.492 1104.57 461.492 1102.43 461.621 1101.55C461.794 1100.66 461.578 1098.56 461.232 1096.91C460.887 1095.26 460.457 1092.8 460.328 1091.47C460.154 1090.14 459.938 1088.49 459.809 1087.84C459.725 1087.16 459.551 1085.18 459.466 1083.41C459.163 1078.05 458.905 1075.43 458.475 1073.53C458.215 1072.53 457.914 1070.84 457.743 1069.75C457.44 1067.57 455.198 1061.81 453.646 1059.23C450.111 1053.34 445.328 1048.22 437.956 1042.46C437.268 1041.94 435.629 1040.61 434.293 1039.56C432.958 1038.47 430.544 1036.78 428.907 1035.81C425.889 1033.96 410.328 1026.38 409.596 1026.38C409.38 1026.38 407.613 1025.73 405.673 1024.93C403.733 1024.12 400.888 1023.03 399.338 1022.55C387.441 1018.68 387.268 1018.6 383.907 1014.53C380.631 1010.58 377.311 1004.86 375.588 1000.1C374.597 997.24 374.552 996.393 375.501 995.505C376.146 994.941 376.837 994.861 380.802 995.103C383.303 995.263 386.018 995.464 386.838 995.547C387.656 995.628 389.208 995.789 390.286 995.909C391.364 996.03 393.172 996.393 394.337 996.754C395.501 997.078 396.924 997.361 397.483 997.361C398.044 997.361 399.984 997.722 401.838 998.205C403.649 998.651 406.319 999.335 407.742 999.657C410.974 1000.42 418.26 1002.92 422.828 1004.78C424.724 1005.58 426.578 1006.23 426.922 1006.23C427.312 1006.23 429.423 1006.79 431.665 1007.48C433.905 1008.16 436.148 1008.81 436.665 1008.89C438.085 1009.13 443.819 1011.43 444.552 1012.03C445.975 1013.2 456.491 1018.4 469.25 1024.28C476.535 1027.67 482.611 1030.41 482.74 1030.41C482.869 1030.41 485.067 1031.13 487.612 1031.98C498.301 1035.69 503.473 1037.3 504.896 1037.5C514.552 1038.67 521.922 1038.55 531.663 1037.06C537.481 1036.13 539.421 1035.69 542.352 1034.4C545.5 1033.03 551.749 1029.56 552.352 1028.84C552.482 1028.68 554.594 1027.02 557.092 1025.13C566.877 1017.59 570.153 1013.08 573.644 1002.15C574.635 999.012 575.456 993.289 575.327 990.307C575.196 986.719 574.162 980.191 573.257 977.005C572.094 972.894 568.344 964.028 566.877 961.891C566.361 961.126 565.628 960.038 565.283 959.474C562.05 954.032 559.678 951.252 553.085 945.044L547.827 940.087L549.98 940.369C551.187 940.49 552.524 940.691 552.998 940.771C553.818 940.934 563.301 941.78 569.809 942.345C571.491 942.466 577.696 942.627 583.601 942.707C598.687 942.908 609.766 942.304 623.256 940.49C632.093 939.32 631.748 939.36 638.773 938.03C673.687 931.502 707.134 917.839 735.97 898.331L740.065 895.55L742.867 896.236C745.409 896.84 745.712 897.041 746.4 898.451Z" fill="var(--color-primary)"/>
</g>
</g>
</svg>
