<?xml version="1.0" encoding="UTF-8"?>
<svg width="1024px" height="1024px" viewBox="0 0 1024 1024" version="1.1" xmlns="http://www.w3.org/2000/svg" xmlns:xlink="http://www.w3.org/1999/xlink">
    <title>email</title>
    <g id="email" stroke="none" stroke-width="1" fill="none" fill-rule="evenodd">
        <g id="✉️" transform="translate(18, 164)" fill="--primary" fill-rule="nonzero">
            <path d="M0,640 L0,56 C-3.78758101e-15,25.072054 25.072054,1.98922262e-14 56,0 L931,0 C961.927946,-5.68137151e-15 987,25.072054 987,56 L987,640 C987,670.927946 961.927946,696 931,696 L56,696 C25.072054,696 -3.17395558e-14,670.927946 0,640 Z M74.1432569,553.294574 L265.408328,272.209042 C268.892451,267.088732 267.907618,260.158051 263.135047,256.210996 L71.8699756,98.0292593 C66.7628533,93.8055218 59.198697,94.5216466 54.9749594,99.6287688 C53.1956764,101.780185 52.2222222,104.48467 52.2222222,107.276522 L52.2222222,546.543791 C52.2222222,553.171208 57.5948052,558.543791 64.2222222,558.543791 C68.1941682,558.543791 71.9087782,556.578392 74.1432569,553.294574 Z M98.0195357,643.8 L889.392113,643.8 C896.01953,643.8 901.392113,638.427417 901.392113,631.8 C901.392113,629.380819 900.660924,627.018125 899.294456,625.021829 L681.968692,307.527027 C678.225211,302.058114 670.75709,300.659375 665.288177,304.402856 C664.984744,304.610556 664.691018,304.832094 664.407929,305.066767 L501.158419,440.396369 C496.716674,444.078461 490.283326,444.078461 485.841581,440.396369 L322.600763,305.073973 C317.498519,300.844345 309.933541,301.55174 305.703913,306.653985 C305.467058,306.939706 305.243585,307.236261 305.034215,307.542694 L88.1114069,625.030289 C84.3725989,630.502398 85.7777166,637.969321 91.2498251,641.708129 C93.2444024,643.07092 95.6038499,643.8 98.0195357,643.8 Z M501.151174,372.55249 L862.544649,73.4444328 C867.650209,69.2188061 868.363535,61.6543853 864.137908,56.5488261 C861.858192,53.7943887 858.468952,52.2 854.893475,52.2 L132.106525,52.2 C125.479108,52.2 120.106525,57.572583 120.106525,64.2 C120.106525,67.7754761 121.700913,71.164717 124.455351,73.4444328 L485.848826,372.55249 C490.287998,376.22658 496.712002,376.22658 501.151174,372.55249 Z M934.777778,546.543791 L934.777778,107.276522 C934.777778,100.649105 929.405195,95.2765221 922.777778,95.2765221 C919.985926,95.2765221 917.28144,96.2499763 915.130024,98.0292593 L723.864953,256.210996 C719.092382,260.158051 718.107549,267.088732 721.591672,272.209042 L912.856743,553.294574 C916.585098,558.77381 924.049325,560.19318 929.528561,556.464826 C932.812379,554.230347 934.777778,550.515737 934.777778,546.543791 Z" id="Shape"></path>
        </g>
    </g>
</svg>