<?xml version="1.0" encoding="UTF-8"?>
<svg width="1024px" height="1024px" viewBox="0 0 1024 1024" version="1.1" xmlns="http://www.w3.org/2000/svg" xmlns:xlink="http://www.w3.org/1999/xlink">
    <title>github</title>
    <g id="github" stroke="none" stroke-width="1" fill="none" fill-rule="evenodd">
        <g id="github-mark" transform="translate(20, 28)" fill="--primary">
            <path d="M492.907519,0 C220.342394,0 0,222.061571 0,496.782016 C0,716.380723 141.180966,902.266446 337.036388,968.057233 C361.52336,973.00315 370.492836,957.367997 370.492836,944.215896 C370.492836,932.698975 369.685684,893.222484 369.685684,852.090624 C232.570746,881.705563 204.017746,792.870841 204.017746,792.870841 C181.982497,735.296332 149.333201,720.498956 149.333201,720.498956 C104.455552,690.066427 152.602166,690.066427 152.602166,690.066427 C202.383263,693.356976 228.504718,741.059839 228.504718,741.059839 C272.565125,816.722272 343.564229,795.343799 372.127319,782.181604 C376.203436,750.103801 389.269209,727.897644 403.142133,715.563133 C293.783132,704.046212 178.723621,661.279172 178.723621,470.457627 C178.723621,416.173666 198.297056,371.761352 229.31187,337.220684 C224.418511,324.886173 207.276622,273.882667 234.215318,205.618921 C234.215318,205.618921 275.834091,192.456726 369.675595,256.612333 C409.85248,245.738004 451.286251,240.206165 492.907519,240.15959 C534.526292,240.15959 576.952217,245.923097 616.129355,256.612333 C709.980948,192.456726 751.599721,205.618921 751.599721,205.618921 C778.538417,273.882667 761.386438,324.886173 756.493079,337.220684 C788.325135,371.761352 807.091418,416.173666 807.091418,470.457627 C807.091418,661.279172 692.031906,703.218528 581.855665,715.563133 C599.814796,731.188193 615.312113,760.793037 615.312113,807.67831 C615.312113,874.296782 614.504961,927.763152 614.504961,944.205802 C614.504961,957.367997 623.484527,973.00315 647.96141,968.067327 C843.816831,902.256352 985,716.380723 985,496.782016 C985.804949,222.061571 764.655404,0 492.907519,0 Z" id="Path"></path>
        </g>
    </g>
</svg>