<svg viewBox="0 0 1024 1024" fill="none" xmlns="http://www.w3.org/2000/svg">
<g id="lead-with-joy">
<g id="Group">
<path id="Shape" d="M20.4581 606.828L14.0311 607.8L14.0436 607.882L14.0582 607.964L20.4581 606.828ZM25.5899 599.492L24.2942 593.123L24.2936 593.123L25.5899 599.492ZM33.255 604.565L26.8856 605.862L26.8875 605.871L26.8893 605.88L33.255 604.565ZM33.7686 607.053L27.403 608.367L27.4047 608.376L27.4065 608.384L33.7686 607.053ZM490.573 977.007L490.573 983.507L490.573 983.507L490.573 977.007ZM947.214 607.83L953.574 609.172L953.576 609.163L953.578 609.154L947.214 607.83ZM947.731 605.347L941.402 603.864L941.383 603.943L941.367 604.023L947.731 605.347ZM947.807 605.021L941.514 603.393L941.495 603.466L941.478 603.539L947.807 605.021ZM955.405 600.287L956.713 593.92L956.713 593.92L955.405 600.287ZM960.525 607.633L966.921 608.791L966.936 608.703L966.95 608.616L960.525 607.633ZM960.465 607.962L966.829 609.286L966.846 609.203L966.861 609.12L960.465 607.962ZM959.934 610.515L966.294 611.857L966.295 611.848L966.297 611.839L959.934 610.515ZM490.573 990.007L490.573 996.507L490.573 996.507L490.573 990.007ZM20.5167 607.158L14.1168 608.294L14.131 608.375L14.1473 608.455L20.5167 607.158ZM59.7394 315.663L56.9658 321.542L56.9661 321.542L59.7394 315.663ZM56.4991 307.317L50.5485 304.702L50.5171 304.774L50.4874 304.846L56.4991 307.317ZM56.6339 307.011L50.7611 304.225L50.7209 304.31L50.6832 304.395L56.6339 307.011ZM57.5362 305.108L51.6698 302.309L51.6666 302.316L51.6634 302.323L57.5362 305.108ZM490.76 31.9922L490.76 25.4922L490.76 25.4922L490.76 31.9922ZM924.342 305.863L930.282 303.225L930.249 303.149L930.213 303.074L924.342 305.863ZM924.478 306.169L930.483 303.681L930.451 303.605L930.418 303.531L924.478 306.169ZM921.259 314.523L924.047 320.395L924.048 320.395L921.259 314.523ZM912.599 311.44L918.47 308.652L918.465 308.641L912.599 311.44ZM911.719 309.597L917.585 306.797L917.581 306.79L917.578 306.782L911.719 309.597ZM490.76 44.9922L490.76 38.4922L490.76 38.4922L490.76 44.9922ZM69.2696 310.707L63.4032 307.908L63.4001 307.914L63.397 307.921L69.2696 310.707ZM68.3917 312.558L74.1979 315.48L74.2319 315.412L74.2644 315.344L68.3917 312.558ZM68.2413 312.856L73.9719 315.924L74.0106 315.852L74.0475 315.779L68.2413 312.856ZM20.4581 606.828L26.8851 605.857C26.8847 605.854 26.8847 605.853 26.8847 605.854C26.8848 605.854 26.8848 605.855 26.8847 605.857C26.8846 605.86 26.8841 605.864 26.8835 605.866C26.8831 605.868 26.8828 605.868 26.8834 605.867C26.884 605.865 26.8851 605.863 26.8867 605.861C26.8903 605.856 26.8918 605.856 26.8873 605.859C26.8847 605.861 26.8818 605.862 26.8794 605.863C26.8783 605.864 26.878 605.864 26.8787 605.863C26.8794 605.863 26.8818 605.863 26.8863 605.862L25.5899 599.492L24.2936 593.123C17.4766 594.51 13.0023 600.994 14.0311 607.8L20.4581 606.828ZM25.5899 599.492L26.8857 605.862L26.8856 605.862L33.255 604.565L39.6243 603.269C38.1923 596.235 31.3297 591.691 24.2942 593.123L25.5899 599.492ZM33.255 604.565L26.8893 605.88L27.403 608.367L33.7686 607.053L40.1343 605.738L39.6206 603.251L33.255 604.565ZM33.7686 607.053L27.4065 608.384C72.2318 822.598 262.569 983.507 490.573 983.507V977.007V970.507C268.827 970.507 83.7174 814.015 40.1308 605.721L33.7686 607.053ZM490.573 977.007L490.573 983.507C718.297 983.507 908.447 822.992 953.574 609.172L947.214 607.83L940.854 606.488C896.974 814.399 712.047 970.507 490.573 970.507L490.573 977.007ZM947.214 607.83L953.578 609.154L954.094 606.67L947.731 605.347L941.367 604.023L940.85 606.506L947.214 607.83ZM947.731 605.347L954.059 606.829L954.135 606.504L947.807 605.021L941.478 603.539L941.402 603.864L947.731 605.347ZM947.807 605.021L954.099 606.65C954.1 606.647 954.1 606.647 954.1 606.647C954.1 606.647 954.1 606.648 954.099 606.65C954.098 606.653 954.096 606.655 954.095 606.657C954.094 606.659 954.093 606.659 954.094 606.658C954.095 606.657 954.097 606.655 954.1 606.654C954.105 606.65 954.106 606.651 954.101 606.652C954.098 606.653 954.094 606.653 954.092 606.653C954.09 606.653 954.09 606.653 954.091 606.653C954.091 606.653 954.094 606.653 954.098 606.654L955.405 600.287L956.713 593.92C949.897 592.521 943.238 596.731 941.514 603.393L947.807 605.021ZM955.405 600.287L954.098 606.654C954.102 606.655 954.105 606.656 954.105 606.656C954.106 606.656 954.106 606.656 954.105 606.656C954.102 606.655 954.099 606.653 954.097 606.651C954.092 606.648 954.094 606.648 954.098 606.654C954.099 606.656 954.1 606.658 954.101 606.66C954.101 606.661 954.101 606.661 954.101 606.659C954.1 606.657 954.1 606.654 954.1 606.65C954.1 606.649 954.1 606.647 954.1 606.647C954.1 606.647 954.1 606.647 954.099 606.65L960.525 607.633L966.95 608.616C967.991 601.813 963.528 595.319 956.713 593.92L955.405 600.287ZM960.525 607.633L954.128 606.475L954.069 606.804L960.465 607.962L966.861 609.12L966.921 608.791L960.525 607.633ZM960.465 607.962L954.101 606.638L953.57 609.19L959.934 610.515L966.297 611.839L966.829 609.286L960.465 607.962ZM959.934 610.515L953.574 609.172C908.447 822.993 718.297 983.507 490.573 983.507L490.573 990.007L490.573 996.507C724.548 996.507 919.92 831.586 966.294 611.857L959.934 610.515ZM490.573 990.007V983.507C261.676 983.507 70.74 821.334 26.8861 605.862L20.5167 607.158L14.1473 608.455C59.2133 829.882 255.393 996.507 490.573 996.507V990.007ZM20.5167 607.158L26.9166 606.022L26.858 605.692L20.4581 606.828L14.0582 607.964L14.1168 608.294L20.5167 607.158ZM59.7394 315.663L62.5129 309.785C62.5088 309.783 62.5067 309.781 62.5061 309.781C62.5054 309.781 62.5057 309.781 62.5067 309.781C62.5089 309.783 62.5114 309.785 62.5135 309.788C62.5172 309.792 62.5157 309.791 62.5134 309.786C62.5124 309.783 62.5119 309.781 62.5116 309.779C62.5113 309.778 62.5115 309.778 62.5115 309.78C62.5115 309.782 62.5112 309.785 62.5106 309.789C62.5103 309.79 62.51 309.791 62.5099 309.792C62.5098 309.792 62.51 309.791 62.5109 309.789L56.4991 307.317L50.4874 304.846C47.8706 311.211 50.6737 318.573 56.9658 321.542L59.7394 315.663ZM56.4991 307.317L62.4498 309.933L62.5845 309.626L56.6339 307.011L50.6832 304.395L50.5485 304.702L56.4991 307.317ZM56.6339 307.011L62.5067 309.796L63.409 307.894L57.5362 305.108L51.6634 302.323L50.7611 304.225L56.6339 307.011ZM57.5362 305.108L63.4026 307.908C139.419 148.597 302.208 38.4923 490.76 38.4922L490.76 31.9922L490.76 25.4922C297.02 25.4923 129.766 138.639 51.6698 302.309L57.5362 305.108ZM490.76 31.9922L490.76 38.4922C679.605 38.4923 842.607 148.94 918.471 308.652L924.342 305.863L930.213 303.074C852.273 138.992 684.801 25.4923 490.76 25.4922L490.76 31.9922ZM924.342 305.863L918.401 308.501L918.537 308.807L924.478 306.169L930.418 303.531L930.282 303.225L924.342 305.863ZM924.478 306.169L918.473 308.657C918.474 308.659 918.474 308.66 918.474 308.659C918.473 308.659 918.473 308.658 918.473 308.656C918.472 308.653 918.472 308.65 918.472 308.647C918.472 308.645 918.472 308.645 918.472 308.646C918.472 308.648 918.471 308.65 918.47 308.653C918.468 308.659 918.466 308.659 918.47 308.655C918.472 308.653 918.474 308.65 918.476 308.649C918.477 308.648 918.478 308.648 918.477 308.649C918.476 308.649 918.474 308.65 918.47 308.652L921.259 314.523L924.048 320.395C930.332 317.41 933.117 310.04 930.483 303.681L924.478 306.169ZM921.259 314.523L918.471 308.652L918.47 308.652L912.599 311.44L906.727 314.229C909.808 320.714 917.562 323.474 924.047 320.395L921.259 314.523ZM912.599 311.44L918.465 308.641L917.585 306.797L911.719 309.597L905.853 312.396L906.732 314.24L912.599 311.44ZM911.719 309.597L917.578 306.782C841.333 148.079 678.867 38.4923 490.76 38.4922L490.76 44.9922L490.76 51.4922C673.692 51.4923 831.702 158.051 905.86 312.411L911.719 309.597ZM490.76 44.9922L490.76 38.4922C302.208 38.4923 139.419 148.597 63.4032 307.908L69.2696 310.707L75.136 313.506C149.071 158.556 307.396 51.4923 490.76 51.4922L490.76 44.9922ZM69.2696 310.707L63.397 307.921L62.519 309.772L68.3917 312.558L74.2644 315.344L75.1423 313.493L69.2696 310.707ZM68.3917 312.558L62.5855 309.636L62.4351 309.934L68.2413 312.856L74.0475 315.779L74.1979 315.48L68.3917 312.558ZM68.2413 312.856L62.5107 309.789C62.5096 309.791 62.5091 309.792 62.5094 309.791C62.5096 309.791 62.5102 309.79 62.5112 309.789C62.5134 309.786 62.5156 309.784 62.5173 309.783C62.5188 309.781 62.5191 309.781 62.5179 309.782C62.5166 309.783 62.5144 309.784 62.5118 309.785C62.5057 309.787 62.5045 309.786 62.51 309.786C62.513 309.786 62.5163 309.787 62.5189 309.787C62.52 309.788 62.5203 309.788 62.5196 309.787C62.519 309.787 62.5166 309.786 62.5126 309.784L59.7394 315.663L56.9661 321.542C63.2585 324.51 70.7239 321.992 73.9719 315.924L68.2413 312.856Z" fill="#FFBC51"/>
<path id="Shape_2" fill-rule="evenodd" clip-rule="evenodd" d="M399.62 858.972C429.42 868.807 459.649 873.725 490.308 873.725C520.966 873.725 551.195 868.807 580.995 858.972C610.795 849.137 637.836 835.982 662.117 819.508C686.399 803.034 705.775 784.655 720.246 764.37C734.716 744.085 741.952 723.615 741.952 702.961C741.952 692.88 739.744 685.688 735.33 681.385C730.915 677.082 724.783 674.931 716.935 674.931C711.539 674.931 705.407 675.484 698.539 676.59C691.672 677.697 683.823 679.234 674.994 681.201C651.203 686.61 622.936 691.282 590.193 695.216C557.45 699.15 524.155 701.117 490.308 701.117C456.461 701.117 423.166 699.15 390.423 695.216C357.68 691.282 329.535 686.61 305.99 681.201C297.16 679.234 289.311 677.697 282.444 676.59C275.577 675.484 269.322 674.931 263.681 674.931C256.078 674.931 250.069 677.082 245.654 681.385C241.239 685.688 239.032 692.88 239.032 702.961C239.032 723.615 246.267 744.085 260.738 764.37C275.209 784.655 294.523 803.034 318.682 819.508C342.841 835.982 369.82 849.137 399.62 858.972ZM565.026 748.933C538.734 750.803 514.04 751.738 490.942 751.738C468.091 751.738 443.457 750.803 417.043 748.933C390.628 747.063 364.275 744.071 337.983 739.957C311.691 735.843 287.12 730.669 264.268 724.436V703.867C264.268 700.376 265.435 698.195 267.769 697.322C270.104 696.449 272.868 696.387 276.062 697.135C295.965 701.872 318.387 706.111 343.328 709.851C368.268 713.591 393.638 716.52 419.439 718.639C445.239 720.759 469.074 721.818 490.942 721.818C513.057 721.818 536.953 720.759 562.631 718.639C588.308 716.52 613.678 713.591 638.742 709.851C663.805 706.111 686.165 701.872 705.822 697.135C709.017 696.387 711.781 696.449 714.115 697.322C716.45 698.195 717.617 700.376 717.617 703.867V724.436C694.765 730.669 670.193 735.843 643.902 739.957C617.61 744.071 591.318 747.063 565.026 748.933Z" fill="#FFBC51"/>
<g id="Lead with Joy">
<path id="Path" d="M31.6179 479.621H68.9113V501.78H3.14844V383.934H31.6179V479.621Z" fill="#FFBC51"/>
<path id="Shape_3" fill-rule="evenodd" clip-rule="evenodd" d="M172.004 461.428C172.342 458.521 172.511 455.726 172.511 453.043C172.511 443.652 170.512 435.435 166.514 428.392C162.517 421.349 156.971 415.926 149.877 412.125C142.782 408.324 134.675 406.424 125.553 406.424C116.207 406.424 107.93 408.38 100.723 412.293C93.5166 416.206 87.9143 421.796 83.9168 429.063C79.9192 436.329 77.9204 444.826 77.9204 454.552C77.9204 464.278 79.9473 472.775 84.0012 480.042C88.0551 487.308 93.6855 492.898 100.892 496.811C108.099 500.724 116.32 502.68 125.553 502.68C133.211 502.68 140.136 501.283 146.33 498.488C152.523 495.693 157.675 491.836 161.785 486.917C165.895 481.998 168.738 476.464 170.315 470.315H139.573C136.758 476.352 131.747 479.371 124.54 479.371C119.698 479.371 115.616 477.834 112.294 474.759C108.972 471.685 107.086 467.241 106.635 461.428H172.004ZM137.884 433.758C141.262 436.665 142.951 440.578 142.951 445.497H106.804C107.593 440.354 109.648 436.385 112.97 433.59C116.292 430.795 120.374 429.398 125.216 429.398C130.283 429.398 134.506 430.851 137.884 433.758Z" fill="#FFBC51"/>
<path id="Shape_4" fill-rule="evenodd" clip-rule="evenodd" d="M186.938 429.063C183.326 436.329 181.52 444.77 181.52 454.384C181.52 463.999 183.326 472.467 186.938 479.79C190.55 487.113 195.468 492.758 201.692 496.727C207.916 500.696 214.807 502.68 222.364 502.68C228.922 502.68 234.673 501.339 239.619 498.656C244.565 495.973 248.427 492.451 251.205 488.091V501.339H279.713V407.765H251.205V421.013C248.538 416.653 244.731 413.132 239.786 410.448C234.84 407.765 229.088 406.424 222.531 406.424C214.862 406.424 207.916 408.38 201.692 412.293C195.468 416.206 190.55 421.796 186.938 429.063ZM245.287 437.615C249.232 441.752 251.205 447.397 251.205 454.552C251.205 461.707 249.232 467.353 245.287 471.489C241.341 475.626 236.534 477.694 230.866 477.694C225.198 477.694 220.391 475.598 216.445 471.405C212.5 467.213 210.527 461.539 210.527 454.384C210.527 447.23 212.5 441.612 216.445 437.531C220.391 433.451 225.198 431.41 230.866 431.41C236.534 431.41 241.341 433.479 245.287 437.615Z" fill="#FFBC51"/>
<path id="Shape_5" fill-rule="evenodd" clip-rule="evenodd" d="M302.247 428.765C298.635 436.061 296.829 444.536 296.829 454.189C296.829 463.842 298.635 472.345 302.247 479.697C305.859 487.05 310.777 492.718 317.001 496.703C323.225 500.688 330.172 502.68 337.84 502.68C344.398 502.68 350.149 501.333 355.095 498.639C360.041 495.945 363.848 492.353 366.515 487.864V501.333H395.023V376.737H366.515V420.346C363.625 415.968 359.652 412.489 354.595 409.907C349.538 407.325 343.953 406.034 337.84 406.034C330.172 406.034 323.225 407.999 317.001 411.927C310.777 415.856 305.859 421.468 302.247 428.765ZM360.597 437.351C364.542 441.504 366.515 447.173 366.515 454.357C366.515 461.541 364.542 467.209 360.597 471.363C356.651 475.516 351.844 477.592 346.176 477.592C340.508 477.592 335.701 475.488 331.755 471.278C327.81 467.069 325.837 461.372 325.837 454.189C325.837 447.005 327.81 441.364 331.755 437.267C335.701 433.17 340.508 431.121 346.176 431.121C351.844 431.121 356.651 433.198 360.597 437.351Z" fill="#FFBC51"/>
<path id="Path_2" d="M531.954 444.208L516.277 500.882H496.654L487.517 464.115L478.069 500.882H458.55L442.769 444.208H460.523L468.725 484.733L478.485 444.208H497.277L507.14 484.53L515.239 444.208H531.954Z" fill="#FFBC51" fill-opacity="0.6"/>
<path id="Shape_6" fill-rule="evenodd" clip-rule="evenodd" d="M540.268 435.396C542.207 437.222 544.708 438.134 547.77 438.134C550.764 438.134 553.23 437.222 555.17 435.396C557.109 433.571 558.079 431.315 558.079 428.629C558.079 425.873 557.109 423.583 555.17 421.758C553.23 419.932 550.764 419.02 547.77 419.02C544.708 419.02 542.207 419.932 540.268 421.758C538.329 423.583 537.359 425.873 537.359 428.629C537.359 431.315 538.329 433.571 540.268 435.396ZM556.446 501.782V444.127H538.992V501.782H556.446Z" fill="#FFBC51" fill-opacity="0.6"/>
<path id="Path_3" d="M601.32 486.033V500.881H592.414C586.067 500.881 581.119 499.328 577.57 496.222C574.021 493.116 572.247 488.047 572.247 481.015V458.282H565.286V443.74H572.247V429.813H589.752V443.74H601.218V458.282H589.752V481.22C589.752 482.927 590.162 484.155 590.981 484.906C591.8 485.657 593.165 486.033 595.075 486.033H601.32Z" fill="#FFBC51" fill-opacity="0.6"/>
<path id="Path_4" d="M647.206 443.503C653.751 443.503 659 445.69 662.954 450.064C666.908 454.439 668.885 460.449 668.885 468.096V501.782H651.501V470.472C651.501 466.615 650.512 463.618 648.535 461.482C646.558 459.347 643.9 458.279 640.559 458.279C637.219 458.279 634.56 459.347 632.583 461.482C630.606 463.618 629.617 466.615 629.617 470.472V501.782H612.131V425.316H629.617V451.873C631.39 449.324 633.81 447.292 636.878 445.776C639.946 444.261 643.388 443.503 647.206 443.503Z" fill="#FFBC51" fill-opacity="0.6"/>
<path id="Path_5" d="M795.906 383.934V463.991C795.906 476.385 792.397 485.931 785.379 492.631C778.36 499.33 768.9 502.68 756.997 502.68C744.532 502.68 734.538 499.163 727.015 492.128C719.491 485.094 715.729 475.101 715.729 462.149H744.364C744.364 467.062 745.375 470.774 747.396 473.286C749.417 475.799 752.337 477.055 756.155 477.055C759.636 477.055 762.331 475.938 764.24 473.705C766.149 471.472 767.103 468.234 767.103 463.991V383.934H795.906Z" fill="#FFBC51"/>
<path id="Shape_7" fill-rule="evenodd" clip-rule="evenodd" d="M838.393 496.811C845.718 500.724 853.966 502.68 863.136 502.68C872.306 502.68 880.609 500.724 888.046 496.811C895.483 492.898 901.354 487.28 905.659 479.958C909.965 472.635 912.118 464.167 912.118 454.552C912.118 444.938 909.993 436.469 905.743 429.146C901.494 421.824 895.679 416.206 888.298 412.293C880.917 408.38 872.641 406.424 863.471 406.424C854.301 406.424 846.026 408.38 838.645 412.293C831.264 416.206 825.449 421.824 821.199 429.146C816.949 436.469 814.825 444.938 814.825 454.552C814.825 464.278 816.922 472.775 821.115 480.042C825.309 487.308 831.068 492.898 838.393 496.811ZM877.142 471.826C873.284 475.85 868.615 477.863 863.135 477.863C857.655 477.863 853.098 475.85 849.464 471.826C845.829 467.801 844.012 462.043 844.012 454.553C844.012 446.951 845.857 441.165 849.548 437.197C853.238 433.228 857.879 431.244 863.471 431.244C868.95 431.244 873.563 433.256 877.31 437.281C881.056 441.305 882.929 447.063 882.929 454.553C882.929 462.043 881 467.801 877.142 471.826Z" fill="#FFBC51"/>
<path id="Path_6" d="M1023.82 408.224L965.048 545.861H934.148L955.644 498.366L917.523 408.224H949.598L971.262 466.59L992.757 408.224H1023.82Z" fill="#FFBC51"/>
</g>
</g>
</g>
</svg>
