<?xml version="1.0" encoding="UTF-8"?>
<svg width="1024px" height="1024px" viewBox="0 0 1024 1024" version="1.1" xmlns="http://www.w3.org/2000/svg" xmlns:xlink="http://www.w3.org/1999/xlink">
    <title>lead-with-joy</title>
    <g id="lead-with-joy" stroke="none" stroke-width="1" fill="none" fill-rule="evenodd">
        <path d="M386.698817,51.8835681 C173.95651,95.2114454 13.8703695,283.359417 13.8703695,508.897509 C13.8703695,734.387257 173.887887,922.502911 386.562019,965.883568 M695.962691,947.832125 C861.168375,870.655376 975.637506,703.010352 975.637506,508.629631 C975.637506,314.028836 860.909031,146.224313 695.401372,69.1653521" id="circle" stroke="--primary" stroke-width="50" stroke-linecap="round" stroke-linejoin="bevel" transform="translate(494.7539, 508.8836) rotate(-90) translate(-494.7539, -508.8836)"></path>
        <path d="M493.817118,872 C463.336747,872 433.283102,867.126778 403.656181,857.380334 C374.029261,847.63389 347.206535,834.598021 323.188003,818.272727 C299.169471,801.947434 279.966837,783.733766 265.580102,763.631725 C251.193367,743.529685 244,723.244898 244,702.777365 C244,692.78726 246.194587,685.660173 250.58376,681.396104 C254.972933,677.132035 260.947086,675 268.506218,675 C274.114606,675 280.332602,675.548237 287.160205,676.644712 C293.987808,677.741187 301.790783,679.264069 310.569129,681.213358 C333.978054,686.573902 361.959034,691.203463 394.51207,695.102041 C427.065106,699.000618 460.166789,700.949907 493.817118,700.949907 C527.467447,700.949907 560.569129,699.000618 593.122165,695.102041 C625.675201,691.203463 653.778103,686.573902 677.430871,681.213358 C686.209217,679.264069 694.012192,677.741187 700.839795,676.644712 C707.667398,675.548237 713.763472,675 719.128018,675 C726.930992,675 733.027067,677.132035 737.41624,681.396104 C741.805413,685.660173 744,692.78726 744,702.777365 C744,723.244898 736.806633,743.529685 722.419898,763.631725 C708.033163,783.733766 688.769568,801.947434 664.629115,818.272727 C640.488661,834.598021 613.604974,847.63389 583.978054,857.380334 C554.351134,867.126778 524.297488,872 493.817118,872 Z M494.448029,751.113636 C517.41138,751.113636 541.962623,750.187103 568.101757,748.334035 C594.240891,746.480968 620.380025,743.51606 646.51916,739.439311 C672.658294,735.362563 697.087391,730.235743 719.806452,724.058851 L719.806452,703.675109 C719.806452,700.21605 718.646069,698.054138 716.325305,697.189373 C714.004541,696.324608 711.256268,696.262839 708.080485,697.004066 C688.537207,701.698504 666.306728,705.89879 641.389049,709.604925 C616.47137,713.31106 591.248327,716.214199 565.71992,718.314342 C540.191513,720.414485 516.434216,721.464557 494.448029,721.464557 C472.706132,721.464557 449.009908,720.414485 423.359355,718.314342 C397.708803,716.214199 372.48576,713.31106 347.690226,709.604925 C322.894693,705.89879 300.603141,701.698504 280.815572,697.004066 C277.63979,696.262839 274.891516,696.324608 272.570752,697.189373 C270.249988,698.054138 269.089606,700.21605 269.089606,703.675109 L269.089606,724.058851 C291.808666,730.235743 316.237764,735.362563 342.376898,739.439311 C368.516032,743.51606 394.716239,746.480968 420.977518,748.334035 C447.238798,750.187103 471.728968,751.113636 494.448029,751.113636 Z" id="mouth" fill="--primary" fill-rule="nonzero" transform="translate(494, 773.5) rotate(-360) translate(-494, -773.5)"></path>
        <g id="Lead-with-Joy" transform="translate(6, 378)" fill="--primary" fill-rule="nonzero">
            <polygon id="Path" points="28.3111824 102.200764 65.3971756 102.200764 65.3971756 124.212766 0 124.212766 0 7.14893617 28.3111824 7.14893617"></polygon>
            <path d="M168.420124,75.7986508 C168.420124,78.4639336 168.252151,81.2402698 167.916207,84.1276596 L102.910966,84.1276596 C103.358892,89.902439 105.234582,94.3168137 108.538035,97.3707836 C111.841488,100.424754 115.900816,101.951738 120.716019,101.951738 C127.882833,101.951738 132.866008,98.9532953 135.665545,92.9564089 L166.236485,92.9564089 C164.668744,99.0643487 161.841212,104.561495 157.753889,109.447846 C153.666566,114.334198 148.543414,118.165542 142.384433,120.941879 C136.225452,123.718215 129.338592,125.106383 121.723853,125.106383 C112.541372,125.106383 104.366726,123.162948 97.1999117,119.276077 C90.033098,115.389206 84.4340247,109.836533 80.402692,102.618059 C76.3713592,95.3995848 74.3556929,86.9595226 74.3556929,77.2978723 C74.3556929,67.6362221 76.3433639,59.1961598 80.3187059,51.9776855 C84.2940479,44.7592112 89.8651258,39.2065387 97.0319395,35.3196679 C104.198753,31.4327971 112.429391,29.4893617 121.723853,29.4893617 C130.794351,29.4893617 138.857017,31.3772704 145.911849,35.1530877 C152.966681,38.928905 158.481769,44.3149974 162.457111,51.3113648 C166.432453,58.3077322 168.420124,66.4701609 168.420124,75.7986508 Z M139.024989,68.3025428 C139.024989,63.416191 137.345267,59.5293202 133.985823,56.6419305 C130.626379,53.7545407 126.427074,52.3108459 121.387908,52.3108459 C116.572705,52.3108459 112.513377,53.699014 109.209924,56.4753503 C105.906471,59.2516866 103.862809,63.1940841 103.078939,68.3025428 L139.024989,68.3025428 Z" id="Shape"></path>
            <path d="M177.378641,77.1312922 C177.378641,67.5806954 179.174654,59.1961598 182.766679,51.9776855 C186.358705,44.7592112 191.249386,39.2065387 197.438723,35.3196679 C203.628059,31.4327971 210.535801,29.4893617 218.161948,29.4893617 C224.682856,29.4893617 230.402467,30.8220031 235.320779,33.4872859 C240.239091,36.1525688 244.024533,39.6507525 246.677106,43.9818371 L246.677106,30.8220031 L275.026478,30.8220031 L275.026478,123.773742 L246.677106,123.773742 L246.677106,110.613908 C243.914009,114.944992 240.073305,118.443176 235.154993,121.108459 C230.236681,123.773742 224.517071,125.106383 217.996162,125.106383 C210.480539,125.106383 203.628059,123.135184 197.438723,119.192787 C191.249386,115.250389 186.358705,109.64219 182.766679,102.368189 C179.174654,95.0941879 177.378641,86.6818889 177.378641,77.1312922 Z M246.677106,77.2978723 C246.677106,70.1904515 244.715308,64.5822522 240.79171,60.4732745 C236.868113,56.3642968 232.087956,54.309808 226.451238,54.309808 C220.814521,54.309808 216.034364,56.3365335 212.110766,60.3899844 C208.187169,64.4434354 206.22537,70.0238713 206.22537,77.1312922 C206.22537,84.238713 208.187169,89.8746757 212.110766,94.0391801 C216.034364,98.2036845 220.814521,100.285937 226.451238,100.285937 C232.087956,100.285937 236.868113,98.2314478 240.79171,94.1224702 C244.715308,90.0134925 246.677106,84.4052932 246.677106,77.2978723 Z" id="Shape"></path>
            <path d="M292.047661,76.9370804 C292.047661,67.3478211 293.843674,58.9293435 297.4357,51.6816475 C301.027725,44.4339515 305.918407,38.8588008 312.107743,34.9561952 C318.29708,31.0535897 325.204822,29.1022869 332.830968,29.1022869 C338.909781,29.1022869 344.463606,30.3845716 349.492442,32.949141 C354.521278,35.5137103 358.472506,38.9703038 361.346126,43.3189214 L361.346126,0 L389.695499,0 L389.695499,123.768347 L361.346126,123.768347 L361.346126,110.387985 C358.693554,114.848106 354.908111,118.416202 349.989799,121.092274 C345.071487,123.768347 339.351877,125.106383 332.830968,125.106383 C325.204822,125.106383 318.29708,123.127204 312.107743,119.168847 C305.918407,115.21049 301.027725,109.579588 297.4357,102.276141 C293.843674,94.9726931 292.047661,86.5263397 292.047661,76.9370804 Z M361.346126,77.104335 C361.346126,69.968142 359.384328,64.3372397 355.46073,60.2116282 C351.537133,56.0860166 346.756976,54.0232108 341.120259,54.0232108 C335.483541,54.0232108 330.703384,56.0581409 326.779787,60.1280009 C322.856189,64.197861 320.894391,69.8008875 320.894391,76.9370804 C320.894391,84.0732734 322.856189,89.7320514 326.779787,93.9134145 C330.703384,98.0947776 335.483541,100.185459 341.120259,100.185459 C346.756976,100.185459 351.537133,98.1226533 355.46073,93.9970418 C359.384328,89.8714302 361.346126,84.2405279 361.346126,77.104335 Z" id="Shape"></path>
            <polygon id="Path" fill-opacity="0.6" points="525.86496 67.0212766 510.274637 123.319149 490.760922 123.319149 481.675171 86.7961565 472.279678 123.319149 452.86921 123.319149 437.17564 67.0212766 454.830906 67.0212766 462.987433 107.277282 472.692667 67.0212766 491.380405 67.0212766 501.188886 107.075498 509.242166 67.0212766"></polygon>
            <path d="M541.593116,60.9879672 C538.548102,60.9879672 536.061342,60.0813345 534.132833,58.2680692 C532.204325,56.4548038 531.240071,54.2138816 531.240071,51.5453024 C531.240071,48.8082981 532.204325,46.5331633 534.132833,44.719898 C536.061342,42.9066327 538.548102,42 541.593116,42 C544.570462,42 547.023389,42.9066327 548.951898,44.719898 C550.880406,46.5331633 551.84466,48.8082981 551.84466,51.5453024 C551.84466,54.2138816 550.880406,56.4548038 548.951898,58.2680692 C547.023389,60.0813345 544.570462,60.9879672 541.593116,60.9879672 Z M550.220653,66.9409515 L550.220653,124.212766 L532.864078,124.212766 L532.864078,66.9409515 L550.220653,66.9409515 Z" id="Shape" fill-opacity="0.6"></path>
            <path d="M594.845543,108.569318 L594.845543,123.319149 L585.988827,123.319149 C579.677144,123.319149 574.756747,121.77635 571.227634,118.690754 C567.698521,115.605157 565.933965,110.569869 565.933965,103.584892 L565.933965,81.0023913 L559.011474,81.0023913 L559.011474,66.5577289 L565.933965,66.5577289 L565.933965,52.7234043 L583.341992,52.7234043 L583.341992,66.5577289 L594.743741,66.5577289 L594.743741,81.0023913 L583.341992,81.0023913 L583.341992,103.788338 C583.341992,105.483721 583.749198,106.704396 584.563608,107.450365 C585.378019,108.196333 586.73537,108.569318 588.635662,108.569318 L594.845543,108.569318 Z" id="Path" fill-opacity="0.6"></path>
            <path d="M640.475871,66.3208741 C646.984113,66.3208741 652.204265,68.4935308 656.136328,72.8388442 C660.068391,77.1841576 662.034422,83.1546866 662.034422,90.7504313 L662.034422,124.212766 L644.746905,124.212766 L644.746905,93.1112708 C644.746905,89.2791834 643.763889,86.3024727 641.797858,84.1811386 C639.831827,82.0598045 637.187853,80.9991374 633.865938,80.9991374 C630.544023,80.9991374 627.90005,82.0598045 625.934019,84.1811386 C623.967987,86.3024727 622.984972,89.2791834 622.984972,93.1112708 L622.984972,124.212766 L605.595763,124.212766 L605.595763,48.2553191 L622.984972,48.2553191 L622.984972,74.6351351 C624.747621,72.1032202 627.154314,70.0845313 630.205052,68.5790684 C633.255791,67.0736055 636.679397,66.3208741 640.475871,66.3208741 Z" id="Path" fill-opacity="0.6"></path>
            <path d="M788.349515,7.14893617 L788.349515,86.6745491 C788.349515,98.9860457 784.859896,108.469225 777.880659,115.124088 C770.901422,121.778951 761.493411,125.106383 749.656625,125.106383 C737.2615,125.106383 727.323066,121.61258 719.841324,114.624974 C712.359582,107.637368 708.618711,97.7105303 708.618711,84.8444618 L737.093998,84.8444618 C737.093998,89.7246947 738.099008,93.4125979 740.109029,95.9081715 C742.119049,98.4037452 745.022411,99.651532 748.819116,99.651532 C752.280818,99.651532 754.960845,98.5423881 756.859197,96.3241005 C758.75755,94.1058128 759.706726,90.8892957 759.706726,86.6745491 L759.706726,7.14893617 L788.349515,7.14893617 Z" id="Path"></path>
            <path d="M855.204766,125.106383 C846.085613,125.106383 837.883936,123.162948 830.599735,119.276077 C823.315534,115.389206 817.588261,109.836533 813.417917,102.618059 C809.247573,95.3995848 807.162401,86.9595226 807.162401,77.2978723 C807.162401,67.7472756 809.275375,59.3349766 813.501324,52.0609756 C817.727273,44.7869746 823.51015,39.2065387 830.849956,35.3196679 C838.189762,31.4327971 846.419241,29.4893617 855.538394,29.4893617 C864.657546,29.4893617 872.887026,31.4327971 880.226831,35.3196679 C887.566637,39.2065387 893.349515,44.7869746 897.575463,52.0609756 C901.801412,59.3349766 903.914387,67.7472756 903.914387,77.2978723 C903.914387,86.8484691 901.77361,95.260768 897.492056,102.534769 C893.210503,109.80877 887.372021,115.389206 879.976611,119.276077 C872.5812,123.162948 864.323919,125.106383 855.204766,125.106383 Z M855.204766,100.452517 C860.654016,100.452517 865.296999,98.4535547 869.133716,94.4556305 C872.970432,90.4577063 874.888791,84.7384536 874.888791,77.2978723 C874.888791,69.8572911 873.026037,64.1380384 869.30053,60.1401142 C865.575022,56.1421899 860.987643,54.1432278 855.538394,54.1432278 C849.977935,54.1432278 845.362754,56.1144266 841.692851,60.0568241 C838.022948,63.9992216 836.187996,69.7462377 836.187996,77.2978723 C836.187996,84.7384536 837.995146,90.4577063 841.609444,94.4556305 C845.223742,98.4535547 849.755516,100.452517 855.204766,100.452517 Z" id="Shape"></path>
            <polygon id="Path" points="1015 31.2765957 956.550275 168 925.822419 168 947.198319 120.819627 909.289497 31.2765957 941.186347 31.2765957 962.729246 89.2552933 984.105145 31.2765957"></polygon>
        </g>
    </g>
</svg>