<?xml version="1.0" encoding="UTF-8"?>
<svg width="1024px" height="1024px" viewBox="0 0 1024 1024" version="1.1" xmlns="http://www.w3.org/2000/svg" xmlns:xlink="http://www.w3.org/1999/xlink">
    <title>linkedin</title>
    <g id="linkedin" stroke="none" stroke-width="1" fill="none" fill-rule="evenodd">
        <path d="M932.136404,16 C972.377379,16 1005,47.8255455 1005,87.0607036 L1005,936.939296 C1005,976.18771 972.377379,1008 932.136404,1008 L91.8635958,1008 C51.6212954,1008 19,976.18771 19,936.939296 L19,87.0607036 C19,47.8255455 51.6212954,16 91.8635958,16 L932.136404,16 Z M684.770984,388 C606.139743,388 570.737932,431.168518 550.933816,461.710722 L550.733,462.02 L550.733658,398.52381 L402,398.52381 C403.955715,440.605777 402,847 402,847 L550.729686,847 L550.729686,596.551913 C550.729686,583.148322 551.696288,569.758002 555.623608,560.176425 C566.375406,533.395785 590.847666,505.659641 631.934897,505.659641 C685.753476,505.659641 707.282232,546.786105 707.282232,607.075722 L707.282232,847 L856,847 L856,589.850117 C856,452.098361 782.62427,388 684.770984,388 Z M318.178106,398.977319 L168.828669,398.977319 L168.828669,847 L318.178106,847 L318.178106,398.977319 Z M550.733,462.02 L550.733658,463.564403 L549.740573,463.564403 C549.936277,463.258244 550.133546,462.950651 550.33241,462.641685 L550.733,462.02 Z M244.490629,183 C193.402685,183 160,216.448577 160,260.410322 C160,303.404273 192.409459,337.807387 242.529442,337.807387 L243.502723,337.807387 C295.583893,337.807387 328,303.404273 328,260.410322 C327.029378,216.448577 295.583893,183 244.490629,183 Z" id="Combined-Shape" fill="--primary" fill-rule="nonzero"></path>
    </g>
</svg>