<?xml version="1.0" encoding="UTF-8"?>
<svg width="1024px" height="1024px" viewBox="0 0 1024 1024" version="1.1" xmlns="http://www.w3.org/2000/svg" xmlns:xlink="http://www.w3.org/1999/xlink">
    <title>patreon</title>
    <g id="patreon" stroke="none" stroke-width="1" fill="none" fill-rule="evenodd">
        <g id="#ff424dff" transform="translate(11, 30)" fill="--primary" fill-rule="nonzero">
            <path d="M0.0145049572,0 C59.34945,0.0385214163 118.665055,0.0385214163 178,0 C177.96132,321.673087 177.96132,643.326913 178,965 C118.665055,964.961479 59.34945,964.961479 0.0145049572,965 C-0.00483498574,643.326913 -0.00483498574,321.673087 0.0145049572,0 Z" id="Path"></path>
            <path d="M622.714787,0.523982968 C712.6172,-4.4648704 803.906579,26.373563 872.734803,84.3521291 C919.54493,123.319119 955.895016,174.652301 977.855323,231.436624 C996.174841,278.339551 1004.09211,329.24897 1001.53007,379.503481 C998.505716,456.378051 968.705195,531.422734 920.238413,590.922996 C872.002793,649.768352 804.966068,693.242645 731.052299,711.75341 C691.966807,722.73274 651.012761,724.427794 610.694409,722.077833 C548.878073,716.934883 488.54502,695.419249 437.285042,660.497276 C395.155927,632.06659 359.595642,594.274581 332.858005,551.147003 C313.556052,518.497944 297.567408,483.518184 289.457505,446.323297 C283.447316,423.189656 281.386129,399.304798 279.286416,375.574037 C278.74704,360.723048 278.80483,345.833536 280.923807,331.09812 C287.74306,239.931159 331.779253,152.501022 400.087365,91.9028261 C460.979057,37.3721547 540.980068,4.22228353 622.714787,0.523982968 Z" id="Path"></path>
        </g>
    </g>
</svg>