<?xml version="1.0" encoding="UTF-8"?>
<svg viewBox="0 0 1024 1024" version="1.1" xmlns="http://www.w3.org/2000/svg" xmlns:xlink="http://www.w3.org/1999/xlink">
    <title>playbook</title>
    <g id="playbook" stroke="none" stroke-width="1" fill="none" fill-rule="evenodd">
        <g id="Group-3">
            <circle id="Oval" stroke="var(--color-primary)" stroke-width="40" cx="161.5" cy="161.5" r="141.5"></circle>
            <g id="1" transform="translate(111.4245, 82.4062)" fill="var(--color-primary)" fill-rule="nonzero">
                <path d="M69.234375,158.59375 L37.296875,158.59375 L37.296875,49.21875 L0,49.21875 L0,28 C9.84375,27.5625 16.734375,26.90625 20.671875,26.03125 C26.9427083,24.6458333 32.046875,21.875 35.984375,17.71875 C38.6822917,14.875 40.7239583,11.0833333 42.109375,6.34375 C42.9114583,3.5 43.3125,1.38541667 43.3125,0 L69.234375,0 L69.234375,158.59375 Z" id="Path"></path>
            </g>
        </g>
        <g id="Group-2" transform="translate(351, 350)">
            <circle id="Oval-Copy" stroke="var(--color-primary)" stroke-width="40" cx="161.5" cy="161.5" r="141.5"></circle>
            <g id="2" transform="translate(106.8932, 81.6406)" fill="var(--color-primary)" fill-rule="nonzero">
                <path d="M70.875,33.03125 C67.15625,28.5833333 61.8333333,26.359375 54.90625,26.359375 C45.4270833,26.359375 38.9739583,29.8958333 35.546875,36.96875 C33.578125,41.0520833 32.4114583,47.5416667 32.046875,56.4375 L1.75,56.4375 C2.26041667,42.9479167 4.703125,32.046875 9.078125,23.734375 C17.390625,7.91145833 32.15625,0 53.375,0 C70.1458333,0 83.4895833,4.6484375 93.40625,13.9453125 C103.322917,23.2421875 108.28125,35.546875 108.28125,50.859375 C108.28125,62.5989583 104.78125,73.0260417 97.78125,82.140625 C93.1875,88.1927083 85.640625,94.9375 75.140625,102.375 L62.671875,111.234375 C54.8697917,116.776042 49.5286458,120.786458 46.6484375,123.265625 C43.7682292,125.744792 41.34375,128.625 39.375,131.90625 L108.609375,131.90625 L108.609375,159.359375 L0,159.359375 C0.291666667,147.984375 2.734375,137.59375 7.328125,128.1875 C11.7760417,117.614583 22.2760417,106.421875 38.828125,94.609375 C53.1927083,84.328125 62.4895833,76.9635417 66.71875,72.515625 C73.2083333,65.5885417 76.453125,58.0052083 76.453125,49.765625 C76.453125,43.0572917 74.59375,37.4791667 70.875,33.03125 Z" id="Path"></path>
            </g>
        </g>
        <g id="Group" transform="translate(701, 701)">
            <circle id="Oval-Copy" stroke="var(--color-primary)" stroke-width="40" cx="161.5" cy="161.5" r="141.5"></circle>
            <g id="3" transform="translate(106.7995, 79.6406)" fill="var(--color-primary)" fill-rule="nonzero">
                <path d="M36.96875,32.375 C33.46875,37.0416667 31.7916667,43.2760417 31.9375,51.078125 L2.84375,51.078125 C3.13541667,43.203125 4.484375,35.7291667 6.890625,28.65625 C9.44270833,22.4583333 13.453125,16.734375 18.921875,11.484375 C23.0052083,7.765625 27.8541667,4.921875 33.46875,2.953125 C39.0833333,0.984375 45.9739583,0 54.140625,0 C69.3072917,0 81.5390625,3.91927083 90.8359375,11.7578125 C100.132812,19.5963542 104.78125,30.1145833 104.78125,43.3125 C104.78125,52.6458333 102.010417,60.5208333 96.46875,66.9375 C92.96875,70.9479167 89.3229167,73.6822917 85.53125,75.140625 C88.375,75.140625 92.4583333,77.5833333 97.78125,82.46875 C105.729167,89.8333333 109.703125,99.8958333 109.703125,112.65625 C109.703125,126.072917 105.054688,137.867188 95.7578125,148.039062 C86.4609375,158.210938 72.6979167,163.296875 54.46875,163.296875 C32.0104167,163.296875 16.40625,155.96875 7.65625,141.3125 C3.0625,133.510417 0.510416667,123.302083 0,110.6875 L30.625,110.6875 C30.625,117.03125 31.6458333,122.28125 33.6875,126.4375 C37.4791667,134.09375 44.3697917,137.921875 54.359375,137.921875 C60.484375,137.921875 65.8255208,135.825521 70.3828125,131.632812 C74.9401042,127.440104 77.21875,121.40625 77.21875,113.53125 C77.21875,103.104167 72.9895833,96.140625 64.53125,92.640625 C59.71875,90.671875 52.1354167,89.6875 41.78125,89.6875 L41.78125,67.375 C51.9166667,67.2291667 58.9895833,66.2447917 63,64.421875 C69.9270833,61.359375 73.390625,55.1614583 73.390625,45.828125 C73.390625,39.7760417 71.6223958,34.8541667 68.0859375,31.0625 C64.5494792,27.2708333 59.5729167,25.375 53.15625,25.375 C45.7916667,25.375 40.3958333,27.7083333 36.96875,32.375 Z" id="Path"></path>
            </g>
        </g>
        <path d="M161.5,323.5 C138.022899,393.208786 144.40918,447.276103 180.658841,485.701953 C216.908502,524.127802 273.855555,534.393818 351.5,516.5" id="Line" stroke="var(--color-primary)" stroke-width="40" stroke-linecap="square"></path>
        <path d="M510.5,673.5 C487.022899,743.208786 493.40918,797.276103 529.658841,835.701953 C565.908502,874.127802 622.855555,884.393818 700.5,866.5" id="Line-Copy" stroke="var(--color-primary)" stroke-width="40" stroke-linecap="square"></path>
    </g>
</svg>