<?xml version="1.0" encoding="UTF-8"?>
<svg viewBox="0 0 1024 1024" version="1.1" xmlns="http://www.w3.org/2000/svg" xmlns:xlink="http://www.w3.org/1999/xlink">
    <g id="search" stroke="none" stroke-width="1" fill="none" fill-rule="evenodd">
        <path d="M394.228119,7 C448.734687,7 499.880971,17.1502412 547.66697,37.4507236 C595.452969,57.7512061 637.390684,85.9843965 673.480116,122.150295 C709.569548,158.316194 737.84522,200.260989 758.307132,247.984682 C778.769044,295.708375 789,346.78952 789,401.228119 C789,455.734687 778.759132,506.880971 758.277395,554.66697 C747.505339,579.799285 734.577423,603.311181 719.493648,625.202656 C720.46582,626.066299 721.418209,626.96489 722.349982,627.896663 L1002.36427,907.910949 C1028.52939,934.076076 1028.52939,976.49813 1002.36427,1002.66326 C976.19914,1028.82838 933.777086,1028.82838 907.611959,1002.66326 L627.597673,722.648972 C627.050408,722.101706 626.514589,721.547329 625.990216,720.986137 C601.915023,738.452545 575.806714,753.216314 547.66697,765.277395 C499.880971,785.759132 448.734687,796 394.228119,796 C339.851826,796 288.828739,785.759132 241.158856,765.277395 C193.488973,744.795658 151.549842,716.500162 115.341462,680.390905 C79.1330817,644.281648 50.8574098,602.401991 30.5144459,554.751933 C10.171482,507.101875 0,455.915942 0,401.194133 C0,346.840498 10.2408684,295.828739 30.7226051,248.158856 C51.2043418,200.488973 79.4800138,158.619228 115.549621,122.549621 C151.619228,86.4800138 193.454988,58.2043418 241.0569,37.7226051 C288.658813,17.2408684 339.715886,7 394.228119,7 Z M394.269199,122 C355.840834,122 319.721681,129.225754 285.91174,143.677262 C252.101799,158.12877 222.387374,178.166383 196.768464,203.790101 C171.149554,229.41382 151.116749,259.134255 136.670049,292.951409 C122.22335,326.768562 115,362.893726 115,401.326899 C115,440.062999 122.231764,476.279521 136.695293,509.976466 C151.158822,543.67341 171.190425,573.36139 196.790101,599.040404 C222.389778,624.719419 252.009238,644.799105 285.648483,659.279463 C319.287727,673.759821 355.472995,681 394.204286,681 C432.935578,681 469.208598,673.759821 503.023347,659.279463 C536.838097,644.799105 566.556128,624.719419 592.177442,599.040404 C617.798757,573.36139 637.841178,543.64456 652.304707,509.889915 C666.768236,476.13527 674,439.928365 674,401.269199 C674,362.850451 666.759821,326.739712 652.279463,292.936984 C637.799105,259.134255 617.719419,229.42584 592.040404,203.811739 C566.36139,178.197637 536.64456,158.158822 502.889915,143.695293 C469.13527,129.231764 432.928365,122 394.269199,122 Z" id="Shape" fill="#fff" fill-rule="nonzero"></path>
    </g>
</svg>