<?xml version="1.0" encoding="UTF-8"?>
<svg width="1024px" height="1024px" viewBox="0 0 1024 1024" version="1.1" xmlns="http://www.w3.org/2000/svg" xmlns:xlink="http://www.w3.org/1999/xlink">
    <title>yoga</title>
    <g id="yoga" stroke="none" stroke-width="1" fill="none" fill-rule="evenodd">
        <g id="yoga-svgrepo-com" transform="translate(17, 55)" stroke="--primary">
            <path d="M872.005558,150.117762 C957.95584,219.438778 1058.06753,335.139495 864.678765,441.563258 C671.289998,547.98702 574.595614,366.870839 606.338284,267.281793 C581.479648,285.262604 565.41717,312.940006 562.141589,343.437526 C538.209723,327.492384 525.203471,299.510825 528.445445,270.943882 C512.276109,281.910715 498.352811,295.866059 487.425046,312.058696 C487.425046,312.058696 435.416995,114.245011 627.336852,146.453137 C644.91811,112.769017 674.953394,71.0303293 766.520545,63.7061508 C769.450755,36.6132842 784.385945,12.4470457 830.026181,0 C825.391674,26.0244016 828.791369,52.8425118 839.773251,76.8886576 C877.599425,32.9422777 931.991823,6.6835556 989.94206,4.39247823 C992.139083,82.7571303 931.124759,206.162437 931.124759,206.162437" id="Path" stroke-width="40" stroke-linecap="round" stroke-linejoin="round"></path>
            <path d="M642.29108,422 C586.606666,458.851997 583.650532,519.370275 514.045648,552.344718 C435.600277,589.506311 385.094804,583.119003 339.669314,668.115615 C286.918195,681.311483 288.382306,637.34133 218.046635,638.805564 C147.710964,640.269798 81.7701629,720.871171 40.7395415,776.557731 C-0.291079845,832.244292 -22.2705011,871.811593 33.4139136,908.450426 C89.0983283,945.089259 149.175075,816.125032 209.259434,814.658261 C269.343793,813.191489 316.228319,841.037307 452.507329,841.037307 C543.856353,837.243714 632.912662,811.290541 712,765.414836" id="Path" stroke-width="40" stroke-linecap="round" stroke-linejoin="round"></path>
            <path d="M437,582.964973 C372.600359,555.797959 310.632572,468.404202 324.573164,417 C297.423822,455.18438 297.423822,529.355771 297.423822,529.355771 C261.472036,499.246215 262.20642,476.48157 262.20642,476.48157 C236.525847,522.005774 272.721581,650 272.721581,650" id="Path" stroke-width="40" stroke-linecap="round" stroke-linejoin="round"></path>
            <path d="M708.002946,642.487356 C696.204276,716.053406 710.680905,791.436384 748.879107,855.338478 C782.940047,910.549718 815.057031,914.607503 845.227531,899.276684 C887.617905,877.73238 878.315229,832.881173 856.906434,791.874718 C829.999114,724.700348 822.248671,651.340738 834.521869,580" id="Path" stroke-width="40" stroke-linecap="round" stroke-linejoin="round"></path>
            <path d="M869,874.767555 C881.149284,875.826963 893.339353,873.24896 904.011852,867.36311 C946.707927,845.794745 937.34071,800.88816 915.774978,759.828535 C893.620647,707.146885 884.389958,649.95383 888.84964,593" id="Path" stroke-width="40" stroke-linecap="round" stroke-linejoin="round"></path>
            <path d="M891.17807,425 C935.212918,438.503705 943,501.035428 943,501.035428 L907.923966,501.035428 C930.320402,531.019642 933.87047,571.130004 917.0903,604.601056 C900.500844,601.35744 885.416662,592.782663 874.120893,580.174602 C874.120893,580.174602 853.404269,635.800934 830,650" id="Path" stroke-width="40" stroke-linecap="round" stroke-linejoin="round"></path>
            <path d="M814.16,343 C814.16,343 809.9714,335.139895 805.84,327.005837 C809.395098,316.012839 811.168391,304.536741 811.0946,293" id="Path" stroke-width="40" stroke-linecap="round" stroke-linejoin="round"></path>
            <path d="M763,320.584491 C776.625748,326.234821 791.37478,328.429546 806,326.983091" id="Path" stroke-width="40" stroke-linecap="round" stroke-linejoin="round"></path>
            <path d="M606,267 C614.766529,242.33106 640.092059,200.1574 681,206.67581" id="Path" stroke-width="40" stroke-linecap="round" stroke-linejoin="round"></path>
            <path d="M779,170 C788.500139,154.976964 803.706279,144.363885 821.197386,140.548463 C838.688494,136.73304 856.995591,140.035709 872,149.713446" id="Path" stroke-width="40" stroke-linecap="round" stroke-linejoin="round"></path>
            <circle id="Oval" stroke-width="10" fill="--primary" fill-rule="nonzero" cx="696" cy="268" r="24"></circle>
            <circle id="Oval" stroke-width="10" fill="--primary" fill-rule="nonzero" cx="830" cy="198" r="24"></circle>
        </g>
    </g>
</svg>