<?xml version="1.0" encoding="UTF-8"?>
<svg viewBox="0 0 1024 1024" version="1.1" xmlns="http://www.w3.org/2000/svg" xmlns:xlink="http://www.w3.org/1999/xlink">
    <title>youtube</title>
    <g id="youtube" stroke="none" stroke-width="1" fill="none" fill-rule="evenodd">
        <path d="M513.328664,162.000565 C531.069244,162.018844 827.880921,162.62813 903.570096,182.937678 C946.66515,194.478136 980.535059,228.357711 992.069118,271.469562 C1012.29051,347.190341 1012.97627,502.798348 1012.99921,512.06668 L1012.99943,512.933322 C1012.98116,522.201694 1012.37207,677.810381 992.069118,753.53184 C980.535059,796.64334 946.66515,830.52267 903.570096,842.06113 C827.880921,862.371834 531.069244,862.981155 513.328664,862.999435 L511.667844,862.999435 C493.927498,862.981155 197.119685,862.371834 121.427451,842.06113 C78.3323975,830.52267 44.4657465,796.64334 32.929691,753.53184 C12.6278907,677.810381 12.0188367,522.201694 12.0005651,512.933322 L12.0005651,512.06668 C12.0188367,502.798348 12.6278907,347.190341 32.929691,271.469562 C44.4657465,228.357711 78.3323975,194.478136 121.427451,182.937678 C197.119685,162.62813 493.927498,162.018844 511.667844,162.000565 Z M413,363 L413,663 L673,513.001225 L413,363 Z" id="Combined-Shape" fill="var(--color-primary)" fill-rule="nonzero"></path>
    </g>
</svg>