<svg class="w-[66%] sm:w-[55%] md:w-[44%] lg:w-[33%] max-w-[250px] sm:max-w-[300px]" viewBox="0 0 821 981" fill="none" xmlns="http://www.w3.org/2000/svg">
<path fill-rule="evenodd" clip-rule="evenodd" d="M240.205 317.083C282.786 322.667 326.898 309.82 363.137 332.819C408.593 361.668 466.023 402.293 458.296 455.494C450.535 508.924 373.018 511.891 332.013 547.11C297.145 577.057 285.631 635.552 240.205 642.806C192.074 650.492 143.861 620.003 113.414 582.019C85.5082 547.205 95.2182 499.777 90.0619 455.494C83.6449 400.385 39.2368 333.347 80.0745 295.7C121.196 257.792 184.699 309.804 240.205 317.083Z" fill="var(--color-error)"/>
<path fill-rule="evenodd" clip-rule="evenodd" d="M656.601 481.17C695.723 484.356 730.377 502.51 759.201 529.134C789.488 557.11 815.443 590.65 819.526 631.662C824.013 676.735 820.066 732.452 781.872 756.844C744.777 780.535 699.377 746.11 656.601 735.713C629.265 729.068 603.508 723.821 580.347 707.862C549.884 686.872 513.753 667.729 505.593 631.662C496.076 589.603 505.238 541.388 535.792 510.938C566.322 480.513 613.627 477.67 656.601 481.17Z" fill="var(--color-info)"/>
<path fill-rule="evenodd" clip-rule="evenodd" d="M393.628 721.007C425.254 721.474 446.965 749.723 469.391 772.117C491.913 794.606 521.607 816.298 520.991 848.184C520.379 879.836 488.492 898.662 466.509 921.357C443.994 944.601 425.577 974.945 393.628 979.67C358.169 984.915 317.886 974.796 295.566 946.639C274.364 919.892 285.553 882.149 289.402 848.184C292.626 819.732 297.48 791.957 315.602 769.845C335.846 745.143 361.77 720.536 393.628 721.007Z" fill="var(--color-success)"/>
<path fill-rule="evenodd" clip-rule="evenodd" d="M421.221 3.84884C473.116 -8.8864 531.818 10.8811 568.404 49.8695C604.26 88.0814 611.289 145.513 602.684 197.231C595.286 241.694 559.77 272.282 526.369 302.506C495.391 330.538 462.827 357.902 421.221 361.432C376.095 365.26 332.632 349.472 296.604 321.998C254.113 289.597 197.175 249.989 205.893 197.231C214.631 144.356 292.139 143.673 331.986 107.887C367.317 76.1564 375.122 15.1616 421.221 3.84884Z" fill="var(--color-accent)"/>
<path fill-rule="evenodd" clip-rule="evenodd" d="M110.287 633.622C145.395 631.562 188.142 600.157 211.521 626.424C235.188 653.017 195.234 692.063 193.962 727.637C192.789 760.472 222.535 794.374 204.535 821.864C185.546 850.865 144.932 854.139 110.287 855.43C73.9672 856.782 30.6852 858.127 8.74696 829.156C-12.5149 801.077 11.4016 762.79 13.5177 727.637C15.3967 696.421 -2.15718 659.437 20.2751 637.643C42.6668 615.889 79.1186 635.45 110.287 633.622Z" fill="var(--color-primary)"/>
<g filter="url(#filter0_d_201_1117)">
<rect x="131" y="84" width="396" height="396" rx="50" fill="var(--color-base-100)" />
</g>
<path d="M199.307 279.622C195.449 280.804 191.547 277.917 191.748 273.887C192.568 257.47 195.904 242.171 201.755 227.989C208.645 211.41 218.249 196.989 230.566 184.728C242.883 172.466 257.354 162.968 273.978 156.232C290.687 149.411 308.862 146 328.5 146C348.138 146 366.269 149.411 382.893 156.232C399.603 162.968 414.117 172.466 426.434 184.728C438.751 196.989 448.311 211.41 455.116 227.989C461.041 242.171 464.419 257.47 465.249 273.887C465.453 277.917 461.551 280.804 457.693 279.622L453.926 278.467C451.47 277.714 449.779 275.48 449.623 272.916C448.699 257.721 445.362 243.608 439.612 230.579C433.324 216.331 424.711 203.94 413.772 193.406C402.919 182.871 390.215 174.711 375.658 168.926C361.188 163.14 345.468 160.248 328.5 160.248C311.532 160.248 295.769 163.14 281.213 168.926C266.742 174.711 254.081 182.871 243.228 193.406C232.375 203.94 223.805 216.331 217.517 230.579C211.764 243.615 208.391 257.735 207.397 272.94C207.23 275.492 205.541 277.71 203.096 278.46L199.307 279.622ZM195.941 330.83C201.367 330.83 205.588 328.758 208.602 324.613C211.703 320.469 214.416 313.043 216.742 302.335C217.948 296.982 218.938 292.923 219.714 290.16V290.16C220.655 286.805 217.904 283.366 214.504 284.127C205.564 286.129 198.084 289.435 192.065 294.046C184.485 299.831 180.695 306.696 180.695 314.64C180.695 319.648 182.03 323.62 184.7 326.556C187.457 329.406 191.203 330.83 195.941 330.83ZM195.553 344.56C186.854 344.56 179.92 341.926 174.752 336.659C169.584 331.392 167 324.311 167 315.417C167 300.997 173.417 289.728 186.251 281.611C197.374 274.502 212.637 270.214 232.041 268.747C236.378 268.419 239.417 272.81 237.884 276.88C236.809 279.734 235.834 282.477 234.959 285.109C233.323 290.203 231.557 296.679 229.662 304.537C226.217 318.871 221.867 329.147 216.613 335.364C211.359 341.495 204.339 344.56 195.553 344.56ZM328.5 418C309.034 418 290.989 414.632 274.365 407.897C257.828 401.248 243.357 391.836 230.954 379.661C219.87 368.782 211.018 356.26 204.398 342.094C203.127 339.376 204.198 336.168 206.78 334.64L209.656 332.939C212.649 331.169 216.507 332.311 218.174 335.363C225.646 349.037 234.384 360.737 244.391 370.465C255.847 381.431 268.637 389.721 282.763 395.333C296.975 400.946 312.221 403.752 328.5 403.752C344.865 403.752 360.111 400.946 374.237 395.333C388.363 389.721 401.11 381.431 412.48 370.465C422.486 360.737 431.225 349.037 438.696 335.363C440.364 332.311 444.222 331.169 447.215 332.939L450.09 334.64C452.673 336.168 453.744 339.376 452.473 342.094C445.853 356.26 437.001 368.782 425.917 379.661C413.6 391.836 399.172 401.248 382.635 407.897C366.097 414.632 348.052 418 328.5 418ZM258.699 260.892C256.198 263.542 252.016 264.192 249.268 261.8L248.63 261.245C246.354 259.263 245.874 255.872 247.76 253.516C255.508 243.837 264.721 238.998 275.399 238.998C285.998 238.998 295.2 243.835 303.005 253.509C304.906 255.866 304.433 259.272 302.149 261.261L301.567 261.768C298.806 264.171 294.602 263.501 292.092 260.836C287.327 255.776 281.763 253.246 275.399 253.246C269.077 253.246 263.511 255.794 258.699 260.892ZM243.156 235.917C241.242 238.538 237.717 239.602 234.849 238.082L234.012 237.638C231.102 236.096 229.952 232.474 231.767 229.727C239.109 218.614 250.305 210.338 265.354 204.899C268.35 203.816 271.594 205.466 272.675 208.462L272.983 209.315C274.154 212.56 272.342 216.099 269.111 217.308C263.259 219.497 258.163 222.151 253.822 225.269C249.701 228.273 246.145 231.823 243.156 235.917ZM364.908 260.836C362.398 263.501 358.194 264.171 355.433 261.768L354.851 261.261C352.567 259.272 352.094 255.866 353.995 253.509C361.8 243.835 371.002 238.998 381.601 238.998C392.279 238.998 401.492 243.837 409.24 253.516C411.126 255.872 410.646 259.263 408.37 261.245L407.732 261.8C404.984 264.192 400.802 263.542 398.301 260.892C393.489 255.794 387.923 253.246 381.601 253.246C375.237 253.246 369.673 255.776 364.908 260.836ZM461.447 344.56C452.661 344.56 445.641 341.495 440.387 335.364C435.133 329.147 430.783 318.871 427.338 304.537C425.443 296.679 423.634 290.203 421.912 285.109C421.081 282.48 420.14 279.741 419.089 276.891C417.583 272.811 420.622 268.419 424.959 268.747C444.363 270.214 459.626 274.502 470.749 281.611C483.583 289.728 490 300.997 490 315.417C490 324.311 487.416 331.392 482.248 336.659C477.08 341.926 470.146 344.56 461.447 344.56ZM461.059 330.83C465.797 330.83 469.5 329.406 472.17 326.556C474.927 323.62 476.305 319.648 476.305 314.64C476.305 306.696 472.472 299.831 464.806 294.046C458.855 289.436 451.419 286.13 442.495 284.128C439.096 283.366 436.345 286.805 437.286 290.16V290.16C438.148 292.923 439.138 296.982 440.258 302.335C442.584 313.043 445.254 320.469 448.268 324.613C451.369 328.758 455.633 330.83 461.059 330.83ZM422.205 238.053C419.316 239.585 415.765 238.491 413.843 235.845C410.892 231.781 407.337 228.256 403.178 225.269C398.837 222.151 393.741 219.497 387.889 217.308C384.658 216.099 382.846 212.56 384.017 209.315L384.325 208.462C385.406 205.466 388.65 203.816 391.646 204.899C406.695 210.338 417.891 218.614 425.233 229.727C427.048 232.474 425.898 236.096 422.988 237.638L422.205 238.053ZM328.5 365.931C337.13 365.931 345.376 364.891 353.237 362.811C358.032 361.542 358.45 355.445 353.87 353.541C345.284 349.971 336.828 348.187 328.5 348.187C320.172 348.187 311.716 349.971 303.13 353.541C298.55 355.445 298.968 361.542 303.763 362.811C311.624 364.891 319.87 365.931 328.5 365.931ZM328.5 374.998C317.303 374.998 306.321 373.185 295.554 369.558C284.873 365.931 275.227 361.096 266.613 355.051C258 348.921 251.109 342.185 245.941 334.846C240.859 327.506 238.318 320.123 238.318 312.697C238.318 308.121 239.352 304.926 241.419 303.112C243.486 301.213 246.243 300.263 249.688 300.263C251.841 300.263 254.555 300.522 257.828 301.04C261.187 301.558 265.02 302.249 269.326 303.112C276.992 304.58 285.907 306.005 296.071 307.387C306.235 308.682 317.044 309.33 328.5 309.33C340.042 309.33 350.895 308.682 361.058 307.387C371.222 306.005 380.094 304.58 387.674 303.112C391.98 302.249 395.77 301.558 399.043 301.04C402.402 300.522 405.159 300.263 407.312 300.263C410.757 300.263 413.514 301.213 415.581 303.112C417.648 304.926 418.682 308.121 418.682 312.697C418.682 320.123 416.098 327.506 410.93 334.846C405.848 342.185 399 348.921 390.387 355.051C381.773 361.096 372.083 365.931 361.317 369.558C350.636 373.185 339.697 374.998 328.5 374.998ZM328.5 331.349C336.597 331.349 345.253 331.046 354.469 330.442C363.685 329.751 372.902 328.715 382.118 327.333C389.65 326.134 396.78 324.703 403.507 323.042C406.14 322.392 407.958 320.009 407.958 317.296V312.697C407.958 311.402 407.441 310.582 406.408 310.236C405.374 309.804 404.297 309.718 403.178 309.977C395.856 311.704 387.76 313.215 378.888 314.51C370.102 315.719 361.317 316.669 352.531 317.36C343.832 318.051 335.821 318.396 328.5 318.396C321.265 318.396 313.254 318.051 304.469 317.36C295.683 316.669 286.898 315.719 278.112 314.51C269.326 313.215 261.23 311.704 253.822 309.977C252.703 309.718 251.626 309.804 250.592 310.236C249.559 310.582 249.042 311.402 249.042 312.697V317.296C249.042 320.009 250.86 322.392 253.493 323.042C260.22 324.703 267.35 326.134 274.882 327.333C284.098 328.715 293.315 329.751 302.531 330.442C311.833 331.046 320.49 331.349 328.5 331.349Z" fill="var(--color-success)"/>
<g filter="url(#filter1_d_201_1117)">
<rect x="63" y="537" width="396" height="396" rx="50" fill="var(--color-base-100)"/>
</g>
<path d="M258.746 858.562C249.829 858.562 242.419 856.792 236.518 853.25C230.616 849.709 227.665 845.257 227.665 839.894C227.665 834.731 229.095 829.983 231.953 825.65C234.812 821.317 238.593 817.837 243.295 815.21C247.998 812.582 253.148 811.268 258.744 811.268C264.34 811.268 269.504 812.582 274.235 815.21C278.967 817.837 282.762 821.317 285.621 825.65C288.479 829.983 289.908 834.752 289.908 839.956C289.908 845.262 286.97 849.689 281.092 853.238C275.214 856.788 267.765 858.562 258.746 858.562ZM142.036 733.413C137.064 733.413 132.802 731.741 129.252 728.396C125.702 725.051 123.927 721.018 123.927 716.296C123.927 711.574 125.692 707.554 129.221 704.235C132.75 700.916 137.015 699.256 142.016 699.256C147.016 699.256 151.291 700.919 154.841 704.245C158.391 707.57 160.166 711.581 160.166 716.277C160.166 720.971 158.387 725.001 154.829 728.366C151.271 731.731 147.007 733.413 142.036 733.413ZM142.045 723.733C144.444 723.733 146.45 723 148.064 721.534C149.677 720.067 150.484 718.316 150.484 716.279C150.484 714.242 149.666 712.509 148.031 711.08C146.396 709.651 144.393 708.937 142.023 708.937C139.734 708.937 137.759 709.66 136.099 711.107C134.439 712.554 133.609 714.283 133.609 716.294C133.609 718.303 134.436 720.046 136.09 721.521C137.744 722.996 139.729 723.733 142.045 723.733ZM202.215 812.375C194.376 812.375 187.206 810.462 180.705 806.636C174.205 802.81 169.042 797.648 165.215 791.15C161.388 784.652 159.475 777.485 159.475 769.649C159.475 761.717 161.388 754.525 165.215 748.072C169.042 741.618 174.205 736.479 180.704 732.653C187.204 728.827 194.373 726.914 202.211 726.914C210.144 726.914 217.347 728.821 223.821 732.634C230.294 736.448 235.435 741.596 239.243 748.079C243.051 754.562 244.955 761.76 244.955 769.672C244.955 777.49 243.042 784.648 239.215 791.148C235.388 797.647 230.239 802.81 223.769 806.636C217.298 810.462 210.113 812.375 202.215 812.375ZM202.193 801.312C208.109 801.312 213.442 799.883 218.191 797.025C222.94 794.167 226.743 790.352 229.602 785.581C232.46 780.809 233.89 775.507 233.89 769.674C233.89 763.754 232.46 758.42 229.602 753.672C226.743 748.924 222.938 745.121 218.185 742.264C213.433 739.406 208.109 737.977 202.213 737.977C196.405 737.977 191.103 739.406 186.308 742.264C181.513 745.121 177.687 748.926 174.828 753.678C171.969 758.429 170.54 763.752 170.54 769.646C170.54 775.453 171.975 780.745 174.844 785.521C177.714 790.298 181.532 794.124 186.301 796.999C191.069 799.874 196.367 801.312 202.193 801.312ZM202.215 784.994C197.973 784.994 194.354 783.496 191.357 780.5C188.36 777.503 186.862 773.885 186.862 769.644C186.862 765.389 188.36 761.767 191.357 758.778C194.354 755.789 197.973 754.294 202.215 754.294C206.471 754.294 210.094 755.789 213.084 758.778C216.073 761.767 217.568 765.389 217.568 769.644C217.568 773.885 216.073 777.503 213.084 780.5C210.094 783.496 206.471 784.994 202.215 784.994ZM220.611 741.157V719.723H231.677V741.157H220.611ZM242.189 755.816V741.434C242.189 739.867 242.708 738.53 243.747 737.424C244.786 736.317 246.1 735.764 247.689 735.764C249.278 735.764 250.603 736.317 251.664 737.424C252.724 738.53 253.254 739.867 253.254 741.434V755.816H242.189ZM239.007 763.974L230.985 748.763H287.004L279.396 763.974H239.007ZM139.408 646.293C134.436 646.293 130.174 644.62 126.624 641.276C123.074 637.931 121.299 633.897 121.299 629.176C121.299 624.454 123.064 620.433 126.593 617.114C130.122 613.796 134.387 612.136 139.388 612.136C144.388 612.136 148.663 613.799 152.213 617.124C155.763 620.449 157.538 624.46 157.538 629.156C157.538 633.851 155.759 637.88 152.201 641.245C148.643 644.61 144.379 646.293 139.408 646.293ZM139.417 636.613C141.815 636.613 143.822 635.88 145.436 634.413C147.049 632.947 147.856 631.195 147.856 629.158C147.856 627.121 147.038 625.389 145.403 623.96C143.768 622.531 141.765 621.816 139.395 621.816C137.105 621.816 135.131 622.54 133.471 623.987C131.811 625.434 130.981 627.163 130.981 629.173C130.981 631.183 131.808 632.925 133.462 634.4C135.116 635.875 137.101 636.613 139.417 636.613ZM258.787 753.05V738.668C258.787 737.101 259.306 735.764 260.345 734.658C261.384 733.551 262.698 732.998 264.287 732.998C265.876 732.998 267.201 733.551 268.262 734.658C269.322 735.764 269.852 737.101 269.852 738.668V753.05H258.787ZM315.359 812.375C307.519 812.375 300.35 810.462 293.849 806.636C287.349 802.81 282.186 797.648 278.359 791.15C274.532 784.652 272.619 777.485 272.619 769.649C272.619 761.717 274.532 754.525 278.359 748.072C282.186 741.618 287.349 736.479 293.848 732.653C300.348 728.827 307.517 726.914 315.355 726.914C323.288 726.914 330.491 728.821 336.965 732.634C343.438 736.448 348.579 741.596 352.387 748.079C356.195 754.562 358.099 761.76 358.099 769.672C358.099 777.49 356.186 784.648 352.359 791.148C348.532 797.647 343.383 802.81 336.913 806.636C330.442 810.462 323.257 812.375 315.359 812.375ZM315.365 801.312C321.263 801.312 326.586 799.883 331.335 797.025C336.083 794.167 339.887 790.352 342.746 785.581C345.604 780.809 347.034 775.507 347.034 769.674C347.034 763.754 345.604 758.42 342.746 753.672C339.887 748.924 336.082 745.121 331.329 742.264C326.577 739.406 321.253 737.977 315.357 737.977C309.549 737.977 304.247 739.406 299.452 742.264C294.657 745.121 290.831 748.926 287.972 753.678C285.113 758.429 283.684 763.752 283.684 769.646C283.684 775.453 285.113 780.753 287.972 785.547C290.831 790.341 294.658 794.167 299.456 797.025C304.253 799.883 309.556 801.312 315.365 801.312ZM315.359 784.994C311.117 784.994 307.498 783.496 304.501 780.5C301.504 777.503 300.006 773.885 300.006 769.644C300.006 765.389 301.504 761.767 304.501 758.778C307.498 755.789 311.117 754.294 315.359 754.294C319.615 754.294 323.238 755.789 326.228 758.778C329.217 761.767 330.712 765.389 330.712 769.644C330.712 773.885 329.217 777.503 326.228 780.5C323.238 783.496 319.615 784.994 315.359 784.994ZM274.002 750.284V716.404H285.067V750.284H274.002ZM245.508 731.615C228.357 731.615 213.419 725.623 200.693 713.638C198.941 714.284 197.143 714.768 195.299 715.09C193.455 715.413 191.657 715.574 189.905 715.574C180.96 715.574 173.33 712.417 167.013 706.102C160.697 699.787 157.538 692.172 157.538 683.258C157.538 678.897 158.391 674.688 160.097 670.631C161.803 666.575 164.224 663.008 167.359 659.931C166.898 658.122 166.529 656.272 166.252 654.383C165.976 652.493 165.837 650.672 165.837 648.92C165.837 641.633 167.612 635.017 171.163 629.073C174.713 623.129 179.484 618.382 185.476 614.833C191.469 611.283 198.109 609.509 205.396 609.509C207.363 609.509 209.307 609.647 211.228 609.924C213.15 610.2 215.032 610.661 216.877 611.306C219.827 603.839 224.645 597.754 231.331 593.053C238.016 588.351 245.508 586 253.807 586C260.976 586 267.632 587.821 273.776 591.462C279.92 595.104 284.745 599.967 288.249 606.052C291.199 604.853 294.196 603.954 297.239 603.355C300.282 602.756 303.325 602.456 306.368 602.456C315.313 602.456 323.474 604.638 330.852 609.003C338.229 613.368 344.108 619.227 348.487 626.581C352.866 633.934 355.056 642.118 355.056 651.133C355.056 653.806 354.872 656.203 354.503 658.324C362.249 664.777 366.121 673.074 366.121 683.215C366.121 692.158 362.991 699.787 356.73 706.102C350.469 712.417 342.811 715.574 333.755 715.574C333.198 715.574 332.62 715.574 332.023 715.574C331.426 715.574 330.85 715.528 330.297 715.436C322.489 724.194 312.66 728.573 300.807 728.573C297.045 728.573 293.32 727.997 289.632 726.845C285.943 725.692 282.485 724.102 279.258 722.074C268.93 728.435 257.68 731.615 245.508 731.615ZM245.508 717.787C254.914 717.787 263.559 715.436 271.443 710.734C279.327 706.033 285.621 699.787 290.323 691.996C293.841 686.17 296.043 679.918 296.929 673.241C297.432 669.455 300.474 666.344 304.293 666.344V666.344C308.113 666.344 311.25 669.449 310.857 673.248C310.19 679.691 308.579 685.894 306.022 691.858C302.564 699.925 297.7 706.954 291.43 712.947C292.998 713.592 294.546 714.053 296.077 714.33C297.607 714.606 299.193 714.745 300.836 714.745C305.907 714.745 310.564 713.408 314.806 710.734C319.047 708.061 322.367 704.419 324.764 699.81C328.637 701.1 331.634 701.746 333.755 701.746C338.919 701.746 343.299 699.948 346.895 696.352C350.492 692.757 352.29 688.378 352.29 683.215C352.29 679.159 351.091 675.425 348.693 672.014C346.296 668.603 343.069 666.16 339.011 664.685C339.749 662.104 340.302 659.776 340.671 657.701C341.04 655.627 341.224 653.438 341.224 651.133C341.224 644.659 339.65 638.807 336.501 633.576C333.352 628.345 329.161 624.155 323.929 621.007C318.697 617.859 312.843 616.285 306.368 616.285C301.481 616.285 296.986 616.953 292.882 618.29C288.779 619.627 285.252 621.401 282.301 623.614C280.826 617.345 277.506 611.813 272.342 607.02C267.178 602.226 261 599.829 253.807 599.829C245.877 599.829 238.984 602.617 233.129 608.195C227.274 613.772 223.839 620.018 222.824 626.933C220.703 625.826 218.214 624.951 215.355 624.305C212.497 623.66 209.177 623.337 205.396 623.337C198.307 623.337 192.247 625.826 187.216 630.805C182.185 635.783 179.669 641.822 179.669 648.92C179.669 651.963 180.107 654.751 180.983 657.287C181.859 659.822 183.265 662.426 185.202 665.1C180.96 666.39 177.594 668.695 175.105 672.014C172.615 675.333 171.37 679.067 171.37 683.215C171.37 688.378 173.168 692.757 176.764 696.352C180.361 699.948 184.741 701.746 189.905 701.746H191.011C189.812 699.902 188.706 698.012 187.692 696.076V696.076C186.056 692.954 187.729 689.247 191.02 687.987L191.56 687.78C195.153 686.405 199.135 688.234 200.968 691.616C204.744 698.584 209.977 704.357 216.669 708.937C225.291 714.837 234.904 717.787 245.508 717.787ZM394.239 743.093C390.893 743.093 387.93 742.171 385.348 740.328C380.368 740.328 376.495 738.876 373.729 735.971C370.963 733.067 369.579 729.554 369.579 725.431C369.579 722.363 370.432 719.585 372.138 717.095C373.844 714.606 376.08 712.809 378.847 711.702C381.323 705.433 385.979 702.299 392.813 702.299C396.873 702.299 400.355 703.754 403.26 706.663C406.164 709.573 407.617 713.051 407.617 717.095C407.617 718.478 407.432 719.769 407.064 720.967C408.355 723.272 409 725.669 409 728.158C409 732.399 407.573 735.948 404.72 738.806C401.866 741.664 398.373 743.093 394.239 743.093ZM394.2 733.413C395.641 733.413 396.854 732.907 397.839 731.895C398.825 730.883 399.318 729.638 399.318 728.158C399.318 726.489 398.303 724.599 396.275 722.489C397.381 719.907 397.935 718.11 397.935 717.095C397.935 715.655 397.461 714.442 396.513 713.457C395.564 712.471 394.333 711.979 392.817 711.979C390.973 711.979 389.566 712.739 388.598 714.261C387.63 715.782 387.146 717.602 387.146 719.723C384.84 719.723 382.95 720.23 381.475 721.244C379.999 722.258 379.262 723.641 379.262 725.393C379.262 726.872 379.768 728.118 380.78 729.13C381.792 730.142 383.038 730.647 384.518 730.647C386.085 730.647 387.422 730.417 388.529 729.956C390.075 732.261 391.965 733.413 394.2 733.413ZM389.763 675.333C384.791 675.333 380.53 673.661 376.979 670.316C373.429 666.971 371.654 662.938 371.654 658.216C371.654 653.494 373.419 649.473 376.948 646.155C380.477 642.836 384.743 641.176 389.744 641.176C394.743 641.176 399.018 642.839 402.568 646.164C406.118 649.49 407.893 653.5 407.893 658.196C407.893 662.891 406.114 666.921 402.556 670.286C398.998 673.65 394.734 675.333 389.763 675.333ZM389.772 665.653C392.171 665.653 394.177 664.92 395.791 663.453C397.404 661.987 398.211 660.235 398.211 658.198C398.211 656.162 397.394 654.429 395.758 653C394.123 651.571 392.12 650.856 389.75 650.856C387.461 650.856 385.486 651.58 383.826 653.027C382.166 654.474 381.336 656.203 381.336 658.214C381.336 660.223 382.163 661.965 383.818 663.44C385.472 664.915 387.456 665.653 389.772 665.653ZM374.974 630.666C369.257 630.666 365.061 628.131 362.387 623.061C359.528 622.231 357.154 620.549 355.264 618.013C353.373 615.478 352.428 612.643 352.428 609.509C352.428 605.549 353.803 602.208 356.552 599.486C359.301 596.764 362.675 595.403 366.675 595.403C372.484 595.403 376.68 597.939 379.262 603.009C382.212 603.931 384.587 605.6 386.385 608.016C388.183 610.431 389.082 613.234 389.082 616.423C389.082 620.422 387.721 623.795 384.999 626.544C382.276 629.292 378.935 630.666 374.974 630.666ZM374.974 622.369C376.609 622.369 377.986 621.796 379.105 620.65C380.224 619.505 380.783 618.095 380.783 616.421C380.783 614.394 379.976 612.758 378.363 611.514C376.749 610.269 374.974 609.924 373.037 610.477C373.13 608.633 372.55 607.043 371.298 605.706C370.046 604.369 368.525 603.701 366.735 603.701C365.035 603.701 363.609 604.26 362.456 605.378C361.303 606.497 360.727 607.874 360.727 609.509C360.727 611.497 361.511 613.146 363.079 614.457C364.646 615.768 366.352 616.239 368.196 615.87C368.381 617.621 369.118 619.143 370.409 620.433C371.7 621.724 373.222 622.369 374.974 622.369ZM119.081 784.725C113.235 765.669 129.638 748.763 149.571 748.763H173.03L166.529 763.974H148.274C139.005 763.974 131.887 772.343 134.663 781.187C137.325 789.667 140.87 797.735 145.297 805.391C152.628 818.067 161.964 829.084 173.307 838.442C184.649 847.799 197.569 855.082 212.068 860.291C226.567 865.5 242.14 868.104 258.787 868.104C275.569 868.104 291.176 865.5 305.607 860.291C320.039 855.082 332.925 847.799 344.267 838.442C355.609 829.084 364.946 818.067 372.277 805.391C376.704 797.735 380.249 789.667 382.911 781.187C385.686 772.343 378.569 763.974 369.3 763.974H351.045L344.544 748.763H368.003C387.936 748.763 404.339 765.669 398.493 784.725C396.724 790.491 394.578 796.113 392.056 801.588C384.541 817.906 374.259 832.196 361.211 844.457C348.163 856.718 332.948 866.26 315.566 873.082C298.184 879.904 279.258 883.316 258.787 883.316C238.316 883.316 219.389 879.904 202.007 873.082C184.626 866.26 169.411 856.718 156.363 844.457C143.315 832.196 133.033 817.906 125.518 801.588C122.996 796.113 120.85 790.491 119.081 784.725Z" fill="var(--color-info)"/>
<g filter="url(#filter2_d_201_1117)">
<rect x="372" y="310" width="396" height="396" rx="50" fill="var(--color-base-100)"/>
</g>
<path d="M416.912 537.912C416.398 534.512 418.637 531.27 422.044 530.576C425.562 529.861 428.993 532.132 429.709 535.649L430.021 537.139C443.546 600.047 499.613 647.224 566.725 647.224C633.754 647.223 689.765 600.163 703.378 537.37L703.692 535.884L703.767 535.558C704.628 532.228 707.96 530.124 711.367 530.823C714.773 531.523 717.005 534.77 716.485 538.169L716.426 538.498L716.083 540.123C701.197 608.791 639.98 660.223 566.725 660.224C492.803 660.224 431.138 607.849 416.971 538.242L416.912 537.912ZM704.913 442.252C706.453 445.494 705.073 449.372 701.83 450.912C698.588 452.452 694.711 451.072 693.17 447.829L704.913 442.252ZM431.583 451.27C428.438 449.786 427.036 446.104 428.343 442.924L428.478 442.617L429.056 441.407C453.725 390.29 506.122 355 566.783 355C627.776 355 680.416 390.679 704.913 442.252L699.041 445.04L693.17 447.829C670.749 400.628 622.58 368 566.783 368C511.29 368 463.342 400.272 440.764 447.056L440.236 448.164L440.085 448.463C438.463 451.495 434.729 452.753 431.583 451.27Z" fill="var(--color-primary)"/>
<path d="M416.912 537.912L415.924 538.062L415.926 538.074L415.928 538.087L416.912 537.912ZM422.044 530.576L421.845 529.596L421.845 529.596L422.044 530.576ZM429.709 535.649L428.729 535.849L428.731 535.854L429.709 535.649ZM430.021 537.139L429.042 537.343L429.043 537.349L430.021 537.139ZM566.725 647.224L566.725 648.224L566.725 648.224L566.725 647.224ZM703.378 537.37L704.356 537.582L704.357 537.576L703.378 537.37ZM703.692 535.884L702.717 535.659L702.715 535.668L702.713 535.677L703.692 535.884ZM703.767 535.558L702.799 535.307L702.796 535.32L702.793 535.333L703.767 535.558ZM711.367 530.823L711.568 529.844L711.568 529.844L711.367 530.823ZM716.485 538.169L717.469 538.344L717.471 538.332L717.473 538.32L716.485 538.169ZM716.426 538.498L717.405 538.704L717.408 538.689L717.411 538.673L716.426 538.498ZM716.083 540.123L717.061 540.335L717.062 540.329L716.083 540.123ZM566.725 660.224L566.725 661.224L566.725 661.224L566.725 660.224ZM416.971 538.242L415.986 538.417L415.989 538.429L415.991 538.442L416.971 538.242ZM704.913 442.252L705.817 441.823L705.817 441.823L704.913 442.252ZM701.83 450.912L702.259 451.815L702.26 451.815L701.83 450.912ZM693.17 447.829L692.267 448.258L692.267 448.258L693.17 447.829ZM431.583 451.27L431.157 452.174L431.157 452.174L431.583 451.27ZM428.343 442.924L427.428 442.521L427.423 442.532L427.418 442.544L428.343 442.924ZM428.478 442.617L427.576 442.186L427.569 442.2L427.562 442.215L428.478 442.617ZM429.056 441.407L428.155 440.973L428.154 440.976L429.056 441.407ZM566.783 355L566.783 354L566.783 354L566.783 355ZM699.041 445.04L698.612 444.137L698.612 444.137L699.041 445.04ZM566.783 368L566.783 367L566.783 367L566.783 368ZM440.764 447.056L439.863 446.621L439.861 446.625L440.764 447.056ZM440.236 448.164L441.129 448.614L441.134 448.604L441.138 448.594L440.236 448.164ZM440.085 448.463L440.967 448.935L440.973 448.924L440.979 448.912L440.085 448.463ZM416.912 537.912L417.901 537.763C417.466 534.887 419.361 532.143 422.244 531.556L422.044 530.576L421.845 529.596C417.913 530.397 415.33 534.138 415.924 538.062L416.912 537.912ZM422.044 530.576L422.244 531.556C425.22 530.951 428.124 532.872 428.729 535.849L429.709 535.649L430.689 535.45C429.863 531.391 425.904 528.771 421.845 529.596L422.044 530.576ZM429.709 535.649L428.731 535.854L429.042 537.343L430.021 537.139L431 536.934L430.688 535.445L429.709 535.649ZM430.021 537.139L429.043 537.349C442.666 600.71 499.134 648.224 566.725 648.224V647.224V646.224C500.093 646.224 444.427 599.384 430.999 536.928L430.021 537.139ZM566.725 647.224L566.725 648.224C634.233 648.223 690.644 600.826 704.356 537.582L703.378 537.37L702.401 537.158C688.886 599.499 633.275 646.223 566.725 646.224L566.725 647.224ZM703.378 537.37L704.357 537.576L704.67 536.09L703.692 535.884L702.713 535.677L702.4 537.164L703.378 537.37ZM703.692 535.884L704.666 536.108L704.741 535.782L703.767 535.558L702.793 535.333L702.717 535.659L703.692 535.884ZM703.767 535.558L704.735 535.808C705.464 532.992 708.283 531.211 711.165 531.803L711.367 530.823L711.568 529.844C707.637 529.037 703.793 531.465 702.799 535.307L703.767 535.558ZM711.367 530.823L711.165 531.803C714.047 532.395 715.936 535.142 715.496 538.018L716.485 538.169L717.473 538.32C718.074 534.397 715.499 530.651 711.568 529.844L711.367 530.823ZM716.485 538.169L715.5 537.994L715.442 538.323L716.426 538.498L717.411 538.673L717.469 538.344L716.485 538.169ZM716.426 538.498L715.448 538.292L715.105 539.917L716.083 540.123L717.062 540.329L717.405 538.704L716.426 538.498ZM716.083 540.123L715.106 539.911C700.318 608.127 639.501 659.223 566.725 659.224L566.725 660.224L566.725 661.224C640.459 661.223 702.077 609.454 717.061 540.335L716.083 540.123ZM566.725 660.224V659.224C493.286 659.224 432.025 607.192 417.951 538.043L416.971 538.242L415.991 538.442C430.251 608.507 492.319 661.224 566.725 661.224V660.224ZM416.971 538.242L417.956 538.067L417.897 537.737L416.912 537.912L415.928 538.087L415.986 538.417L416.971 538.242ZM704.913 442.252L704.01 442.681C705.313 445.425 704.145 448.706 701.401 450.009L701.83 450.912L702.26 451.815C706.001 450.038 707.594 445.564 705.817 441.823L704.913 442.252ZM701.83 450.912L701.401 450.009C698.658 451.312 695.377 450.144 694.074 447.4L693.17 447.829L692.267 448.258C694.044 451.999 698.518 453.592 702.259 451.815L701.83 450.912ZM693.17 447.829L693.599 448.732L705.342 443.155L704.913 442.252L704.484 441.349L692.741 446.926L693.17 447.829ZM431.583 451.27L432.01 450.365C429.349 449.11 428.162 445.994 429.268 443.304L428.343 442.924L427.418 442.544C425.909 446.214 427.527 450.462 431.157 452.174L431.583 451.27ZM428.343 442.924L429.259 443.326L429.393 443.02L428.478 442.617L427.562 442.215L427.428 442.521L428.343 442.924ZM428.478 442.617L429.38 443.048L429.958 441.838L429.056 441.407L428.154 440.976L427.576 442.186L428.478 442.617ZM429.056 441.407L429.957 441.842C454.465 391.058 506.52 356 566.783 356L566.783 355L566.783 354C505.725 354 452.985 389.522 428.155 440.973L429.056 441.407ZM566.783 355L566.783 356C627.377 356 679.673 391.445 704.01 442.681L704.913 442.252L705.817 441.823C681.16 389.914 628.176 354 566.783 354L566.783 355ZM704.913 442.252L704.485 441.349L698.612 444.137L699.041 445.04L699.47 445.943L705.342 443.155L704.913 442.252ZM699.041 445.04L698.612 444.137L692.741 446.926L693.17 447.829L693.599 448.732L699.47 445.943L699.041 445.04ZM693.17 447.829L694.074 447.4C671.493 399.862 622.98 367 566.783 367L566.783 368L566.783 369C622.181 369 670.006 401.393 692.267 448.258L693.17 447.829ZM566.783 368L566.783 367C510.893 367 462.602 399.504 439.863 446.621L440.764 447.056L441.665 447.49C464.082 401.04 511.687 369 566.783 369L566.783 368ZM440.764 447.056L439.861 446.625L439.333 447.734L440.236 448.164L441.138 448.594L441.667 447.486L440.764 447.056ZM440.236 448.164L439.342 447.715L439.192 448.013L440.085 448.463L440.979 448.912L441.129 448.614L440.236 448.164ZM440.085 448.463L439.204 447.991C437.831 450.556 434.671 451.62 432.01 450.365L431.583 451.27L431.157 452.174C434.786 453.886 439.094 452.434 440.967 448.935L440.085 448.463Z" fill="var(--color-primary)"/>
<path fill-rule="evenodd" clip-rule="evenodd" d="M538.6 615.214C547.815 618.256 557.162 619.776 566.643 619.776C576.123 619.776 585.471 618.256 594.686 615.214C603.901 612.173 612.262 608.105 619.771 603.011C627.279 597.917 633.271 592.233 637.746 585.961C642.22 579.688 644.458 573.358 644.458 566.971C644.458 563.854 643.775 561.63 642.41 560.3C641.045 558.969 639.149 558.304 636.722 558.304C635.053 558.304 633.157 558.475 631.033 558.817C628.91 559.159 626.483 559.634 623.752 560.243C616.396 561.915 607.655 563.36 597.53 564.576C587.405 565.793 577.109 566.401 566.643 566.401C556.176 566.401 545.881 565.793 535.756 564.576C525.63 563.36 516.928 561.915 509.647 560.243C506.916 559.634 504.489 559.159 502.366 558.817C500.242 558.475 498.308 558.304 496.564 558.304C494.213 558.304 492.354 558.969 490.989 560.3C489.624 561.63 488.941 563.854 488.941 566.971C488.941 573.358 491.179 579.688 495.654 585.961C500.128 592.233 506.101 597.917 513.571 603.011C521.042 608.105 529.385 612.173 538.6 615.214ZM589.747 581.187C581.617 581.765 573.981 582.055 566.839 582.055C559.772 582.055 552.155 581.765 543.987 581.187C535.819 580.609 527.67 579.684 519.54 578.412C511.41 577.139 503.811 575.54 496.745 573.612V567.252C496.745 566.172 497.106 565.498 497.828 565.228C498.55 564.958 499.404 564.939 500.392 565.17C506.547 566.635 513.48 567.946 521.192 569.102C528.905 570.258 536.75 571.164 544.728 571.82C552.706 572.475 560.076 572.803 566.839 572.803C573.677 572.803 581.066 572.475 589.007 571.82C596.947 571.164 604.792 570.258 612.542 569.102C620.292 567.946 627.207 566.635 633.285 565.17C634.273 564.939 635.128 564.958 635.85 565.228C636.572 565.498 636.933 566.172 636.933 567.252V573.612C629.866 575.54 622.268 577.139 614.138 578.412C606.008 579.684 597.878 580.609 589.747 581.187Z" fill="var(--color-primary)"/>
<path d="M424.804 497.909H436.336V504.762H416V468.32H424.804V497.909Z" fill="var(--color-primary)"/>
<path fill-rule="evenodd" clip-rule="evenodd" d="M468.215 492.283C468.319 491.384 468.371 490.52 468.371 489.69C468.371 486.787 467.753 484.246 466.517 482.068C465.281 479.89 463.566 478.213 461.372 477.038C459.178 475.862 456.671 475.275 453.851 475.275C450.961 475.275 448.401 475.88 446.173 477.09C443.944 478.3 442.212 480.028 440.976 482.275C439.739 484.522 439.121 487.15 439.121 490.157C439.121 493.165 439.748 495.792 441.002 498.039C442.255 500.286 443.996 502.015 446.225 503.225C448.453 504.435 450.995 505.04 453.851 505.04C456.219 505.04 458.36 504.608 460.275 503.743C462.19 502.879 463.784 501.686 465.054 500.165C466.325 498.644 467.205 496.933 467.692 495.032H458.186C457.315 496.898 455.766 497.832 453.537 497.832C452.04 497.832 450.778 497.356 449.751 496.406C448.723 495.455 448.14 494.081 448.001 492.283H468.215ZM457.664 483.727C458.708 484.626 459.231 485.836 459.231 487.357H448.053C448.297 485.767 448.932 484.54 449.959 483.675C450.987 482.811 452.249 482.379 453.746 482.379C455.313 482.379 456.619 482.828 457.664 483.727Z" fill="var(--color-primary)"/>
<path fill-rule="evenodd" clip-rule="evenodd" d="M472.832 482.275C471.715 484.522 471.157 487.132 471.157 490.105C471.157 493.078 471.715 495.697 472.832 497.961C473.949 500.226 475.47 501.972 477.395 503.199C479.319 504.426 481.45 505.04 483.787 505.04C485.815 505.04 487.593 504.625 489.123 503.795C490.652 502.965 491.847 501.877 492.706 500.528V504.625H501.521V475.69H492.706V479.786C491.881 478.438 490.704 477.349 489.174 476.519C487.645 475.69 485.866 475.275 483.839 475.275C481.467 475.275 479.319 475.88 477.395 477.09C475.47 478.3 473.949 480.028 472.832 482.275ZM490.876 484.92C492.096 486.199 492.706 487.945 492.706 490.157C492.706 492.37 492.096 494.116 490.876 495.395C489.655 496.674 488.169 497.314 486.416 497.314C484.664 497.314 483.177 496.665 481.957 495.369C480.737 494.073 480.127 492.318 480.127 490.106C480.127 487.893 480.737 486.156 481.957 484.894C483.177 483.632 484.664 483.001 486.416 483.001C488.169 483.001 489.655 483.641 490.876 484.92Z" fill="var(--color-primary)"/>
<path fill-rule="evenodd" clip-rule="evenodd" d="M508.489 482.183C507.372 484.439 506.814 487.06 506.814 490.045C506.814 493.03 507.372 495.659 508.489 497.933C509.606 500.207 511.127 501.959 513.052 503.192C514.976 504.424 517.124 505.04 519.496 505.04C521.523 505.04 523.302 504.623 524.831 503.79C526.361 502.957 527.538 501.847 528.363 500.458V504.623H537.178V466.095H528.363V479.58C527.469 478.226 526.24 477.15 524.677 476.352C523.113 475.554 521.386 475.154 519.496 475.154C517.124 475.154 514.976 475.762 513.052 476.977C511.127 478.192 509.606 479.927 508.489 482.183ZM526.532 484.838C527.753 486.123 528.363 487.876 528.363 490.097C528.363 492.319 527.753 494.071 526.532 495.356C525.312 496.64 523.826 497.282 522.073 497.282C520.32 497.282 518.834 496.631 517.614 495.33C516.394 494.028 515.784 492.266 515.784 490.045C515.784 487.824 516.394 486.079 517.614 484.812C518.834 483.546 520.32 482.912 522.073 482.912C523.826 482.912 525.312 483.554 526.532 484.838Z" fill="var(--color-primary)"/>
<path d="M579.521 486.958L574.673 504.483H568.605L565.78 493.114L562.858 504.483H556.822L551.942 486.958H557.432L559.969 499.49L562.986 486.958H568.798L571.848 499.427L574.352 486.958H579.521Z" fill="var(--color-primary)" fill-opacity="0.6"/>
<path fill-rule="evenodd" clip-rule="evenodd" d="M582.092 484.233C582.691 484.798 583.465 485.08 584.411 485.08C585.337 485.08 586.1 484.798 586.7 484.233C587.299 483.669 587.599 482.971 587.599 482.141C587.599 481.289 587.299 480.58 586.7 480.016C586.1 479.451 585.337 479.169 584.411 479.169C583.465 479.169 582.691 479.451 582.092 480.016C581.492 480.58 581.192 481.289 581.192 482.141C581.192 482.971 581.492 483.669 582.092 484.233ZM587.094 504.762V486.933H581.697V504.762H587.094Z" fill="var(--color-primary)" fill-opacity="0.6"/>
<path d="M600.971 499.892V504.483H598.217C596.254 504.483 594.724 504.003 593.627 503.043C592.529 502.082 591.98 500.515 591.98 498.34V491.31H589.828V486.814H591.98V482.507H597.394V486.814H600.939V491.31H597.394V498.404C597.394 498.931 597.52 499.311 597.773 499.544C598.027 499.776 598.449 499.892 599.04 499.892H600.971Z" fill="var(--color-primary)" fill-opacity="0.6"/>
<path d="M615.16 486.74C617.183 486.74 618.807 487.417 620.029 488.769C621.252 490.122 621.863 491.98 621.863 494.345V504.762H616.488V495.08C616.488 493.887 616.182 492.96 615.571 492.3C614.959 491.64 614.137 491.309 613.104 491.309C612.071 491.309 611.249 491.64 610.638 492.3C610.026 492.96 609.721 493.887 609.721 495.08V504.762H604.313V481.116H609.721V489.328C610.269 488.54 611.017 487.912 611.966 487.443C612.915 486.974 613.979 486.74 615.16 486.74Z" fill="var(--color-primary)" fill-opacity="0.6"/>
<path d="M661.142 468.32V493.076C661.142 496.909 660.057 499.861 657.887 501.932C655.716 504.004 652.791 505.04 649.11 505.04C645.256 505.04 642.165 503.952 639.839 501.777C637.512 499.602 636.349 496.512 636.349 492.507H645.204C645.204 494.026 645.516 495.174 646.141 495.951C646.766 496.727 647.669 497.116 648.85 497.116C649.926 497.116 650.759 496.771 651.35 496.08C651.94 495.39 652.235 494.388 652.235 493.076V468.32H661.142Z" fill="var(--color-primary)"/>
<path fill-rule="evenodd" clip-rule="evenodd" d="M674.28 503.225C676.545 504.435 679.095 505.04 681.931 505.04C684.766 505.04 687.334 504.435 689.634 503.225C691.933 502.015 693.749 500.278 695.08 498.013C696.412 495.749 697.077 493.13 697.077 490.157C697.077 487.184 696.42 484.565 695.106 482.301C693.792 480.037 691.994 478.3 689.711 477.09C687.429 475.88 684.87 475.275 682.034 475.275C679.199 475.275 676.64 475.88 674.357 477.09C672.075 478.3 670.277 480.037 668.963 482.301C667.649 484.565 666.992 487.184 666.992 490.157C666.992 493.165 667.64 495.792 668.937 498.039C670.234 500.286 672.015 502.015 674.28 503.225ZM686.262 495.498C685.069 496.743 683.625 497.365 681.931 497.365C680.236 497.365 678.827 496.743 677.703 495.498C676.579 494.254 676.017 492.474 676.017 490.157C676.017 487.807 676.588 486.018 677.729 484.79C678.87 483.563 680.305 482.949 682.035 482.949C683.729 482.949 685.155 483.572 686.314 484.816C687.472 486.061 688.052 487.841 688.052 490.157C688.052 492.474 687.455 494.254 686.262 495.498Z" fill="var(--color-primary)"/>
<path d="M731.62 475.831L713.445 518.392H703.89L710.537 503.705L698.749 475.831H708.667L715.366 493.88L722.013 475.831H731.62Z" fill="var(--color-primary)"/>
<defs>
<filter id="filter0_d_201_1117" x="79" y="36" width="500" height="500" filterUnits="userSpaceOnUse" color-interpolation-filters="sRGB">
<feFlood flood-opacity="0" result="BackgroundImageFix"/>
<feColorMatrix in="SourceAlpha" type="matrix" values="0 0 0 0 0 0 0 0 0 0 0 0 0 0 0 0 0 0 127 0" result="hardAlpha"/>
<feMorphology radius="2" operator="dilate" in="SourceAlpha" result="effect1_dropShadow_201_1117"/>
<feOffset dy="4"/>
<feGaussianBlur stdDeviation="25"/>
<feComposite in2="hardAlpha" operator="out"/>
<feColorMatrix type="matrix" values="0 0 0 0 0 0 0 0 0 0 0 0 0 0 0 0 0 0 0.25 0"/>
<feBlend mode="normal" in2="BackgroundImageFix" result="effect1_dropShadow_201_1117"/>
<feBlend mode="normal" in="SourceGraphic" in2="effect1_dropShadow_201_1117" result="shape"/>
</filter>
<filter id="filter1_d_201_1117" x="11" y="489" width="500" height="500" filterUnits="userSpaceOnUse" color-interpolation-filters="sRGB">
<feFlood flood-opacity="0" result="BackgroundImageFix"/>
<feColorMatrix in="SourceAlpha" type="matrix" values="0 0 0 0 0 0 0 0 0 0 0 0 0 0 0 0 0 0 127 0" result="hardAlpha"/>
<feMorphology radius="2" operator="dilate" in="SourceAlpha" result="effect1_dropShadow_201_1117"/>
<feOffset dy="4"/>
<feGaussianBlur stdDeviation="25"/>
<feComposite in2="hardAlpha" operator="out"/>
<feColorMatrix type="matrix" values="0 0 0 0 0 0 0 0 0 0 0 0 0 0 0 0 0 0 0.25 0"/>
<feBlend mode="normal" in2="BackgroundImageFix" result="effect1_dropShadow_201_1117"/>
<feBlend mode="normal" in="SourceGraphic" in2="effect1_dropShadow_201_1117" result="shape"/>
</filter>
<filter id="filter2_d_201_1117" x="320" y="262" width="500" height="500" filterUnits="userSpaceOnUse" color-interpolation-filters="sRGB">
<feFlood flood-opacity="0" result="BackgroundImageFix"/>
<feColorMatrix in="SourceAlpha" type="matrix" values="0 0 0 0 0 0 0 0 0 0 0 0 0 0 0 0 0 0 127 0" result="hardAlpha"/>
<feMorphology radius="2" operator="dilate" in="SourceAlpha" result="effect1_dropShadow_201_1117"/>
<feOffset dy="4"/>
<feGaussianBlur stdDeviation="25"/>
<feComposite in2="hardAlpha" operator="out"/>
<feColorMatrix type="matrix" values="0 0 0 0 0 0 0 0 0 0 0 0 0 0 0 0 0 0 0.25 0"/>
<feBlend mode="normal" in2="BackgroundImageFix" result="effect1_dropShadow_201_1117"/>
<feBlend mode="normal" in="SourceGraphic" in2="effect1_dropShadow_201_1117" result="shape"/>
</filter>
</defs>
</svg>
