<svg width="1" height="1" viewBox="0 0 1 1" fill="none" xmlns="http://www.w3.org/2000/svg">
<g id="favicon" clip-path="url(#clip0_197_64)">
<path id="mouth" fill-rule="evenodd" clip-rule="evenodd" d="M0.198164 0.382954C0.215003 0.388494 0.232084 0.391264 0.249408 0.391264C0.266732 0.391264 0.283813 0.388494 0.300652 0.382954C0.31749 0.377415 0.33277 0.370006 0.34649 0.360727C0.360211 0.351449 0.371159 0.341097 0.379336 0.329672C0.387513 0.318246 0.391602 0.306717 0.391602 0.295084C0.391602 0.289406 0.390354 0.285356 0.38786 0.282932C0.385365 0.280509 0.3819 0.279297 0.377465 0.279297C0.374416 0.279297 0.370952 0.279608 0.367071 0.280232C0.363191 0.280855 0.358756 0.28172 0.353766 0.282828C0.340323 0.285875 0.324351 0.288506 0.305849 0.290722C0.287347 0.292938 0.268533 0.294046 0.249408 0.294046C0.230282 0.294046 0.211469 0.292938 0.192967 0.290722C0.174465 0.288506 0.158562 0.285875 0.145257 0.282828C0.140268 0.28172 0.135833 0.280855 0.131952 0.280232C0.128072 0.279608 0.124538 0.279297 0.12135 0.279297C0.117054 0.279297 0.113658 0.280509 0.111164 0.282932C0.108669 0.285356 0.107422 0.289406 0.107422 0.295084C0.107422 0.306717 0.11151 0.318246 0.119687 0.329672C0.127864 0.341097 0.138778 0.351449 0.152429 0.360727C0.16608 0.370006 0.181325 0.377415 0.198164 0.382954ZM0.291628 0.320977C0.276772 0.32203 0.262818 0.322557 0.249766 0.322557C0.236854 0.322557 0.222935 0.32203 0.208009 0.320977C0.193083 0.319924 0.178192 0.318239 0.163335 0.315922C0.148479 0.313605 0.134595 0.310691 0.121682 0.30718V0.295595C0.121682 0.293629 0.122341 0.2924 0.12366 0.291908C0.124979 0.291417 0.126541 0.291382 0.128346 0.291803C0.139593 0.294471 0.152263 0.296859 0.166355 0.298965C0.180448 0.301071 0.194784 0.302721 0.209363 0.303915C0.223941 0.305109 0.237409 0.305705 0.249766 0.305705C0.262263 0.305705 0.275765 0.305109 0.290275 0.303915C0.304784 0.302721 0.31912 0.301071 0.333282 0.298965C0.347444 0.296859 0.360079 0.294471 0.371186 0.291803C0.372991 0.291382 0.374553 0.291417 0.375872 0.291908C0.377192 0.2924 0.377851 0.293629 0.377851 0.295595V0.30718C0.364938 0.310691 0.351054 0.313605 0.336198 0.315922C0.321341 0.318239 0.306485 0.319924 0.291628 0.320977Z" fill="#FFBC51"/>
<circle id="Ellipse 1" cx="0.25" cy="0.25" r="0.125" stroke="#FFBC51" stroke-width="50"/>
</g>
<defs>
<clipPath id="clip0_197_64">
<rect width="512" height="512" fill="white" transform="scale(0.000976562)"/>
</clipPath>
</defs>
</svg>
