<svg width="1" height="1" viewBox="0 0 1 1" fill="none" xmlns="http://www.w3.org/2000/svg">
<g id="favicon">
<path id="Path" d="M0.0117188 0.249858C0.0117188 0.201847 0.0221179 0.159029 0.0429161 0.121404C0.0637143 0.0837802 0.0927163 0.0544656 0.129922 0.0334606C0.167128 0.0124556 0.209302 0.00195312 0.256444 0.00195312C0.314217 0.00195312 0.363671 0.0171875 0.404805 0.0476562C0.422553 0.0608022 0.437762 0.0760107 0.450434 0.0932817C0.476658 0.129025 0.44392 0.172301 0.399589 0.172301C0.373547 0.172301 0.351276 0.15562 0.332061 0.138044C0.327057 0.133466 0.32161 0.12942 0.315719 0.125906C0.297925 0.115288 0.277705 0.109979 0.255058 0.109979C0.218545 0.109979 0.188966 0.122674 0.166319 0.148065C0.143672 0.173455 0.132348 0.207386 0.132348 0.249858C0.132348 0.29233 0.143672 0.326261 0.166319 0.351651C0.188966 0.377042 0.218545 0.389737 0.255058 0.389737C0.277705 0.389737 0.297925 0.384428 0.315719 0.37381C0.32161 0.370296 0.327057 0.366249 0.332061 0.361672C0.351276 0.344096 0.373547 0.327415 0.399589 0.327415C0.44392 0.327415 0.476672 0.370712 0.450376 0.406401C0.437716 0.423583 0.422526 0.438687 0.404805 0.451713C0.363671 0.481951 0.314217 0.49707 0.256444 0.49707C0.209302 0.49707 0.167128 0.486568 0.129922 0.465563C0.0927163 0.444558 0.0637143 0.415359 0.0429161 0.377965C0.0221179 0.340572 0.0117188 0.297869 0.0117188 0.249858Z" fill="#FFBC51"/>
</g>
</svg>
